<svg width="260" height="261" viewBox="0 0 260 261" fill="none" xmlns="http://www.w3.org/2000/svg">
<rect x="0.5" y="91" width="79" height="79" rx="8.35366" fill="white" style="fill:white;fill-opacity:1;"/>
<rect x="0.5" y="91" width="79" height="79" rx="8.35366" stroke="#F4F4F4" style="stroke:#F4F4F4;stroke:color(display-p3 0.9569 0.9569 0.9569);stroke-opacity:1;"/>
<path d="M39.9985 149.887C47.9444 149.887 54.3857 143.446 54.3857 135.5C54.3857 127.554 47.9444 121.113 39.9985 121.113C32.0527 121.113 25.6113 127.554 25.6113 135.5C25.6113 143.446 32.0527 149.887 39.9985 149.887Z" fill="url(#paint0_linear_451_467)" style=""/>
<path d="M37.3597 142.094C36.8936 142.094 36.9728 141.918 36.8121 141.474L35.4414 136.963L45.992 130.704" fill="#C8DAEA" style="fill:#C8DAEA;fill:color(display-p3 0.7843 0.8549 0.9176);fill-opacity:1;"/>
<path d="M37.3613 142.094C37.721 142.094 37.8799 141.93 38.0807 141.734L39.999 139.869L37.6062 138.426" fill="#A9C9DD" style="fill:#A9C9DD;fill:color(display-p3 0.6627 0.7882 0.8667);fill-opacity:1;"/>
<path d="M37.6057 138.426L43.4037 142.71C44.0653 143.075 44.5428 142.886 44.7077 142.096L47.0678 130.974C47.3094 130.005 46.6985 129.566 46.0655 129.853L32.2071 135.197C31.2611 135.577 31.2666 136.104 32.0346 136.34L35.591 137.45L43.8244 132.255C44.2131 132.019 44.5699 132.146 44.2771 132.406" fill="url(#paint1_linear_451_467)" style=""/>
<rect x="180.5" y="91" width="79" height="79" rx="8.35366" fill="white" style="fill:white;fill-opacity:1;"/>
<rect x="180.5" y="91" width="79" height="79" rx="8.35366" stroke="#F4F4F4" style="stroke:#F4F4F4;stroke:color(display-p3 0.9569 0.9569 0.9569);stroke-opacity:1;"/>
<path fill-rule="evenodd" clip-rule="evenodd" d="M221.313 116.046C224.876 116.221 228.195 117.691 230.731 120.228C233.436 122.935 234.925 126.532 234.923 130.358C234.92 138.253 228.493 144.677 220.597 144.677C217.628 144.677 215.269 143.765 213.745 142.934L206.15 144.926L208.183 137.505C206.929 135.334 206.269 132.871 206.271 130.347C206.274 122.452 212.7 116.029 220.597 116.029L221.313 116.046ZM214.097 140.342L214.532 140.6C216.36 141.684 218.456 142.258 220.592 142.259H220.597C227.16 142.259 232.502 136.92 232.504 130.357C232.506 127.177 231.268 124.187 229.02 121.937C226.772 119.688 223.782 118.448 220.602 118.447C214.034 118.447 208.692 123.786 208.689 130.348C208.688 132.597 209.318 134.787 210.51 136.681L210.793 137.132L209.59 141.524L214.097 140.342ZM227.815 133.763C227.725 133.614 227.487 133.524 227.129 133.345C226.771 133.166 225.011 132.301 224.683 132.181C224.354 132.062 224.116 132.002 223.877 132.36C223.639 132.718 222.953 133.524 222.744 133.763C222.535 134.002 222.326 134.032 221.968 133.853C221.61 133.674 220.457 133.296 219.089 132.077C218.025 131.128 217.307 129.957 217.098 129.598C216.889 129.24 217.076 129.047 217.255 128.868C217.416 128.708 217.613 128.45 217.792 128.241C217.971 128.032 218.031 127.883 218.15 127.644C218.269 127.406 218.21 127.197 218.12 127.018C218.031 126.838 217.315 125.077 217.016 124.361C216.726 123.663 216.431 123.758 216.211 123.747C216.002 123.736 215.764 123.734 215.525 123.734C215.286 123.734 214.899 123.824 214.57 124.182C214.242 124.54 213.318 125.406 213.318 127.167C213.318 128.928 214.6 130.629 214.779 130.868C214.958 131.107 217.303 134.721 220.894 136.27C221.748 136.639 222.415 136.859 222.935 137.024C223.793 137.296 224.573 137.258 225.19 137.166C225.877 137.063 227.308 136.3 227.606 135.465C227.904 134.629 227.904 133.912 227.815 133.763Z" fill="white" style="fill:white;fill-opacity:1;"/>
<mask id="mask0_451_467" style="mask-type:alpha" maskUnits="userSpaceOnUse" x="208" y="118" width="25" height="25">
<path fill-rule="evenodd" clip-rule="evenodd" d="M214.095 140.342L214.53 140.6C216.358 141.684 218.454 142.258 220.59 142.259H220.595C227.158 142.259 232.5 136.92 232.503 130.357C232.504 127.177 231.266 124.187 229.018 121.937C226.77 119.688 223.78 118.448 220.6 118.447C214.032 118.447 208.69 123.786 208.688 130.348C208.687 132.596 209.316 134.787 210.508 136.681L210.791 137.132L209.588 141.524L214.095 140.342ZM227.813 133.763C227.723 133.614 227.485 133.524 227.127 133.345C226.769 133.166 225.009 132.301 224.681 132.181C224.353 132.062 224.114 132.002 223.875 132.36C223.637 132.718 222.951 133.524 222.742 133.763C222.533 134.002 222.324 134.032 221.966 133.853C221.608 133.674 220.455 133.296 219.088 132.077C218.023 131.128 217.305 129.957 217.096 129.598C216.887 129.24 217.074 129.046 217.253 128.868C217.414 128.708 217.611 128.45 217.79 128.241C217.969 128.032 218.029 127.883 218.148 127.644C218.267 127.406 218.208 127.197 218.118 127.018C218.029 126.838 217.313 125.077 217.015 124.361C216.724 123.663 216.429 123.758 216.209 123.747C216.001 123.736 215.762 123.734 215.523 123.734C215.284 123.734 214.897 123.824 214.569 124.182C214.24 124.54 213.316 125.406 213.316 127.167C213.316 128.928 214.598 130.629 214.777 130.868C214.956 131.107 217.301 134.72 220.892 136.27C221.746 136.639 222.413 136.859 222.933 137.024C223.791 137.296 224.571 137.258 225.188 137.166C225.876 137.063 227.306 136.3 227.604 135.465C227.902 134.629 227.902 133.912 227.813 133.763Z" fill="black" style="fill:black;fill-opacity:1;"/>
</mask>
<g mask="url(#mask0_451_467)">
<path d="M240.268 110.518H200.016V150.77H240.268V110.518Z" fill="url(#paint2_linear_451_467)" style=""/>
</g>
<rect x="90.5" y="1" width="79" height="79" rx="8.35366" fill="white" style="fill:white;fill-opacity:1;"/>
<rect x="90.5" y="1" width="79" height="79" rx="8.35366" stroke="#F4F4F4" style="stroke:#F4F4F4;stroke:color(display-p3 0.9569 0.9569 0.9569);stroke-opacity:1;"/>
<path d="M127.834 28.9018C128.925 26.6922 132.075 26.6922 133.166 28.9019L134.951 32.5195C135.384 33.397 136.222 34.0051 137.19 34.1459L141.182 34.726C143.621 35.0803 144.594 38.077 142.83 39.797L139.941 42.6129C139.24 43.2959 138.921 44.28 139.086 45.2444L139.768 49.2206C140.184 51.6492 137.635 53.5013 135.454 52.3546L131.883 50.4773C131.017 50.022 129.983 50.022 129.117 50.4773L125.546 52.3546C123.365 53.5013 120.816 51.6492 121.232 49.2206L121.914 45.2444C122.079 44.28 121.76 43.2959 121.059 42.6129L118.17 39.797C116.406 38.077 117.379 35.0803 119.818 34.726L123.81 34.1459C124.778 34.0051 125.616 33.397 126.049 32.5195L127.834 28.9018Z" fill="#F22F46" style="fill:#F22F46;fill:color(display-p3 0.9490 0.1843 0.2745);fill-opacity:1;"/>
<rect x="90.5" y="181" width="79" height="79" rx="8.35366" fill="white" style="fill:white;fill-opacity:1;"/>
<rect x="90.5" y="181" width="79" height="79" rx="8.35366" stroke="#F4F4F4" style="stroke:#F4F4F4;stroke:color(display-p3 0.9569 0.9569 0.9569);stroke-opacity:1;"/>
<rect x="114" y="204.5" width="32" height="32" rx="8.17021" fill="#F22F46" style="fill:#F22F46;fill:color(display-p3 0.9490 0.1843 0.2745);fill-opacity:1;"/>
<rect x="124.895" y="211.309" width="2.38298" height="2.38298" fill="white" style="fill:white;fill-opacity:1;"/>
<rect x="128.98" y="211.309" width="2.38298" height="2.38298" fill="white" style="fill:white;fill-opacity:1;"/>
<rect x="133.066" y="211.309" width="2.38298" height="2.38298" fill="white" style="fill:white;fill-opacity:1;"/>
<rect x="133.066" y="215.395" width="2.38298" height="2.38298" fill="white" style="fill:white;fill-opacity:1;"/>
<rect x="124.895" y="215.395" width="2.38298" height="2.38298" fill="white" style="fill:white;fill-opacity:1;"/>
<rect x="133.066" y="223.565" width="2.38298" height="2.38298" fill="white" style="fill:white;fill-opacity:1;"/>
<rect x="133.066" y="227.65" width="2.38298" height="2.38298" fill="white" style="fill:white;fill-opacity:1;"/>
<rect x="124.895" y="219.479" width="2.38298" height="2.38298" fill="white" style="fill:white;fill-opacity:1;"/>
<rect x="128.98" y="219.479" width="2.38298" height="2.38298" fill="white" style="fill:white;fill-opacity:1;"/>
<rect x="124.895" y="223.565" width="2.38298" height="2.38298" fill="white" style="fill:white;fill-opacity:1;"/>
<rect x="124.895" y="227.65" width="2.38298" height="2.38298" fill="white" style="fill:white;fill-opacity:1;"/>
<path d="M169.293 219.793C168.902 220.183 168.902 220.817 169.293 221.207L175.657 227.571C176.047 227.962 176.681 227.962 177.071 227.571C177.462 227.181 177.462 226.547 177.071 226.157L171.414 220.5L177.071 214.843C177.462 214.453 177.462 213.819 177.071 213.429C176.681 213.038 176.047 213.038 175.657 213.429L169.293 219.793ZM170 220.5L170 221.5L198 221.5L198 220.5L198 219.5L170 219.5L170 220.5ZM220 198.5L221 198.5L221 170.5L220 170.5L219 170.5L219 198.5L220 198.5ZM198 220.5L198 221.5C210.703 221.5 221 211.203 221 198.5L220 198.5L219 198.5C219 210.098 209.598 219.5 198 219.5L198 220.5Z" fill="#E7E7E7" style="fill:#E7E7E7;fill:color(display-p3 0.9059 0.9059 0.9059);fill-opacity:1;"/>
<path d="M90.7071 221.207C91.0976 220.817 91.0976 220.183 90.7071 219.793L84.3431 213.429C83.9526 213.038 83.3195 213.038 82.9289 213.429C82.5384 213.819 82.5384 214.453 82.9289 214.843L88.5858 220.5L82.9289 226.157C82.5384 226.547 82.5384 227.181 82.9289 227.571C83.3195 227.962 83.9526 227.962 84.3431 227.571L90.7071 221.207ZM40 170.5L39 170.5L39 198.5L40 198.5L41 198.5L41 170.5L40 170.5ZM62 220.5L62 221.5L90 221.5L90 220.5L90 219.5L62 219.5L62 220.5ZM40 198.5L39 198.5C39 211.203 49.2975 221.5 62 221.5L62 220.5L62 219.5C50.402 219.5 41 210.098 41 198.5L40 198.5Z" fill="#E7E7E7" style="fill:#E7E7E7;fill:color(display-p3 0.9059 0.9059 0.9059);fill-opacity:1;"/>
<path d="M38.2929 91.2071C38.6834 91.5976 39.3166 91.5976 39.7071 91.2071L46.0711 84.8431C46.4616 84.4526 46.4616 83.8195 46.0711 83.4289C45.6805 83.0384 45.0474 83.0384 44.6569 83.4289L39 89.0858L33.3431 83.4289C32.9526 83.0384 32.3195 83.0384 31.9289 83.4289C31.5384 83.8195 31.5384 84.4526 31.9289 84.8431L38.2929 91.2071ZM89 40.5V39.5H61V40.5V41.5H89V40.5ZM39 62.5H38V90.5H39H40V62.5H39ZM61 40.5V39.5C48.2975 39.5 38 49.7975 38 62.5H39H40C40 50.902 49.402 41.5 61 41.5V40.5Z" fill="#E7E7E7" style="fill:#E7E7E7;fill:color(display-p3 0.9059 0.9059 0.9059);fill-opacity:1;"/>
<path d="M218.293 91.2071C218.683 91.5976 219.317 91.5976 219.707 91.2071L226.071 84.8431C226.462 84.4526 226.462 83.8195 226.071 83.4289C225.681 83.0384 225.047 83.0384 224.657 83.4289L219 89.0858L213.343 83.4289C212.953 83.0384 212.319 83.0384 211.929 83.4289C211.538 83.8195 211.538 84.4526 211.929 84.8431L218.293 91.2071ZM219 90.5L220 90.5L220 62.5L219 62.5L218 62.5L218 90.5L219 90.5ZM197 40.5L197 39.5L169 39.5L169 40.5L169 41.5L197 41.5L197 40.5ZM219 62.5L220 62.5C220 49.7975 209.703 39.5 197 39.5L197 40.5L197 41.5C208.598 41.5 218 50.902 218 62.5L219 62.5Z" fill="#E7E7E7" style="fill:#E7E7E7;fill:color(display-p3 0.9059 0.9059 0.9059);fill-opacity:1;"/>
<defs>
<linearGradient id="paint0_linear_451_467" x1="44.7952" y1="125.909" x2="37.6016" y2="142.694" gradientUnits="userSpaceOnUse">
<stop stop-color="#37AEE2" style="stop-color:#37AEE2;stop-color:color(display-p3 0.2157 0.6824 0.8863);stop-opacity:1;"/>
<stop offset="1" stop-color="#1E96C8" style="stop-color:#1E96C8;stop-color:color(display-p3 0.1176 0.5882 0.7843);stop-opacity:1;"/>
</linearGradient>
<linearGradient id="paint1_linear_451_467" x1="41.7977" y1="135.5" x2="44.0492" y2="140.623" gradientUnits="userSpaceOnUse">
<stop stop-color="#EFF7FC" style="stop-color:#EFF7FC;stop-color:color(display-p3 0.9373 0.9686 0.9882);stop-opacity:1;"/>
<stop offset="1" stop-color="white" style="stop-color:white;stop-opacity:1;"/>
</linearGradient>
<linearGradient id="paint2_linear_451_467" x1="220.142" y1="150.77" x2="220.142" y2="110.518" gradientUnits="userSpaceOnUse">
<stop stop-color="#25CF43" style="stop-color:#25CF43;stop-color:color(display-p3 0.1451 0.8118 0.2627);stop-opacity:1;"/>
<stop offset="1" stop-color="#61FD7D" style="stop-color:#61FD7D;stop-color:color(display-p3 0.3804 0.9922 0.4902);stop-opacity:1;"/>
</linearGradient>
</defs>
</svg>
