<svg width="337" height="337" viewBox="0 0 337 337" fill="none" xmlns="http://www.w3.org/2000/svg">
<path d="M252.103 252.76C298.514 206.386 298.514 131.197 252.103 84.8227C205.692 38.448 130.445 38.448 84.0345 84.8227C37.6235 131.197 37.6235 206.386 84.0345 252.76C130.445 299.135 205.692 299.135 252.103 252.76Z" fill="white" style="fill:white;fill-opacity:1;"/>
<path d="M126.728 50.3636C124.543 51.5596 123.182 54.1011 123.391 56.5829C121.401 55.4168 118.678 55.8204 116.988 57.3753C115.282 58.9301 114.624 61.4567 115.132 63.7142C115.626 65.9567 117.197 67.9002 119.172 69.0813C117.751 69.2308 116.614 70.4567 116.24 71.8321C115.866 73.2076 116.18 74.6876 116.748 75.9883C118.648 80.3239 123.78 82.9701 128.419 82.0133L137.022 52.038L126.743 50.3486L126.728 50.3636Z" fill="#263238" style="fill:#263238;fill:color(display-p3 0.1490 0.1961 0.2196);fill-opacity:1;"/>
<path d="M148.242 167.588L148.482 157.137C148.482 157.137 127.071 155.015 125.635 133.83C124.947 123.589 125.231 102.405 125.71 83.2384C126.218 62.622 142.497 45.8628 163.1 44.7265L165.149 44.6069C187.293 44.6667 199.622 63.504 198.933 85.6304L196.031 174.495L158.087 188.608L148.242 167.588Z" fill="#AE7461" style="fill:#AE7461;fill:color(display-p3 0.6824 0.4549 0.3804);fill-opacity:1;"/>
<path d="M148.482 157.153C148.482 157.153 161.918 157.542 175.833 149.738C175.833 149.738 175.04 164.733 148.916 163.985L148.482 157.138V157.153Z" fill="#6F4439" style="fill:#6F4439;fill:color(display-p3 0.4353 0.2667 0.2235);fill-opacity:1;"/>
<path d="M134.225 105.275C134.255 106.875 135.646 108.176 137.322 108.176C138.997 108.176 140.329 106.875 140.299 105.275C140.269 103.676 138.878 102.375 137.217 102.375C135.541 102.375 134.21 103.676 134.24 105.275H134.225Z" fill="#263238" style="fill:#263238;fill:color(display-p3 0.1490 0.1961 0.2196);fill-opacity:1;"/>
<path d="M130.843 93.3601C131.247 93.7338 133.447 91.9099 136.708 91.7305C139.97 91.5062 142.454 93.0611 142.783 92.6424C142.948 92.463 142.529 91.7604 141.436 91.0577C140.374 90.3551 138.579 89.7271 136.544 89.8467C134.509 89.9663 132.848 90.8185 131.906 91.6258C130.948 92.4481 130.649 93.1807 130.843 93.3451V93.3601Z" fill="#263238" style="fill:#263238;fill:color(display-p3 0.1490 0.1961 0.2196);fill-opacity:1;"/>
<path d="M162.861 104.184C162.891 105.784 164.283 107.084 165.958 107.069C167.634 107.069 168.966 105.769 168.936 104.169C168.906 102.569 167.514 101.269 165.854 101.269C164.178 101.269 162.846 102.569 162.876 104.169L162.861 104.184Z" fill="#263238" style="fill:#263238;fill:color(display-p3 0.1490 0.1961 0.2196);fill-opacity:1;"/>
<path d="M162.922 92.194C163.325 92.5678 164.852 90.5196 168.113 90.3402C171.375 90.116 174.517 91.895 174.861 91.4764C175.026 91.297 174.607 90.5944 173.515 89.8917C172.452 89.189 170.657 88.5611 168.622 88.6807C166.587 88.8003 164.926 89.6525 163.984 90.4598C163.026 91.2821 162.727 92.0146 162.922 92.1791V92.194Z" fill="#263238" style="fill:#263238;fill:color(display-p3 0.1490 0.1961 0.2196);fill-opacity:1;"/>
<path d="M152.433 117.011C152.433 116.832 150.398 116.592 147.076 116.353C146.238 116.308 145.445 116.189 145.266 115.636C145.041 115.053 145.341 114.126 145.685 113.139C146.358 111.076 147.061 108.923 147.794 106.665C150.712 97.4561 152.777 89.9062 152.403 89.7866C152.029 89.667 149.365 97.0375 146.448 106.262C145.745 108.534 145.071 110.702 144.443 112.765C144.174 113.722 143.695 114.828 144.189 116.054C144.443 116.667 145.086 117.086 145.625 117.19C146.164 117.325 146.642 117.31 147.046 117.31C150.368 117.31 152.418 117.205 152.418 117.026L152.433 117.011Z" fill="#263238" style="fill:#263238;fill:color(display-p3 0.1490 0.1961 0.2196);fill-opacity:1;"/>
<path d="M160.827 82.7905C161.276 83.6277 164.433 82.7307 168.293 82.6261C172.153 82.4467 175.37 83.1045 175.759 82.2374C175.924 81.8337 175.265 81.0862 173.904 80.4134C172.557 79.7407 170.477 79.2324 168.173 79.3071C165.854 79.3968 163.834 80.0696 162.533 80.832C161.231 81.5945 160.632 82.3869 160.827 82.7905Z" fill="#263238" style="fill:#263238;fill:color(display-p3 0.1490 0.1961 0.2196);fill-opacity:1;"/>
<path d="M130.214 85.4961C130.932 86.1539 133.326 85.0924 136.319 84.7037C139.281 84.2253 141.899 84.5393 142.378 83.702C142.588 83.2984 142.109 82.6107 140.912 82.0426C139.745 81.4745 137.845 81.1306 135.81 81.4296C133.76 81.7286 132.069 82.6107 131.112 83.4927C130.154 84.3748 129.885 85.1672 130.214 85.4961Z" fill="#263238" style="fill:#263238;fill:color(display-p3 0.1490 0.1961 0.2196);fill-opacity:1;"/>
<path d="M196.674 106.456C196.629 103.182 199.308 100.431 202.584 100.566C206.564 100.715 211.098 102.719 211.277 110.911C211.621 125.428 196.959 122.782 196.929 122.363C196.899 122.079 196.764 112.541 196.674 106.456Z" fill="#AE7461" style="fill:#AE7461;fill:color(display-p3 0.6824 0.4549 0.3804);fill-opacity:1;"/>
<path d="M199.951 116.817C199.951 116.817 200.206 116.981 200.639 117.176C201.058 117.355 201.777 117.475 202.54 117.176C204.066 116.578 205.293 114.111 205.308 111.495C205.308 110.179 205.008 108.923 204.515 107.892C204.051 106.845 203.348 106.113 202.57 105.993C201.791 105.829 201.253 106.307 201.088 106.726C200.909 107.129 200.998 107.428 200.924 107.443C200.879 107.488 200.61 107.204 200.714 106.606C200.774 106.322 200.924 105.963 201.268 105.679C201.612 105.38 202.121 105.231 202.659 105.275C203.781 105.32 204.814 106.337 205.352 107.458C205.951 108.594 206.325 110 206.325 111.48C206.295 114.41 204.859 117.176 202.779 117.834C201.762 118.118 200.909 117.834 200.46 117.505C199.996 117.161 199.921 116.832 199.966 116.802L199.951 116.817Z" fill="#6F4439" style="fill:#6F4439;fill:color(display-p3 0.4353 0.2667 0.2235);fill-opacity:1;"/>
<path d="M146.912 69.6343C146.912 69.6343 146.852 69.6492 146.807 69.6492C146.717 69.6492 146.628 69.6642 146.553 69.6792L146.912 69.6343Z" fill="#FF725E" style="fill:#FF725E;fill:color(display-p3 1.0000 0.4471 0.3686);fill-opacity:1;"/>
<path d="M211.517 79.6955C211.188 78.4098 210.276 77.3483 209.138 76.7055C209.797 75.9131 210.276 75.0011 210.515 73.9995C211.173 71.2038 209.827 68.0493 207.358 66.5692C209.752 64.0277 210.605 60.1256 209.483 56.8067C208.36 53.4877 205.308 50.9163 201.867 50.3482C201.837 45.9827 199.323 41.7069 195.523 39.5541C191.723 37.4013 186.755 37.4461 183 39.6587C179.663 32.9012 170.013 30.27 163.714 34.3963C159.225 31.5557 154.453 28.6404 149.171 28.6105C143.889 28.5806 138.219 32.7667 138.742 38.0142C134.927 37.2069 130.887 36.9378 127.162 38.1039C123.436 39.27 120.07 42.0508 118.963 45.8033C117.871 49.5558 119.546 54.1306 123.152 55.6555C120.055 59.2286 120.264 65.2087 123.631 68.5576C124.603 69.5294 125.815 70.1872 127.102 70.6207C127.087 71.5327 127.102 72.4596 127.222 73.4015C127.222 73.4015 127.581 72.4297 128.194 70.9496C131.097 71.5626 134.299 70.9197 136.543 68.9463C139.356 71.6822 143.785 72.5942 147.45 71.2038C151.116 69.7985 153.809 66.1506 154.063 62.2486C156.248 64.1174 159.39 64.8051 162.158 64.0277C164.926 63.2502 167.245 61.0227 168.128 58.2868C171.434 61.6506 176.866 62.7419 181.219 60.918C181.444 63.7287 183.03 66.2702 185.229 68.0194C185.184 70.4413 184.945 73.2221 185.319 76.6158C189.508 114.649 197.079 125.04 198.067 106.965C198.171 105.036 203.243 103.197 203.857 95.4082C204.665 95.2288 205.443 94.9597 206.176 94.5561C207.702 93.7039 208.944 92.2537 209.348 90.5494C209.752 88.8451 209.228 86.9015 207.882 85.7803C210.44 85.1673 212.206 82.252 211.532 79.7105L211.517 79.6955Z" fill="#263238" style="fill:#263238;fill:color(display-p3 0.1490 0.1961 0.2196);fill-opacity:1;"/>
<path d="M181.997 63.3106C181.997 63.3106 181.997 63.7591 182.297 64.5066C182.611 65.2392 183.239 66.2708 184.406 67.1827C185.543 68.0947 187.309 68.8871 189.344 68.7525C191.349 68.6329 193.593 67.6462 195.074 65.6877H194.236C194.984 66.7193 195.987 67.6163 197.154 68.2592C199.667 69.6346 202.615 69.7691 204.919 68.8422C207.253 67.9303 208.749 66.0914 209.542 64.4618C210.35 62.8023 210.47 61.2774 210.425 60.2757C210.35 59.2591 210.126 58.7358 210.081 58.7508C209.871 58.7358 210.515 61.0681 208.884 64.1179C208.076 65.5831 206.655 67.1827 204.575 67.9303C202.525 68.7077 199.892 68.5582 197.663 67.3322C196.615 66.7641 195.732 65.9718 195.074 65.0748L194.655 64.5066L194.236 65.0748C193.009 66.7641 191.049 67.691 189.284 67.8555C187.488 68.0349 185.917 67.4219 184.81 66.6595C182.566 65.0598 182.147 63.2359 181.982 63.3256L181.997 63.3106Z" fill="#455A64" style="fill:#455A64;fill:color(display-p3 0.2706 0.3529 0.3922);fill-opacity:1;"/>
<path d="M151.729 126.416C151.803 126.715 154.137 126.416 156.995 125.937C159.853 125.474 162.172 125.011 162.142 124.712C162.112 124.413 159.718 124.398 156.831 124.876C153.928 125.339 151.669 126.132 151.743 126.416H151.729Z" fill="#263238" style="fill:#263238;fill:color(display-p3 0.1490 0.1961 0.2196);fill-opacity:1;"/>
<path d="M105.99 176.319C105.99 176.319 101.367 176.603 91.8507 183.719C82.335 190.836 60.8496 220.018 60.8496 220.018C70.4103 240.097 77.4125 251.354 94.7534 263.27L114.847 242.728C114.847 242.728 126.473 186.769 125.096 186.963C123.72 187.158 105.99 176.319 105.99 176.319Z" fill="#FF725E" style="fill:#FF725E;fill:color(display-p3 1.0000 0.4471 0.3686);fill-opacity:1;"/>
<path d="M245.046 168.5C231.565 162.535 196.554 158.783 196.554 158.783C196.554 158.783 189.283 177.53 168.127 178.517C155.11 179.13 145.624 165.525 145.624 165.525C145.624 165.525 110.823 174.032 103.551 177.007C97.9104 217.119 96.6087 226.672 101.756 267.441C117.271 277.891 136.647 285.247 156.277 286.936C193.996 290.18 234.019 275.694 258.931 244.448L245.061 168.5H245.046Z" fill="#FF725E" style="fill:#FF725E;fill:color(display-p3 1.0000 0.4471 0.3686);fill-opacity:1;"/>
<path d="M94.753 201.824C94.753 201.824 94.9026 202.736 95.0373 204.41C95.172 206.204 95.3664 208.581 95.5759 211.467C96.0397 217.417 96.728 225.639 97.6856 234.699C98.6581 243.759 99.7054 251.937 100.513 257.857C100.902 260.713 101.232 263.09 101.471 264.869C101.695 266.528 101.785 267.44 101.74 267.455C101.68 267.455 101.486 266.558 101.172 264.914C100.858 263.269 100.439 260.892 99.9747 257.932C99.0321 252.027 97.8801 243.849 96.9075 234.774C95.95 225.699 95.3365 217.462 95.0223 211.497C94.8577 208.506 94.768 206.099 94.7231 204.425C94.6782 202.751 94.6782 201.824 94.7231 201.824H94.753Z" fill="#263238" style="fill:#263238;fill:color(display-p3 0.1490 0.1961 0.2196);fill-opacity:1;"/>
<path d="M163.189 187.711C163.189 184.497 163.278 173.762 164.146 168.395C165.373 160.815 178.39 142.516 178.39 142.516C178.39 142.516 178.091 135.609 170.625 140.334C161.782 145.94 158.161 153.669 155.558 152.593C152.955 151.516 135.793 138.629 131.798 139.721C127.819 140.812 127.804 144.864 129.24 146.553C130.691 148.272 132.651 150.739 132.651 150.739C132.651 150.739 123.958 149.229 127.056 158.379C127.056 158.379 116.343 153.759 119.245 166.482C119.245 166.482 115.206 169.232 117.525 173.448C119.455 176.947 124.198 183.061 126.891 186.306C129.584 189.565 134.477 201.45 134.477 201.45L139.384 221.469L172.031 209.464L163.204 187.666L163.189 187.711Z" fill="#AE7461" style="fill:#AE7461;fill:color(display-p3 0.6824 0.4549 0.3804);fill-opacity:1;"/>
<path d="M132.473 150.784C132.398 150.919 134.582 152.279 137.216 154.028C139.849 155.778 141.943 157.273 142.033 157.153C142.123 157.048 140.163 155.359 137.5 153.595C134.852 151.831 132.532 150.665 132.473 150.784Z" fill="#6F4439" style="fill:#6F4439;fill:color(display-p3 0.4353 0.2667 0.2235);fill-opacity:1;"/>
<path d="M126.592 157.84C126.472 157.914 127.489 159.649 129.27 161.338C131.05 163.042 132.831 163.969 132.905 163.85C132.995 163.715 131.364 162.624 129.644 160.964C127.908 159.32 126.726 157.75 126.592 157.84Z" fill="#6F4439" style="fill:#6F4439;fill:color(display-p3 0.4353 0.2667 0.2235);fill-opacity:1;"/>
<path d="M118.767 166.033C118.663 166.138 119.665 167.319 121.012 168.694C122.358 170.07 123.525 171.087 123.63 170.997C123.735 170.892 122.732 169.711 121.386 168.336C120.039 166.96 118.872 165.944 118.767 166.033Z" fill="#6F4439" style="fill:#6F4439;fill:color(display-p3 0.4353 0.2667 0.2235);fill-opacity:1;"/>
<path d="M227.06 217.493L191.99 252.701L162.679 188.609L134.461 201.496C134.461 201.496 155.647 291.601 166.165 304.548C176.669 317.495 182.623 317.869 196.777 311.35C210.931 304.832 254.575 252.342 254.575 252.342L227.045 217.478L227.06 217.493Z" fill="#AE7461" style="fill:#AE7461;fill:color(display-p3 0.6824 0.4549 0.3804);fill-opacity:1;"/>
<path d="M249.579 268.353C249.579 268.353 266.367 236.643 267.698 208.028C268.282 195.395 263.748 182.927 254.517 174.271C251.24 171.206 247.47 168.635 243.49 167.872C243.49 167.872 240.019 179.055 233.091 188.608C226.164 198.161 199.936 239.05 199.936 239.05L249.564 268.353H249.579Z" fill="#FF725E" style="fill:#FF725E;fill:color(display-p3 1.0000 0.4471 0.3686);fill-opacity:1;"/>
<path d="M134.462 201.496C134.462 201.496 134.342 201.271 134.133 200.838C133.908 200.359 133.624 199.702 133.235 198.879C132.442 197.16 131.305 194.618 129.704 191.464C128.881 189.909 127.983 188.13 126.682 186.471C125.305 184.811 123.854 183.002 122.328 181.014C120.817 179.025 119.231 176.887 117.734 174.48C117.001 173.314 116.268 171.804 116.537 170.22C116.777 168.65 117.734 167.259 119.036 166.273L118.901 166.602C118.677 165.406 118.423 164.195 118.408 162.909C118.348 162.266 118.482 161.608 118.542 160.95C118.722 160.293 118.901 159.635 119.32 159.052C120.098 157.841 121.639 157.243 123.031 157.273C124.452 157.273 125.829 157.572 127.16 158.11L126.682 158.543C126.547 158.065 126.412 157.572 126.278 157.093C126.158 156.6 126.113 156.077 126.023 155.568C125.993 154.522 126.038 153.401 126.652 152.414C127.25 151.427 128.327 150.829 129.39 150.575C130.467 150.321 131.574 150.291 132.681 150.44L132.337 151.053C131.694 150.261 131.036 149.454 130.377 148.646L129.375 147.421C129.046 147.032 128.672 146.598 128.432 146.06C127.938 145.028 127.789 143.817 128.088 142.681C128.387 141.53 129.21 140.543 130.243 139.975C130.781 139.706 131.275 139.482 131.903 139.362C132.547 139.273 133.145 139.392 133.699 139.542C134.821 139.841 135.853 140.304 136.871 140.783C138.906 141.769 140.866 142.92 142.811 144.102C146.416 146.299 149.843 148.646 153.239 150.844C154.077 151.367 154.975 151.995 155.768 152.294C156.456 152.504 157.324 151.846 158.012 151.218C159.433 149.902 160.72 148.407 162.082 147.017C164.775 144.221 167.662 141.71 170.834 139.811C171.627 139.332 172.48 138.929 173.393 138.69C174.276 138.405 175.308 138.391 176.221 138.719C177.148 139.063 177.837 139.811 178.255 140.618C178.689 141.425 178.929 142.278 179.033 143.175V143.294L178.959 143.399C174.62 149.215 170.879 154.776 167.977 159.904C166.555 162.475 165.283 164.972 164.61 167.394C163.997 169.831 163.967 172.238 163.802 174.346C163.593 178.592 163.548 181.941 163.443 184.228C163.398 185.364 163.353 186.246 163.294 186.829C163.234 187.412 163.159 187.711 163.159 187.711C163.129 187.711 163.159 187.412 163.189 186.814C163.189 186.172 163.219 185.319 163.234 184.213C163.264 181.926 163.234 178.577 163.398 174.316C163.518 172.193 163.518 169.816 164.131 167.274C164.805 164.748 166.061 162.236 167.483 159.635C170.37 154.432 174.081 148.856 178.42 142.98L178.345 143.219C178.151 141.695 177.447 139.93 175.951 139.362C174.455 138.809 172.69 139.542 171.193 140.424C168.111 142.278 165.283 144.759 162.62 147.525C161.274 148.901 160.002 150.396 158.521 151.771C158.147 152.115 157.728 152.444 157.264 152.728C156.785 152.952 156.187 153.251 155.528 153.027C154.451 152.608 153.703 152.025 152.805 151.487C149.394 149.274 145.968 146.942 142.392 144.759C140.462 143.578 138.502 142.442 136.512 141.47C135.524 140.992 134.507 140.543 133.489 140.274C132.981 140.125 132.457 140.05 132.023 140.11C131.574 140.185 131.051 140.409 130.617 140.633C129.749 141.126 129.076 141.919 128.821 142.861C128.567 143.803 128.687 144.834 129.105 145.716C129.285 146.15 129.614 146.523 129.958 146.942L130.946 148.153C131.604 148.96 132.247 149.753 132.891 150.545L133.489 151.278L132.547 151.158C130.617 150.904 128.268 151.173 127.265 152.788C126.338 154.432 126.771 156.54 127.355 158.319L127.594 159.052L126.876 158.768C125.649 158.274 124.318 157.975 123.031 157.975C121.744 157.945 120.517 158.454 119.874 159.455C119.515 159.934 119.365 160.532 119.186 161.1C119.141 161.713 119.006 162.311 119.051 162.909C119.051 164.135 119.305 165.316 119.515 166.467L119.545 166.676L119.38 166.796C118.228 167.648 117.315 168.949 117.121 170.309C116.882 171.7 117.48 173 118.213 174.181C119.664 176.559 121.236 178.711 122.717 180.7C124.213 182.688 125.649 184.527 126.996 186.187C128.327 187.936 129.195 189.715 130.003 191.299C131.574 194.499 132.666 197.055 133.385 198.805C133.729 199.642 133.998 200.314 134.193 200.808C134.372 201.256 134.447 201.496 134.432 201.511L134.462 201.496Z" fill="#6F4439" style="fill:#6F4439;fill:color(display-p3 0.4353 0.2667 0.2235);fill-opacity:1;"/>
<path d="M202.21 271.896C202.001 271.986 199.891 267.351 196.824 261.879C193.772 256.392 190.944 252.162 191.123 252.027C191.213 251.967 192.021 252.954 193.218 254.643C194.415 256.333 195.956 258.74 197.497 261.49C199.038 264.256 200.265 266.828 201.073 268.741C201.881 270.64 202.285 271.866 202.195 271.896H202.21Z" fill="#6F4439" style="fill:#6F4439;fill:color(display-p3 0.4353 0.2667 0.2235);fill-opacity:1;"/>
<path d="M223.336 203.827C223.336 203.827 223.216 204.096 222.947 204.56C222.618 205.098 222.214 205.771 221.705 206.608C220.538 208.447 218.952 210.988 216.977 214.113C212.863 220.527 207.207 229.317 200.803 239.274L200.684 238.736C202.584 239.887 204.574 241.098 206.594 242.339C218.114 249.41 228.528 255.824 236.173 260.279C239.944 262.447 243.026 264.226 245.255 265.512C246.273 266.095 247.096 266.558 247.739 266.917C248.308 267.246 248.592 267.426 248.577 267.455C248.577 267.485 248.248 267.336 247.664 267.052C247.006 266.723 246.168 266.304 245.121 265.766C242.921 264.63 239.764 262.926 235.904 260.743C228.184 256.392 217.71 250.053 206.19 242.982C204.17 241.741 202.18 240.53 200.28 239.379L199.936 239.17L200.16 238.841C206.639 228.944 212.384 220.198 216.558 213.814C218.608 210.749 220.269 208.252 221.481 206.443C222.034 205.636 222.483 204.993 222.842 204.47C223.156 204.022 223.336 203.797 223.351 203.812L223.336 203.827Z" fill="#263238" style="fill:#263238;fill:color(display-p3 0.1490 0.1961 0.2196);fill-opacity:1;"/>
<path d="M221.031 192.465C221.136 192.525 220.388 193.826 219.281 195.964C218.174 198.102 216.722 201.092 215.391 204.5C214.059 207.924 213.101 211.108 212.488 213.426C211.86 215.743 211.53 217.208 211.411 217.193C211.321 217.178 211.456 215.683 211.949 213.306C212.443 210.929 213.326 207.685 214.672 204.231C216.019 200.778 217.56 197.788 218.802 195.71C220.044 193.631 220.956 192.42 221.031 192.48V192.465Z" fill="#263238" style="fill:#263238;fill:color(display-p3 0.1490 0.1961 0.2196);fill-opacity:1;"/>
<path d="M296.951 112.423H291.879L280.822 97.0246V86.9182C280.822 86.9182 272.997 86.4398 273.909 99.6708C274.837 112.902 273.835 109.538 273.835 109.538C273.835 109.538 257.212 109.598 255.82 111.048C254.818 112.094 254.354 128.599 254.19 137.555C254.1 142.055 256.868 146.256 261.057 147.317C261.656 147.467 262.254 147.556 262.853 147.556C266.997 147.556 288.183 144.193 288.183 144.193H296.936V112.438L296.951 112.423Z" fill="#F22F46" style="fill:#F22F46;fill:color(display-p3 0.9490 0.1843 0.2745);fill-opacity:1;"/>
<path d="M311.464 109.643L308.337 144.268H299.674V110.346L311.464 109.643Z" fill="#F22F46" style="fill:#F22F46;fill:color(display-p3 0.9490 0.1843 0.2745);fill-opacity:1;"/>
<path d="M272.879 60.7009L274.959 58.5929L285.926 60.2823L290.145 64.4235C290.145 64.4235 293.557 61.3587 287.647 56.3205C281.737 51.2822 283.547 52.254 283.547 52.254C283.547 52.254 290.325 45.2872 290.295 44.1211C290.265 43.2689 283.547 36.317 279.881 32.5795C278.026 30.6957 275.153 30.1426 272.984 31.4433C272.67 31.6227 272.386 31.8469 272.146 32.0861C270.44 33.8203 263.169 44.0463 263.169 44.0463L259.578 47.6942L272.849 60.7009H272.879Z" fill="#FFE1E5" style="fill:#FFE1E5;fill:color(display-p3 1.0000 0.8824 0.8980);fill-opacity:1;"/>
<path d="M268.091 67.8921L254.895 52.4036L258.441 48.7856L272.624 62.6894L268.091 67.8921Z" fill="#FFE1E5" style="fill:#FFE1E5;fill:color(display-p3 1.0000 0.8824 0.8980);fill-opacity:1;"/>
</svg>
