<svg width="270" height="221" viewBox="0 0 270 221" fill="none" xmlns="http://www.w3.org/2000/svg">
<rect x="11" y="9.99561" width="259" height="211" rx="12" fill="#F4F4F4" style="fill:#F4F4F4;fill:color(display-p3 0.9569 0.9569 0.9569);fill-opacity:1;"/>
<rect x="0.607422" y="0.5" width="258" height="210" rx="11.5" fill="white" style="fill:white;fill-opacity:1;"/>
<rect x="0.607422" y="0.5" width="258" height="210" rx="11.5" stroke="#F4F4F4" style="stroke:#F4F4F4;stroke:color(display-p3 0.9569 0.9569 0.9569);stroke-opacity:1;"/>
<rect x="18.1074" y="14" width="43.2485" height="43.2485" rx="11.0422" fill="#F22F46" style="fill:#F22F46;fill:color(display-p3 0.9490 0.1843 0.2745);fill-opacity:1;"/>
<rect x="38.4023" y="22.447" width="3.22063" height="3.22063" fill="white" style="fill:white;fill-opacity:1;"/>
<rect x="44.4609" y="22.447" width="3.22063" height="3.22063" fill="white" style="fill:white;fill-opacity:1;"/>
<rect x="49.8477" y="22.447" width="3.22063" height="3.22063" fill="white" style="fill:white;fill-opacity:1;"/>
<rect x="32.4785" y="34.6106" width="3.22063" height="3.22063" fill="white" style="fill:white;fill-opacity:1;"/>
<rect x="26.8926" y="34.6106" width="3.22063" height="3.22063" fill="white" style="fill:white;fill-opacity:1;"/>
<rect x="32.4785" y="46.8167" width="3.22063" height="3.22063" fill="white" style="fill:white;fill-opacity:1;"/>
<rect x="38.3809" y="46.8167" width="3.22063" height="3.22063" fill="white" style="fill:white;fill-opacity:1;"/>
<rect x="44.4609" y="46.8167" width="3.22063" height="3.22063" fill="white" style="fill:white;fill-opacity:1;"/>
<rect x="49.8477" y="40.6924" width="3.22063" height="3.22063" fill="white" style="fill:white;fill-opacity:1;"/>
<rect x="49.8477" y="46.7742" width="3.22063" height="3.22063" fill="white" style="fill:white;fill-opacity:1;"/>
<rect x="38.3809" y="34.6106" width="3.22063" height="3.22063" fill="white" style="fill:white;fill-opacity:1;"/>
<rect x="49.8477" y="34.6106" width="3.22063" height="3.22063" fill="white" style="fill:white;fill-opacity:1;"/>
<rect x="38.4023" y="28.5288" width="3.22063" height="3.22063" fill="white" style="fill:white;fill-opacity:1;"/>
<rect x="38.4023" y="41.0303" width="3.22063" height="3.22063" fill="white" style="fill:white;fill-opacity:1;"/>
<rect x="49.8477" y="28.5288" width="3.22063" height="3.22063" fill="white" style="fill:white;fill-opacity:1;"/>
<rect x="26.5547" y="40.6924" width="3.22063" height="3.22063" fill="white" style="fill:white;fill-opacity:1;"/>
<rect x="26.5547" y="46.8167" width="3.22063" height="3.22063" fill="white" style="fill:white;fill-opacity:1;"/>
<path d="M25.4597 80.3298C26.512 80.3298 27.4347 80.5317 28.2276 80.9353C29.0205 81.3245 29.6331 81.8868 30.0656 82.622C30.5125 83.3428 30.736 84.1862 30.736 85.152C30.736 86.1612 30.4693 87.0478 29.9359 87.8118C29.4025 88.5759 28.6889 89.1165 27.7951 89.4336L30.9955 95.4668H28.2276L25.3515 89.9742H21.9782V95.4668H19.4914V80.3298H25.4597ZM21.9782 87.8118H25.265C26.1588 87.8118 26.8652 87.5739 27.3842 87.0982C27.9176 86.6081 28.1843 85.9593 28.1843 85.152C28.1843 84.3447 27.9176 83.7032 27.3842 83.2275C26.8652 82.7373 26.1588 82.4923 25.265 82.4923H21.9782V87.8118ZM31.6271 89.9526C31.6271 88.8137 31.8506 87.819 32.2975 86.9685C32.7588 86.1035 33.3931 85.4404 34.2004 84.979C35.0221 84.5033 35.9592 84.2654 37.0116 84.2654C38.0784 84.2654 39.0154 84.4817 39.8227 84.9142C40.6444 85.3467 41.286 85.9593 41.7473 86.7522C42.223 87.5451 42.4681 88.475 42.4825 89.5418C42.4825 89.8301 42.4609 90.1256 42.4176 90.4283H34.0707V90.5581C34.1283 91.524 34.4311 92.288 34.9789 92.8503C35.5267 93.4125 36.2547 93.6936 37.1629 93.6936C37.8837 93.6936 38.4892 93.5278 38.9794 93.1963C39.4695 92.8503 39.7939 92.3673 39.9525 91.7474H42.2879C42.0861 92.8719 41.5382 93.7945 40.6444 94.5153C39.7651 95.2361 38.6622 95.5965 37.3359 95.5965C36.1826 95.5965 35.1735 95.3659 34.3085 94.9046C33.458 94.4288 32.7948 93.7657 32.3191 92.9151C31.8578 92.0646 31.6271 91.0771 31.6271 89.9526ZM40.1038 88.72C40.0029 87.9127 39.6786 87.2856 39.1307 86.8387C38.5973 86.3774 37.9198 86.1467 37.0981 86.1467C36.334 86.1467 35.6709 86.3846 35.1086 86.8603C34.5608 87.3217 34.2437 87.9416 34.1572 88.72H40.1038ZM50.0064 84.2654C51.3183 84.2654 52.3851 84.6691 53.2068 85.4764C54.0429 86.2837 54.461 87.5812 54.461 89.3688V95.4668H52.1039V89.4985C52.1039 88.4461 51.8805 87.646 51.4336 87.0982C50.9867 86.5504 50.3308 86.2765 49.4658 86.2765C48.5431 86.2765 47.8151 86.6009 47.2817 87.2496C46.7628 87.8839 46.5033 88.7633 46.5033 89.8877V95.4668H44.1678V84.3952H46.2005L46.46 85.844C47.2961 84.7916 48.4783 84.2654 50.0064 84.2654Z" fill="#292929" style="fill:#292929;fill:color(display-p3 0.1608 0.1608 0.1608);fill-opacity:1;"/>
<path d="M18.9274 113.178C18.9274 112.188 19.1747 111.292 19.6694 110.49C20.1722 109.679 20.8533 109.046 21.7129 108.592C22.5725 108.13 23.5131 107.899 24.5349 107.899C25.5242 107.899 26.404 108.089 27.1744 108.47C27.9528 108.843 28.557 109.366 28.9867 110.039C29.4165 110.704 29.6314 111.463 29.6314 112.314C29.6314 112.947 29.5138 113.51 29.2787 114.005C29.0516 114.499 28.7354 114.885 28.3299 115.16C27.9326 115.436 27.4866 115.574 26.9919 115.574C26.6351 115.574 26.3472 115.489 26.1283 115.318C25.9093 115.14 25.7837 114.921 25.7512 114.662L25.7269 114.479C25.589 114.804 25.3417 115.067 24.9849 115.27C24.6281 115.464 24.2348 115.562 23.805 115.562C23.3996 115.562 23.0306 115.464 22.6981 115.27C22.3738 115.075 22.1183 114.804 21.9318 114.455C21.7453 114.098 21.6521 113.693 21.6521 113.238C21.6521 112.736 21.7656 112.269 21.9927 111.84C22.2278 111.41 22.54 111.069 22.9293 110.818C23.3185 110.567 23.7361 110.441 24.1821 110.441C24.6362 110.441 25.0092 110.526 25.3012 110.696C25.5931 110.867 25.7877 111.09 25.885 111.365L26.0675 110.55H26.8459L26.481 114.017L26.4689 114.175C26.4689 114.41 26.5297 114.589 26.6513 114.71C26.773 114.824 26.9433 114.881 27.1622 114.881C27.4298 114.881 27.6771 114.767 27.9042 114.54C28.1393 114.313 28.3259 114.001 28.4637 113.603C28.6097 113.206 28.6827 112.768 28.6827 112.29C28.6827 111.584 28.5083 110.964 28.1596 110.429C27.819 109.885 27.3325 109.468 26.7 109.176C26.0675 108.876 25.3417 108.726 24.5227 108.726C23.6793 108.726 22.9009 108.924 22.1873 109.322C21.4818 109.711 20.9182 110.246 20.4965 110.927C20.083 111.6 19.8762 112.346 19.8762 113.166C19.8762 114.001 20.0586 114.727 20.4235 115.343C20.7885 115.959 21.3074 116.429 21.9805 116.754C22.6617 117.086 23.4563 117.252 24.3646 117.252C24.8917 117.252 25.3904 117.188 25.8607 117.058C26.3391 116.928 26.7689 116.742 27.15 116.498L27.1257 117.386C26.8095 117.597 26.3959 117.763 25.885 117.885C25.3823 118.015 24.8471 118.08 24.2794 118.08C23.2415 118.08 22.317 117.877 21.5061 117.471C20.6952 117.066 20.0627 116.494 19.6086 115.756C19.1545 115.018 18.9274 114.159 18.9274 113.178ZM25.7512 112.642C25.7512 112.188 25.6215 111.832 25.362 111.572C25.1106 111.304 24.7781 111.171 24.3646 111.171C24.0321 111.171 23.728 111.264 23.4523 111.45C23.1847 111.629 22.9698 111.876 22.8076 112.192C22.6535 112.501 22.5765 112.837 22.5765 113.202C22.5765 113.689 22.7063 114.082 22.9657 114.382C23.2333 114.682 23.578 114.832 23.9997 114.832C24.324 114.832 24.62 114.743 24.8876 114.564C25.1552 114.378 25.366 114.118 25.5201 113.786C25.6742 113.453 25.7512 113.072 25.7512 112.642ZM33.8857 109.966V110.94H33.387C32.795 110.94 32.3693 111.138 32.1098 111.536C31.8584 111.933 31.7327 112.424 31.7327 113.007V116.17H30.7353V109.966H31.5989L31.7327 110.903C31.9111 110.619 32.1423 110.392 32.4261 110.222C32.7099 110.052 33.1032 109.966 33.6059 109.966H33.8857ZM34.0198 113.068C34.0198 112.436 34.1414 111.88 34.3847 111.402C34.6361 110.923 34.9847 110.554 35.4307 110.295C35.8767 110.027 36.3876 109.893 36.9634 109.893C37.531 109.893 38.0338 110.011 38.4717 110.246C38.9095 110.481 39.2542 110.822 39.5056 111.268C39.7569 111.714 39.8907 112.237 39.907 112.837C39.907 112.926 39.8989 113.068 39.8826 113.263H35.0658V113.348C35.0821 113.956 35.2686 114.443 35.6254 114.808C35.9822 115.173 36.4484 115.355 37.0242 115.355C37.4702 115.355 37.8473 115.245 38.1554 115.027C38.4717 114.799 38.6825 114.487 38.7879 114.09H39.7975C39.6759 114.722 39.3718 115.241 38.8852 115.647C38.3987 116.044 37.8027 116.243 37.0972 116.243C36.4809 116.243 35.9416 116.113 35.4794 115.854C35.0172 115.586 34.6563 115.213 34.3968 114.735C34.1455 114.248 34.0198 113.693 34.0198 113.068ZM38.8731 112.436C38.8244 111.909 38.6257 111.499 38.277 111.207C37.9365 110.915 37.5026 110.769 36.9755 110.769C36.5052 110.769 36.0916 110.923 35.7348 111.231C35.378 111.54 35.1753 111.941 35.1267 112.436H38.8731ZM39.9845 109.966H41.0549L42.9281 115.039L44.7891 109.966H45.8352L43.5119 116.17H42.3077L39.9845 109.966ZM46.8757 107.57C47.0622 107.57 47.2163 107.631 47.3379 107.753C47.4596 107.874 47.5204 108.028 47.5204 108.215C47.5204 108.401 47.4596 108.555 47.3379 108.677C47.2163 108.799 47.0622 108.86 46.8757 108.86C46.6892 108.86 46.5351 108.799 46.4135 108.677C46.2919 108.555 46.231 108.401 46.231 108.215C46.231 108.028 46.2919 107.874 46.4135 107.753C46.5351 107.631 46.6892 107.57 46.8757 107.57ZM46.377 109.966H47.3744V116.17H46.377V109.966ZM48.3192 113.068C48.3192 112.436 48.4408 111.88 48.6841 111.402C48.9355 110.923 49.2841 110.554 49.7301 110.295C50.1761 110.027 50.687 109.893 51.2628 109.893C51.8304 109.893 52.3332 110.011 52.7711 110.246C53.2089 110.481 53.5536 110.822 53.805 111.268C54.0563 111.714 54.1901 112.237 54.2064 112.837C54.2064 112.926 54.1983 113.068 54.182 113.263H49.3652V113.348C49.3815 113.956 49.568 114.443 49.9248 114.808C50.2816 115.173 50.7478 115.355 51.3236 115.355C51.7696 115.355 52.1467 115.245 52.4548 115.027C52.7711 114.799 52.9819 114.487 53.0873 114.09H54.0969C53.9753 114.722 53.6712 115.241 53.1846 115.647C52.6981 116.044 52.1021 116.243 51.3966 116.243C50.7803 116.243 50.241 116.113 49.7788 115.854C49.3166 115.586 48.9557 115.213 48.6962 114.735C48.4449 114.248 48.3192 113.693 48.3192 113.068ZM53.1725 112.436C53.1238 111.909 52.9251 111.499 52.5764 111.207C52.2359 110.915 51.802 110.769 51.2749 110.769C50.8046 110.769 50.391 110.923 50.0342 111.231C49.6774 111.54 49.4747 111.941 49.4261 112.436H53.1725ZM54.3798 109.966H55.4258L56.9706 115.014L58.6005 109.966H59.525L61.0698 115.014L62.6875 109.966H63.6971L61.6293 116.17H60.5346L59.0384 111.56L57.4815 116.17L56.3868 116.182L54.3798 109.966ZM64.9353 114.126C64.9515 114.499 65.1137 114.804 65.4218 115.039C65.7381 115.274 66.1435 115.391 66.6382 115.391C67.0761 115.391 67.4288 115.306 67.6964 115.136C67.9721 114.958 68.11 114.727 68.11 114.443C68.11 114.199 68.0451 114.013 67.9154 113.883C67.7856 113.753 67.6153 113.664 67.4045 113.616C67.2018 113.567 66.9099 113.518 66.5287 113.47C65.9935 113.405 65.5556 113.32 65.2151 113.214C64.8745 113.109 64.5988 112.943 64.3879 112.715C64.1771 112.48 64.0717 112.16 64.0717 111.755C64.0717 111.39 64.173 111.065 64.3758 110.781C64.5866 110.498 64.8704 110.279 65.2272 110.125C65.584 109.962 65.9854 109.881 66.4314 109.881C67.1612 109.881 67.7532 110.052 68.2073 110.392C68.6695 110.733 68.925 111.219 68.9736 111.852H67.9762C67.9357 111.527 67.7775 111.26 67.5018 111.049C67.2261 110.838 66.8815 110.733 66.4679 110.733C66.0462 110.733 65.7057 110.822 65.4462 111C65.1867 111.171 65.0569 111.398 65.0569 111.682C65.0569 111.892 65.1177 112.055 65.2394 112.168C65.361 112.282 65.5151 112.359 65.7016 112.399C65.8962 112.44 66.1881 112.484 66.5774 112.533C67.1207 112.598 67.5667 112.687 67.9154 112.801C68.2722 112.914 68.556 113.097 68.7668 113.348C68.9858 113.599 69.0953 113.94 69.0953 114.37C69.0953 114.743 68.9858 115.071 68.7668 115.355C68.5479 115.639 68.2519 115.858 67.8789 116.012C67.5059 116.166 67.0923 116.243 66.6382 116.243C65.8273 116.243 65.1745 116.056 64.6799 115.683C64.1933 115.31 63.946 114.791 63.9379 114.126H64.9353ZM69.2976 109.966H70.3437L71.8885 115.014L73.5184 109.966H74.4429L75.9876 115.014L77.6054 109.966H78.615L76.5472 116.17H75.4524L73.9563 111.56L72.3994 116.17L71.3046 116.182L69.2976 109.966ZM79.6922 107.57C79.8787 107.57 80.0328 107.631 80.1544 107.753C80.276 107.874 80.3369 108.028 80.3369 108.215C80.3369 108.401 80.276 108.555 80.1544 108.677C80.0328 108.799 79.8787 108.86 79.6922 108.86C79.5057 108.86 79.3516 108.799 79.23 108.677C79.1083 108.555 79.0475 108.401 79.0475 108.215C79.0475 108.028 79.1083 107.874 79.23 107.753C79.3516 107.631 79.5057 107.57 79.6922 107.57ZM79.1935 109.966H80.1909V116.17H79.1935V109.966ZM81.7682 110.879H80.6491V109.966H81.7682V108.227H82.7656V109.966H84.3347V110.879H82.7656V114.54C82.7656 114.799 82.8142 114.986 82.9115 115.1C83.017 115.205 83.1954 115.258 83.4467 115.258H84.5293V116.17H83.3859C82.8021 116.17 82.3844 116.04 82.1331 115.781C81.8898 115.521 81.7682 115.112 81.7682 114.552V110.879ZM88.0771 109.893C88.8312 109.893 89.4394 110.121 89.9016 110.575C90.3638 111.029 90.5949 111.742 90.5949 112.715V116.17H89.5975V112.776C89.5975 112.136 89.4515 111.649 89.1596 111.317C88.8677 110.976 88.4501 110.806 87.9068 110.806C87.331 110.806 86.8729 111.008 86.5323 111.414C86.1998 111.819 86.0336 112.371 86.0336 113.068V116.17H85.0361V107.655H86.0336V110.988C86.2363 110.664 86.5039 110.4 86.8364 110.198C87.1769 109.995 87.5905 109.893 88.0771 109.893ZM94.814 109.966V110.94H94.3153C93.7233 110.94 93.2976 111.138 93.0381 111.536C92.7867 111.933 92.661 112.424 92.661 113.007V116.17H91.6636V109.966H92.5272L92.661 110.903C92.8394 110.619 93.0705 110.392 93.3543 110.222C93.6381 110.052 94.0314 109.966 94.5342 109.966H94.814ZM94.948 113.068C94.948 112.436 95.0697 111.88 95.3129 111.402C95.5643 110.923 95.913 110.554 96.359 110.295C96.805 110.027 97.3159 109.893 97.8916 109.893C98.4593 109.893 98.962 110.011 99.3999 110.246C99.8378 110.481 100.182 110.822 100.434 111.268C100.685 111.714 100.819 112.237 100.835 112.837C100.835 112.926 100.827 113.068 100.811 113.263H95.9941V113.348C96.0103 113.956 96.1968 114.443 96.5536 114.808C96.9104 115.173 97.3767 115.355 97.9524 115.355C98.3984 115.355 98.7755 115.245 99.0837 115.027C99.3999 114.799 99.6108 114.487 99.7162 114.09H100.726C100.604 114.722 100.3 115.241 99.8135 115.647C99.3269 116.044 98.7309 116.243 98.0254 116.243C97.4091 116.243 96.8699 116.113 96.4077 115.854C95.9454 115.586 95.5846 115.213 95.3251 114.735C95.0737 114.248 94.948 113.693 94.948 113.068ZM99.8013 112.436C99.7527 111.909 99.554 111.499 99.2053 111.207C98.8647 110.915 98.4309 110.769 97.9038 110.769C97.4335 110.769 97.0199 110.923 96.6631 111.231C96.3063 111.54 96.1036 111.941 96.0549 112.436H99.8013ZM104.812 109.893C105.566 109.893 106.17 110.121 106.624 110.575C107.086 111.029 107.317 111.742 107.317 112.715V116.17H106.32V112.776C106.32 112.136 106.174 111.649 105.882 111.317C105.598 110.976 105.185 110.806 104.641 110.806C104.057 110.806 103.599 111.008 103.267 111.414C102.934 111.819 102.768 112.371 102.768 113.068V116.17H101.771V109.966H102.634L102.768 110.806C103.238 110.198 103.92 109.893 104.812 109.893Z" fill="#6D6D6D" style="fill:#6D6D6D;fill:color(display-p3 0.4275 0.4275 0.4275);fill-opacity:1;"/>
<path d="M19.6289 147.752H32.8062M20.6425 135.588V147.752M27.738 135.588V147.752M31.7925 138.629V147.752M22.6698 138.122H23.1766M22.6698 140.149H23.1766M22.6698 142.177H23.1766M25.2039 138.122H25.7107M25.2039 140.149H25.7107M25.2039 142.177H25.7107M22.6698 147.752V145.471C22.6698 145.051 23.0104 144.711 23.43 144.711H24.9505C25.3701 144.711 25.7107 145.051 25.7107 145.471V147.752M20.1357 135.588H28.2448M27.738 138.629H32.2994M29.7653 141.163H29.7707V141.168H29.7653V141.163ZM29.7653 143.19H29.7707V143.196H29.7653V143.19ZM29.7653 145.217H29.7707V145.223H29.7653V145.217Z" stroke="#292929" style="stroke:#292929;stroke:color(display-p3 0.1608 0.1608 0.1608);stroke-opacity:1;" stroke-width="1.01364" stroke-linecap="round" stroke-linejoin="round"/>
<path d="M41.2933 138.601H45.9966V139.466H42.234V141.996H45.3479V142.861H42.234V146.17H41.2933V138.601ZM47.3192 138.526C47.4849 138.526 47.6219 138.58 47.73 138.688C47.8381 138.796 47.8922 138.933 47.8922 139.099C47.8922 139.264 47.8381 139.401 47.73 139.509C47.6219 139.618 47.4849 139.672 47.3192 139.672C47.1534 139.672 47.0164 139.618 46.9083 139.509C46.8002 139.401 46.7461 139.264 46.7461 139.099C46.7461 138.933 46.8002 138.796 46.9083 138.688C47.0164 138.58 47.1534 138.526 47.3192 138.526ZM46.8759 140.655H47.7624V146.17H46.8759V140.655ZM51.6801 140.591C52.3504 140.591 52.8874 140.792 53.2911 141.196C53.7019 141.6 53.9074 142.234 53.9074 143.099V146.17H53.0208V143.153C53.0208 142.584 52.891 142.151 52.6315 141.856C52.3793 141.553 52.0116 141.402 51.5287 141.402C51.0097 141.402 50.6025 141.582 50.3069 141.942C50.0114 142.303 49.8636 142.793 49.8636 143.413V146.17H48.977V140.655H49.7447L49.8636 141.402C50.2817 140.861 50.8872 140.591 51.6801 140.591ZM60.1951 145.359V146.17H59.7086C59.3554 146.17 59.1031 146.098 58.9517 145.953C58.8004 145.809 58.7211 145.597 58.7139 145.316C58.2886 145.928 57.6723 146.235 56.865 146.235C56.2523 146.235 55.7585 146.09 55.3837 145.802C55.0161 145.514 54.8323 145.121 54.8323 144.624C54.8323 144.069 55.0197 143.643 55.3945 143.348C55.7766 143.052 56.328 142.904 57.0488 142.904H58.6706V142.526C58.6706 142.166 58.5481 141.884 58.303 141.683C58.0651 141.481 57.73 141.38 57.2975 141.38C56.9154 141.38 56.5983 141.466 56.346 141.639C56.1009 141.805 55.9496 142.029 55.8919 142.31H55.0053C55.0702 141.769 55.308 141.347 55.7189 141.045C56.137 140.742 56.6776 140.591 57.3407 140.591C58.0471 140.591 58.5913 140.764 58.9734 141.11C59.3626 141.448 59.5572 141.939 59.5572 142.58V144.959C59.5572 145.225 59.6797 145.359 59.9248 145.359H60.1951ZM58.6706 143.65H56.9623C56.1406 143.65 55.7297 143.957 55.7297 144.569C55.7297 144.843 55.8378 145.063 56.0541 145.229C56.2703 145.395 56.5622 145.478 56.9299 145.478C57.4705 145.478 57.8957 145.337 58.2057 145.056C58.5156 144.768 58.6706 144.389 58.6706 143.921V143.65ZM63.5797 140.591C64.2501 140.591 64.7871 140.792 65.1907 141.196C65.6016 141.6 65.807 142.234 65.807 143.099V146.17H64.9204V143.153C64.9204 142.584 64.7907 142.151 64.5312 141.856C64.2789 141.553 63.9113 141.402 63.4284 141.402C62.9094 141.402 62.5021 141.582 62.2066 141.942C61.9111 142.303 61.7633 142.793 61.7633 143.413V146.17H60.8767V140.655H61.6444L61.7633 141.402C62.1814 140.861 62.7868 140.591 63.5797 140.591ZM71.8569 144.267C71.7416 144.879 71.4713 145.362 71.046 145.716C70.6207 146.062 70.0801 146.235 69.4242 146.235C68.8908 146.235 68.4223 146.116 68.0186 145.878C67.615 145.64 67.3014 145.308 67.078 144.883C66.8545 144.451 66.7428 143.957 66.7428 143.402C66.7428 142.847 66.8545 142.357 67.078 141.931C67.3086 141.506 67.6294 141.178 68.0402 140.947C68.4511 140.71 68.9232 140.591 69.4566 140.591C70.1054 140.591 70.6388 140.764 71.0568 141.11C71.4821 141.456 71.7488 141.931 71.8569 142.537H70.9595C70.873 142.184 70.6928 141.902 70.4189 141.693C70.145 141.484 69.8134 141.38 69.4242 141.38C68.898 141.38 68.4691 141.567 68.1376 141.942C67.8132 142.317 67.651 142.804 67.651 143.402C67.651 144.007 67.8132 144.501 68.1376 144.883C68.4691 145.258 68.898 145.445 69.4242 145.445C69.8278 145.445 70.1666 145.341 70.4405 145.132C70.7144 144.923 70.891 144.634 70.9703 144.267H71.8569ZM73.3253 138.526C73.491 138.526 73.628 138.58 73.7361 138.688C73.8442 138.796 73.8983 138.933 73.8983 139.099C73.8983 139.264 73.8442 139.401 73.7361 139.509C73.628 139.618 73.491 139.672 73.3253 139.672C73.1595 139.672 73.0225 139.618 72.9144 139.509C72.8063 139.401 72.7522 139.264 72.7522 139.099C72.7522 138.933 72.8063 138.796 72.9144 138.688C73.0225 138.58 73.1595 138.526 73.3253 138.526ZM72.882 140.655H73.7686V146.17H72.882V140.655ZM80.1405 145.359V146.17H79.654C79.3008 146.17 79.0485 146.098 78.8971 145.953C78.7458 145.809 78.6665 145.597 78.6593 145.316C78.234 145.928 77.6177 146.235 76.8104 146.235C76.1977 146.235 75.704 146.09 75.3291 145.802C74.9615 145.514 74.7777 145.121 74.7777 144.624C74.7777 144.069 74.9651 143.643 75.3399 143.348C75.722 143.052 76.2734 142.904 76.9942 142.904H78.616V142.526C78.616 142.166 78.4935 141.884 78.2484 141.683C78.0105 141.481 77.6754 141.38 77.2429 141.38C76.8609 141.38 76.5437 141.466 76.2914 141.639C76.0463 141.805 75.895 142.029 75.8373 142.31H74.9507C75.0156 141.769 75.2534 141.347 75.6643 141.045C76.0824 140.742 76.623 140.591 77.2861 140.591C77.9925 140.591 78.5367 140.764 78.9188 141.11C79.308 141.448 79.5026 141.939 79.5026 142.58V144.959C79.5026 145.225 79.6251 145.359 79.8702 145.359H80.1405ZM78.616 143.65H76.9077C76.086 143.65 75.6751 143.957 75.6751 144.569C75.6751 144.843 75.7832 145.063 75.9995 145.229C76.2157 145.395 76.5077 145.478 76.8753 145.478C77.4159 145.478 77.8411 145.337 78.1511 145.056C78.461 144.768 78.616 144.389 78.616 143.921V143.65ZM80.8221 138.601H81.7087V146.17H80.8221V138.601ZM86.5315 143.694C86.5675 144.205 86.773 144.616 87.1478 144.926C87.5226 145.229 87.9983 145.38 88.575 145.38C89.094 145.38 89.512 145.269 89.8292 145.045C90.1536 144.815 90.3157 144.497 90.3157 144.094C90.3157 143.798 90.2256 143.564 90.0454 143.391C89.8724 143.218 89.6454 143.092 89.3643 143.013C89.0904 142.926 88.7156 142.843 88.2398 142.764C87.483 142.634 86.8811 142.421 86.4342 142.126C85.9873 141.83 85.7638 141.351 85.7638 140.688C85.7638 140.263 85.872 139.888 86.0882 139.563C86.3044 139.232 86.6072 138.976 86.9964 138.796C87.3929 138.616 87.8434 138.526 88.3479 138.526C88.8813 138.526 89.3535 138.623 89.7643 138.817C90.1752 139.012 90.4996 139.286 90.7374 139.639C90.9753 139.985 91.1086 140.385 91.1375 140.839H90.2076C90.15 140.4 89.9517 140.046 89.613 139.78C89.2742 139.513 88.8525 139.38 88.3479 139.38C87.8434 139.38 87.4433 139.491 87.1478 139.715C86.8523 139.931 86.7045 140.237 86.7045 140.634C86.7045 140.922 86.791 141.149 86.964 141.315C87.137 141.474 87.3604 141.596 87.6343 141.683C87.9082 141.762 88.2831 141.841 88.7588 141.921C89.5156 142.05 90.1211 142.267 90.5752 142.569C91.0293 142.865 91.2564 143.344 91.2564 144.007C91.2564 144.44 91.1411 144.825 90.9104 145.164C90.687 145.503 90.3698 145.766 89.9589 145.953C89.5553 146.141 89.0904 146.235 88.5642 146.235C87.9731 146.235 87.4577 146.13 87.018 145.921C86.5784 145.705 86.236 145.406 85.9909 145.024C85.753 144.634 85.6233 144.191 85.6017 143.694H86.5315ZM92.1259 143.413C92.1259 142.85 92.2341 142.357 92.4503 141.931C92.6737 141.506 92.9837 141.178 93.3801 140.947C93.7766 140.71 94.2307 140.591 94.7425 140.591C95.247 140.591 95.6939 140.695 96.0832 140.904C96.4724 141.113 96.7787 141.416 97.0022 141.812C97.2256 142.209 97.3446 142.674 97.359 143.207C97.359 143.286 97.3518 143.413 97.3374 143.586H93.0558V143.661C93.0702 144.202 93.236 144.634 93.5531 144.959C93.8703 145.283 94.2847 145.445 94.7965 145.445C95.193 145.445 95.5281 145.348 95.8021 145.153C96.0832 144.952 96.2706 144.674 96.3643 144.321H97.2617C97.1536 144.883 96.8833 145.344 96.4508 145.705C96.0183 146.058 95.4885 146.235 94.8614 146.235C94.3136 146.235 93.8342 146.119 93.4234 145.889C93.0125 145.651 92.6918 145.319 92.4611 144.894C92.2377 144.461 92.1259 143.968 92.1259 143.413ZM96.44 142.85C96.3967 142.382 96.2201 142.018 95.9102 141.758C95.6074 141.499 95.2218 141.369 94.7533 141.369C94.3352 141.369 93.9676 141.506 93.6504 141.78C93.3333 142.054 93.1531 142.411 93.1098 142.85H96.44ZM101.171 140.655V141.52H100.728C100.202 141.52 99.8231 141.697 99.5925 142.05C99.369 142.403 99.2573 142.84 99.2573 143.359V146.17H98.3707V140.655H99.1384L99.2573 141.488C99.4159 141.236 99.6213 141.034 99.8736 140.883C100.126 140.731 100.475 140.655 100.922 140.655H101.171ZM101.483 140.655H102.435L104.1 145.164L105.754 140.655H106.684L104.619 146.17H103.548L101.483 140.655ZM107.789 138.526C107.955 138.526 108.092 138.58 108.2 138.688C108.308 138.796 108.362 138.933 108.362 139.099C108.362 139.264 108.308 139.401 108.2 139.509C108.092 139.618 107.955 139.672 107.789 139.672C107.623 139.672 107.486 139.618 107.378 139.509C107.27 139.401 107.216 139.264 107.216 139.099C107.216 138.933 107.27 138.796 107.378 138.688C107.486 138.58 107.623 138.526 107.789 138.526ZM107.346 140.655H108.232V146.17H107.346V140.655ZM114.366 144.267C114.251 144.879 113.981 145.362 113.555 145.716C113.13 146.062 112.59 146.235 111.934 146.235C111.4 146.235 110.932 146.116 110.528 145.878C110.124 145.64 109.811 145.308 109.587 144.883C109.364 144.451 109.252 143.957 109.252 143.402C109.252 142.847 109.364 142.357 109.587 141.931C109.818 141.506 110.139 141.178 110.55 140.947C110.96 140.71 111.433 140.591 111.966 140.591C112.615 140.591 113.148 140.764 113.566 141.11C113.991 141.456 114.258 141.931 114.366 142.537H113.469C113.382 142.184 113.202 141.902 112.928 141.693C112.654 141.484 112.323 141.38 111.934 141.38C111.407 141.38 110.978 141.567 110.647 141.942C110.323 142.317 110.16 142.804 110.16 143.402C110.16 144.007 110.323 144.501 110.647 144.883C110.978 145.258 111.407 145.445 111.934 145.445C112.337 145.445 112.676 145.341 112.95 145.132C113.224 144.923 113.4 144.634 113.48 144.267H114.366ZM115.081 143.413C115.081 142.85 115.189 142.357 115.405 141.931C115.628 141.506 115.938 141.178 116.335 140.947C116.731 140.71 117.185 140.591 117.697 140.591C118.202 140.591 118.649 140.695 119.038 140.904C119.427 141.113 119.733 141.416 119.957 141.812C120.18 142.209 120.299 142.674 120.314 143.207C120.314 143.286 120.306 143.413 120.292 143.586H116.01V143.661C116.025 144.202 116.191 144.634 116.508 144.959C116.825 145.283 117.239 145.445 117.751 145.445C118.148 145.445 118.483 145.348 118.757 145.153C119.038 144.952 119.225 144.674 119.319 144.321H120.216C120.108 144.883 119.838 145.344 119.405 145.705C118.973 146.058 118.443 146.235 117.816 146.235C117.268 146.235 116.789 146.119 116.378 145.889C115.967 145.651 115.646 145.319 115.416 144.894C115.192 144.461 115.081 143.968 115.081 143.413ZM119.395 142.85C119.351 142.382 119.175 142.018 118.865 141.758C118.562 141.499 118.176 141.369 117.708 141.369C117.29 141.369 116.922 141.506 116.605 141.78C116.288 142.054 116.108 142.411 116.064 142.85H119.395ZM121.996 144.353C122.011 144.685 122.155 144.955 122.429 145.164C122.71 145.373 123.07 145.478 123.51 145.478C123.899 145.478 124.213 145.402 124.451 145.251C124.696 145.092 124.818 144.887 124.818 144.634C124.818 144.418 124.76 144.252 124.645 144.137C124.53 144.022 124.378 143.942 124.191 143.899C124.011 143.856 123.751 143.813 123.413 143.769C122.937 143.712 122.548 143.636 122.245 143.542C121.942 143.449 121.697 143.301 121.51 143.099C121.322 142.89 121.229 142.605 121.229 142.245C121.229 141.921 121.319 141.632 121.499 141.38C121.686 141.128 121.939 140.933 122.256 140.796C122.573 140.652 122.93 140.58 123.326 140.58C123.975 140.58 124.501 140.731 124.905 141.034C125.316 141.337 125.543 141.769 125.586 142.331H124.699C124.663 142.043 124.523 141.805 124.278 141.618C124.032 141.43 123.726 141.337 123.359 141.337C122.984 141.337 122.681 141.416 122.45 141.575C122.22 141.726 122.104 141.928 122.104 142.18C122.104 142.367 122.158 142.512 122.266 142.612C122.375 142.713 122.512 142.782 122.677 142.818C122.85 142.854 123.11 142.894 123.456 142.937C123.939 142.995 124.335 143.074 124.645 143.175C124.962 143.276 125.215 143.438 125.402 143.661C125.597 143.885 125.694 144.187 125.694 144.569C125.694 144.901 125.597 145.193 125.402 145.445C125.207 145.698 124.944 145.892 124.613 146.029C124.281 146.166 123.914 146.235 123.51 146.235C122.789 146.235 122.209 146.069 121.769 145.737C121.337 145.406 121.117 144.944 121.11 144.353H121.996Z" fill="#6D6D6D" style="fill:#6D6D6D;fill:color(display-p3 0.4275 0.4275 0.4275);fill-opacity:1;"/>
<path d="M149.071 136.213C149.584 135.173 151.068 135.173 151.582 136.213L152.352 137.774C152.556 138.187 152.95 138.473 153.406 138.539L155.127 138.79C156.276 138.956 156.734 140.368 155.903 141.178L154.657 142.392C154.327 142.714 154.177 143.177 154.255 143.631L154.549 145.346C154.745 146.49 153.545 147.362 152.518 146.822L150.978 146.012C150.57 145.798 150.083 145.798 149.675 146.012L148.135 146.822C147.108 147.362 145.907 146.49 146.103 145.346L146.398 143.631C146.475 143.177 146.325 142.714 145.995 142.392L144.749 141.178C143.918 140.368 144.377 138.956 145.525 138.79L147.247 138.539C147.703 138.473 148.097 138.187 148.301 137.774L149.071 136.213Z" fill="#F22F46" style="fill:#F22F46;fill:color(display-p3 0.9490 0.1843 0.2745);fill-opacity:1;"/>
<path d="M164.849 143.51L168.644 138.601H169.726V143.488H170.947V144.321H169.726V146.17H168.817V144.321H164.849V143.51ZM165.823 143.488H168.817V139.618L165.823 143.488ZM171.528 145.629C171.528 145.449 171.586 145.305 171.701 145.197C171.817 145.081 171.964 145.024 172.145 145.024C172.325 145.024 172.473 145.081 172.588 145.197C172.703 145.305 172.761 145.449 172.761 145.629C172.761 145.809 172.703 145.957 172.588 146.072C172.473 146.18 172.325 146.235 172.145 146.235C171.964 146.235 171.817 146.18 171.701 146.072C171.586 145.957 171.528 145.809 171.528 145.629ZM173.326 138.601H178.667V139.239L174.947 146.17H173.963L177.672 139.434H173.326V138.601ZM185.413 138.601C185.91 138.601 186.35 138.699 186.732 138.893C187.114 139.081 187.409 139.351 187.618 139.704C187.827 140.05 187.932 140.457 187.932 140.926C187.932 141.452 187.784 141.91 187.489 142.299C187.2 142.681 186.811 142.94 186.321 143.077L188.018 146.17H186.959L185.391 143.261H183.456V146.17H182.515V138.601H185.413ZM183.456 142.396H185.337C185.834 142.396 186.231 142.263 186.526 141.996C186.822 141.73 186.97 141.373 186.97 140.926C186.97 140.486 186.822 140.133 186.526 139.866C186.231 139.6 185.838 139.466 185.348 139.466H183.456V142.396ZM193.92 145.359V146.17H193.434C193.08 146.17 192.828 146.098 192.677 145.953C192.525 145.809 192.446 145.597 192.439 145.316C192.014 145.928 191.397 146.235 190.59 146.235C189.977 146.235 189.484 146.09 189.109 145.802C188.741 145.514 188.557 145.121 188.557 144.624C188.557 144.069 188.745 143.643 189.12 143.348C189.502 143.052 190.053 142.904 190.774 142.904H192.396V142.526C192.396 142.166 192.273 141.884 192.028 141.683C191.79 141.481 191.455 141.38 191.022 141.38C190.64 141.38 190.323 141.466 190.071 141.639C189.826 141.805 189.675 142.029 189.617 142.31H188.73C188.795 141.769 189.033 141.347 189.444 141.045C189.862 140.742 190.403 140.591 191.066 140.591C191.772 140.591 192.316 140.764 192.698 141.11C193.088 141.448 193.282 141.939 193.282 142.58V144.959C193.282 145.225 193.405 145.359 193.65 145.359H193.92ZM192.396 143.65H190.687C189.866 143.65 189.455 143.957 189.455 144.569C189.455 144.843 189.563 145.063 189.779 145.229C189.995 145.395 190.287 145.478 190.655 145.478C191.195 145.478 191.621 145.337 191.931 145.056C192.241 144.768 192.396 144.389 192.396 143.921V143.65ZM194.969 141.466H193.975V140.655H194.969V139.109H195.856V140.655H197.251V141.466H195.856V144.721C195.856 144.952 195.899 145.117 195.986 145.218C196.079 145.312 196.238 145.359 196.461 145.359H197.424V146.17H196.407C195.888 146.17 195.517 146.054 195.294 145.824C195.077 145.593 194.969 145.229 194.969 144.732V141.466ZM198.498 138.526C198.663 138.526 198.8 138.58 198.909 138.688C199.017 138.796 199.071 138.933 199.071 139.099C199.071 139.264 199.017 139.401 198.909 139.509C198.8 139.618 198.663 139.672 198.498 139.672C198.332 139.672 198.195 139.618 198.087 139.509C197.979 139.401 197.925 139.264 197.925 139.099C197.925 138.933 197.979 138.796 198.087 138.688C198.195 138.58 198.332 138.526 198.498 138.526ZM198.054 140.655H198.941V146.17H198.054V140.655ZM202.859 140.591C203.529 140.591 204.066 140.792 204.47 141.196C204.88 141.6 205.086 142.234 205.086 143.099V146.17H204.199V143.153C204.199 142.584 204.07 142.151 203.81 141.856C203.558 141.553 203.19 141.402 202.707 141.402C202.188 141.402 201.781 141.582 201.485 141.942C201.19 142.303 201.042 142.793 201.042 143.413V146.17H200.156V140.655H200.923L201.042 141.402C201.46 140.861 202.066 140.591 202.859 140.591ZM211.449 140.655V145.899C211.449 147.564 210.538 148.397 208.714 148.397C208 148.397 207.416 148.235 206.962 147.91C206.515 147.586 206.256 147.125 206.184 146.526H207.092C207.164 146.872 207.348 147.139 207.643 147.327C207.939 147.514 208.317 147.608 208.779 147.608C209.968 147.608 210.563 147.027 210.563 145.867V145.218C210.166 145.896 209.536 146.235 208.671 146.235C208.159 146.235 207.701 146.123 207.297 145.899C206.901 145.676 206.587 145.352 206.357 144.926C206.133 144.501 206.022 143.996 206.022 143.413C206.022 142.858 206.133 142.367 206.357 141.942C206.587 141.517 206.905 141.185 207.308 140.947C207.712 140.71 208.166 140.591 208.671 140.591C209.118 140.591 209.5 140.681 209.817 140.861C210.134 141.034 210.383 141.283 210.563 141.607L210.682 140.655H211.449ZM208.757 145.445C209.11 145.445 209.424 145.362 209.698 145.197C209.979 145.024 210.195 144.786 210.346 144.483C210.498 144.173 210.574 143.823 210.574 143.434C210.574 143.038 210.498 142.685 210.346 142.375C210.195 142.057 209.979 141.812 209.698 141.639C209.424 141.466 209.11 141.38 208.757 141.38C208.209 141.38 207.766 141.571 207.427 141.953C207.096 142.328 206.93 142.814 206.93 143.413C206.93 144.011 207.096 144.501 207.427 144.883C207.766 145.258 208.209 145.445 208.757 145.445Z" fill="#6D6D6D" style="fill:#6D6D6D;fill:color(display-p3 0.4275 0.4275 0.4275);fill-opacity:1;"/>
<rect x="18.1074" y="166.17" width="100.436" height="30.5152" rx="15.2576" fill="#F22F46" style="fill:#F22F46;fill:color(display-p3 0.9490 0.1843 0.2745);fill-opacity:1;"/>
<path d="M34.651 178.359H35.6349L37.4081 184.716L39.2678 178.359H40.2192L42.014 184.716L43.798 178.359H44.7711L42.5546 185.927H41.4302L39.7002 179.927L37.9811 185.927H36.8567L34.651 178.359ZM48.2389 180.413V181.278H47.7956C47.2694 181.278 46.8909 181.455 46.6603 181.808C46.4368 182.161 46.3251 182.597 46.3251 183.116V185.927H45.4385V180.413H46.2062L46.3251 181.246C46.4837 180.993 46.6891 180.791 46.9414 180.64C47.1937 180.489 47.5433 180.413 47.9902 180.413H48.2389ZM49.4929 178.283C49.6587 178.283 49.7956 178.337 49.9038 178.445C50.0119 178.553 50.0659 178.69 50.0659 178.856C50.0659 179.022 50.0119 179.159 49.9038 179.267C49.7956 179.375 49.6587 179.429 49.4929 179.429C49.3271 179.429 49.1902 179.375 49.082 179.267C48.9739 179.159 48.9199 179.022 48.9199 178.856C48.9199 178.69 48.9739 178.553 49.082 178.445C49.1902 178.337 49.3271 178.283 49.4929 178.283ZM49.0496 180.413H49.9362V185.927H49.0496V180.413ZM51.5184 181.224H50.5237V180.413H51.5184V178.867H52.405V180.413H53.7998V181.224H52.405V184.478C52.405 184.709 52.4482 184.875 52.5347 184.976C52.6284 185.069 52.787 185.116 53.0105 185.116H53.9727V185.927H52.9564C52.4374 185.927 52.0662 185.812 51.8428 185.581C51.6265 185.351 51.5184 184.987 51.5184 184.489V181.224ZM54.2716 183.17C54.2716 182.608 54.3797 182.114 54.596 181.689C54.8194 181.264 55.1294 180.936 55.5258 180.705C55.9222 180.467 56.3764 180.348 56.8881 180.348C57.3927 180.348 57.8396 180.453 58.2288 180.662C58.6181 180.871 58.9244 181.174 59.1479 181.57C59.3713 181.966 59.4902 182.431 59.5047 182.965C59.5047 183.044 59.4975 183.17 59.483 183.343H55.2014V183.419C55.2159 183.959 55.3816 184.392 55.6988 184.716C56.016 185.041 56.4304 185.203 56.9422 185.203C57.3386 185.203 57.6738 185.106 57.9477 184.911C58.2288 184.709 58.4162 184.432 58.51 184.078H59.4074C59.2992 184.641 59.0289 185.102 58.5964 185.462C58.164 185.816 57.6342 185.992 57.0071 185.992C56.4593 185.992 55.9799 185.877 55.5691 185.646C55.1582 185.408 54.8374 185.077 54.6068 184.651C54.3833 184.219 54.2716 183.725 54.2716 183.17ZM58.5856 182.608C58.5424 182.139 58.3658 181.775 58.0558 181.516C57.7531 181.256 57.3675 181.127 56.8989 181.127C56.4809 181.127 56.1133 181.264 55.7961 181.538C55.479 181.811 55.2988 182.168 55.2555 182.608H58.5856ZM68.5035 185.116V185.927H68.0169C67.6637 185.927 67.4115 185.855 67.2601 185.711C67.1087 185.567 67.0294 185.354 67.0222 185.073C66.5969 185.686 65.9806 185.992 65.1733 185.992C64.5607 185.992 64.0669 185.848 63.6921 185.56C63.3245 185.271 63.1407 184.878 63.1407 184.381C63.1407 183.826 63.3281 183.401 63.7029 183.105C64.0849 182.81 64.6363 182.662 65.3571 182.662H66.979V182.284C66.979 181.923 66.8564 181.642 66.6114 181.44C66.3735 181.238 66.0383 181.137 65.6058 181.137C65.2238 181.137 64.9066 181.224 64.6544 181.397C64.4093 181.563 64.2579 181.786 64.2003 182.067H63.3137C63.3785 181.527 63.6164 181.105 64.0273 180.802C64.4453 180.5 64.9859 180.348 65.6491 180.348C66.3555 180.348 66.8997 180.521 67.2817 180.867C67.6709 181.206 67.8656 181.696 67.8656 182.338V184.716C67.8656 184.983 67.9881 185.116 68.2332 185.116H68.5035ZM66.979 183.408H65.2707C64.4489 183.408 64.0381 183.714 64.0381 184.327C64.0381 184.601 64.1462 184.821 64.3624 184.987C64.5787 185.152 64.8706 185.235 65.2382 185.235C65.7788 185.235 66.2041 185.095 66.514 184.814C66.824 184.525 66.979 184.147 66.979 183.678V183.408ZM74.8151 180.413V181.278H74.3718C73.8456 181.278 73.4672 181.455 73.2366 181.808C73.0131 182.161 72.9014 182.597 72.9014 183.116V185.927H72.0148V180.413H72.7825L72.9014 181.246C73.06 180.993 73.2654 180.791 73.5177 180.64C73.77 180.489 74.1196 180.413 74.5665 180.413H74.8151ZM75.1145 183.17C75.1145 182.608 75.2226 182.114 75.4389 181.689C75.6623 181.264 75.9723 180.936 76.3687 180.705C76.7651 180.467 77.2193 180.348 77.731 180.348C78.2356 180.348 78.6825 180.453 79.0717 180.662C79.461 180.871 79.7673 181.174 79.9908 181.57C80.2142 181.966 80.3331 182.431 80.3476 182.965C80.3476 183.044 80.3404 183.17 80.3259 183.343H76.0443V183.419C76.0588 183.959 76.2245 184.392 76.5417 184.716C76.8589 185.041 77.2733 185.203 77.7851 185.203C78.1815 185.203 78.5167 185.106 78.7906 184.911C79.0717 184.709 79.2591 184.432 79.3528 184.078H80.2503C80.1421 184.641 79.8718 185.102 79.4393 185.462C79.0069 185.816 78.4771 185.992 77.85 185.992C77.3021 185.992 76.8228 185.877 76.412 185.646C76.0011 185.408 75.6803 185.077 75.4497 184.651C75.2262 184.219 75.1145 183.725 75.1145 183.17ZM79.4285 182.608C79.3853 182.139 79.2087 181.775 78.8987 181.516C78.596 181.256 78.2104 181.127 77.7418 181.127C77.3238 181.127 76.9562 181.264 76.639 181.538C76.3219 181.811 76.1416 182.168 76.0984 182.608H79.4285ZM80.5967 180.413H81.5481L83.2132 184.922L84.8675 180.413H85.7973L83.7322 185.927H82.6618L80.5967 180.413ZM86.9024 178.283C87.0682 178.283 87.2051 178.337 87.3133 178.445C87.4214 178.553 87.4755 178.69 87.4755 178.856C87.4755 179.022 87.4214 179.159 87.3133 179.267C87.2051 179.375 87.0682 179.429 86.9024 179.429C86.7366 179.429 86.5997 179.375 86.4915 179.267C86.3834 179.159 86.3294 179.022 86.3294 178.856C86.3294 178.69 86.3834 178.553 86.4915 178.445C86.5997 178.337 86.7366 178.283 86.9024 178.283ZM86.4591 180.413H87.3457V185.927H86.4591V180.413ZM88.3657 183.17C88.3657 182.608 88.4738 182.114 88.69 181.689C88.9135 181.264 89.2234 180.936 89.6199 180.705C90.0163 180.467 90.4704 180.348 90.9822 180.348C91.4868 180.348 91.9337 180.453 92.3229 180.662C92.7122 180.871 93.0185 181.174 93.2419 181.57C93.4654 181.966 93.5843 182.431 93.5987 182.965C93.5987 183.044 93.5915 183.17 93.5771 183.343H89.2955V183.419C89.3099 183.959 89.4757 184.392 89.7929 184.716C90.11 185.041 90.5245 185.203 91.0363 185.203C91.4327 185.203 91.7679 185.106 92.0418 184.911C92.3229 184.709 92.5103 184.432 92.604 184.078H93.5014C93.3933 184.641 93.123 185.102 92.6905 185.462C92.258 185.816 91.7282 185.992 91.1011 185.992C90.5533 185.992 90.074 185.877 89.6631 185.646C89.2523 185.408 88.9315 185.077 88.7009 184.651C88.4774 184.219 88.3657 183.725 88.3657 183.17ZM92.6797 182.608C92.6365 182.139 92.4599 181.775 92.1499 181.516C91.8472 181.256 91.4615 181.127 90.993 181.127C90.575 181.127 90.2073 181.264 89.8902 181.538C89.573 181.811 89.3928 182.168 89.3496 182.608H92.6797ZM93.9331 180.413H94.8629L96.2361 184.9L97.6849 180.413H98.5066L99.8797 184.9L101.318 180.413H102.215L100.377 185.927H99.404L98.0741 181.829L96.6902 185.927L95.7171 185.938L93.9331 180.413Z" fill="white" style="fill:white;fill-opacity:1;"/>
<rect x="126.652" y="166.17" width="114.358" height="30.5152" rx="15.2576" fill="#F4F4F4" style="fill:#F4F4F4;fill:color(display-p3 0.9569 0.9569 0.9569);fill-opacity:1;"/>
<path d="M143.352 178.359H144.347L146.66 184.814L148.963 178.359H149.936L147.212 185.927H146.077L143.352 178.359ZM151.082 178.283C151.248 178.283 151.385 178.337 151.493 178.445C151.601 178.553 151.655 178.69 151.655 178.856C151.655 179.022 151.601 179.159 151.493 179.267C151.385 179.375 151.248 179.429 151.082 179.429C150.916 179.429 150.779 179.375 150.671 179.267C150.563 179.159 150.509 179.022 150.509 178.856C150.509 178.69 150.563 178.553 150.671 178.445C150.779 178.337 150.916 178.283 151.082 178.283ZM150.639 180.413H151.525V185.927H150.639V180.413ZM153.432 184.111C153.446 184.442 153.59 184.713 153.864 184.922C154.146 185.131 154.506 185.235 154.946 185.235C155.335 185.235 155.648 185.16 155.886 185.008C156.131 184.85 156.254 184.644 156.254 184.392C156.254 184.176 156.196 184.01 156.081 183.895C155.966 183.779 155.814 183.7 155.627 183.657C155.447 183.613 155.187 183.57 154.848 183.527C154.373 183.469 153.983 183.394 153.681 183.3C153.378 183.206 153.133 183.058 152.945 182.857C152.758 182.648 152.664 182.363 152.664 182.002C152.664 181.678 152.754 181.39 152.935 181.137C153.122 180.885 153.374 180.691 153.691 180.554C154.009 180.409 154.365 180.337 154.762 180.337C155.411 180.337 155.937 180.489 156.34 180.791C156.751 181.094 156.978 181.527 157.022 182.089H156.135C156.099 181.801 155.958 181.563 155.713 181.375C155.468 181.188 155.162 181.094 154.794 181.094C154.419 181.094 154.117 181.174 153.886 181.332C153.655 181.483 153.54 181.685 153.54 181.938C153.54 182.125 153.594 182.269 153.702 182.37C153.81 182.471 153.947 182.539 154.113 182.575C154.286 182.612 154.546 182.651 154.892 182.694C155.374 182.752 155.771 182.831 156.081 182.932C156.398 183.033 156.65 183.195 156.838 183.419C157.032 183.642 157.13 183.945 157.13 184.327C157.13 184.659 157.032 184.951 156.838 185.203C156.643 185.455 156.38 185.65 156.048 185.787C155.717 185.924 155.349 185.992 154.946 185.992C154.225 185.992 153.645 185.826 153.205 185.495C152.772 185.163 152.553 184.702 152.545 184.111H153.432ZM158.579 178.283C158.745 178.283 158.881 178.337 158.99 178.445C159.098 178.553 159.152 178.69 159.152 178.856C159.152 179.022 159.098 179.159 158.99 179.267C158.881 179.375 158.745 179.429 158.579 179.429C158.413 179.429 158.276 179.375 158.168 179.267C158.06 179.159 158.006 179.022 158.006 178.856C158.006 178.69 158.06 178.553 158.168 178.445C158.276 178.337 158.413 178.283 158.579 178.283ZM158.135 180.413H159.022V185.927H158.135V180.413ZM160.604 181.224H159.61V180.413H160.604V178.867H161.491V180.413H162.886V181.224H161.491V184.478C161.491 184.709 161.534 184.875 161.621 184.976C161.714 185.069 161.873 185.116 162.096 185.116H163.059V185.927H162.042C161.523 185.927 161.152 185.812 160.929 185.581C160.712 185.351 160.604 184.987 160.604 184.489V181.224ZM166.216 178.359H167.2L168.973 184.716L170.833 178.359H171.785L173.579 184.716L175.363 178.359H176.336L174.12 185.927H172.996L171.266 179.927L169.546 185.927H168.422L166.216 178.359ZM176.566 183.17C176.566 182.608 176.674 182.114 176.891 181.689C177.114 181.264 177.424 180.936 177.821 180.705C178.217 180.467 178.671 180.348 179.183 180.348C179.687 180.348 180.134 180.453 180.524 180.662C180.913 180.871 181.219 181.174 181.443 181.57C181.666 181.966 181.785 182.431 181.799 182.965C181.799 183.044 181.792 183.17 181.778 183.343H177.496V183.419C177.511 183.959 177.676 184.392 177.994 184.716C178.311 185.041 178.725 185.203 179.237 185.203C179.633 185.203 179.969 185.106 180.242 184.911C180.524 184.709 180.711 184.432 180.805 184.078H181.702C181.594 184.641 181.324 185.102 180.891 185.462C180.459 185.816 179.929 185.992 179.302 185.992C178.754 185.992 178.275 185.877 177.864 185.646C177.453 185.408 177.132 185.077 176.902 184.651C176.678 184.219 176.566 183.725 176.566 183.17ZM180.88 182.608C180.837 182.139 180.661 181.775 180.351 181.516C180.048 181.256 179.662 181.127 179.194 181.127C178.776 181.127 178.408 181.264 178.091 181.538C177.774 181.811 177.594 182.168 177.55 182.608H180.88ZM185.59 180.348C186.102 180.348 186.556 180.46 186.952 180.683C187.356 180.907 187.669 181.231 187.893 181.656C188.123 182.082 188.239 182.586 188.239 183.17C188.239 183.725 188.123 184.215 187.893 184.641C187.669 185.066 187.356 185.397 186.952 185.635C186.549 185.873 186.094 185.992 185.59 185.992C185.143 185.992 184.761 185.913 184.444 185.754C184.127 185.588 183.878 185.365 183.698 185.084L183.579 185.927H182.811V178.359H183.698V181.3C184.159 180.665 184.79 180.348 185.59 180.348ZM185.503 185.203C186.051 185.203 186.491 185.015 186.822 184.641C187.161 184.259 187.331 183.768 187.331 183.17C187.331 182.572 187.161 182.085 186.822 181.711C186.491 181.328 186.051 181.137 185.503 181.137C185.15 181.137 184.833 181.224 184.552 181.397C184.278 181.563 184.065 181.801 183.914 182.111C183.763 182.413 183.687 182.759 183.687 183.149C183.687 183.545 183.763 183.902 183.914 184.219C184.065 184.529 184.278 184.77 184.552 184.943C184.833 185.116 185.15 185.203 185.503 185.203ZM189.923 184.111C189.937 184.442 190.081 184.713 190.355 184.922C190.636 185.131 190.997 185.235 191.437 185.235C191.826 185.235 192.139 185.16 192.377 185.008C192.622 184.85 192.745 184.644 192.745 184.392C192.745 184.176 192.687 184.01 192.572 183.895C192.456 183.779 192.305 183.7 192.118 183.657C191.937 183.613 191.678 183.57 191.339 183.527C190.863 183.469 190.474 183.394 190.171 183.3C189.869 183.206 189.624 183.058 189.436 182.857C189.249 182.648 189.155 182.363 189.155 182.002C189.155 181.678 189.245 181.39 189.425 181.137C189.613 180.885 189.865 180.691 190.182 180.554C190.499 180.409 190.856 180.337 191.253 180.337C191.901 180.337 192.428 180.489 192.831 180.791C193.242 181.094 193.469 181.527 193.512 182.089H192.626C192.59 181.801 192.449 181.563 192.204 181.375C191.959 181.188 191.653 181.094 191.285 181.094C190.91 181.094 190.608 181.174 190.377 181.332C190.146 181.483 190.031 181.685 190.031 181.938C190.031 182.125 190.085 182.269 190.193 182.37C190.301 182.471 190.438 182.539 190.604 182.575C190.777 182.612 191.036 182.651 191.382 182.694C191.865 182.752 192.262 182.831 192.572 182.932C192.889 183.033 193.141 183.195 193.329 183.419C193.523 183.642 193.621 183.945 193.621 184.327C193.621 184.659 193.523 184.951 193.329 185.203C193.134 185.455 192.871 185.65 192.539 185.787C192.208 185.924 191.84 185.992 191.437 185.992C190.716 185.992 190.135 185.826 189.696 185.495C189.263 185.163 189.043 184.702 189.036 184.111H189.923ZM195.07 178.283C195.235 178.283 195.372 178.337 195.48 178.445C195.589 178.553 195.643 178.69 195.643 178.856C195.643 179.022 195.589 179.159 195.48 179.267C195.372 179.375 195.235 179.429 195.07 179.429C194.904 179.429 194.767 179.375 194.659 179.267C194.551 179.159 194.497 179.022 194.497 178.856C194.497 178.69 194.551 178.553 194.659 178.445C194.767 178.337 194.904 178.283 195.07 178.283ZM194.626 180.413H195.513V185.927H194.626V180.413ZM197.095 181.224H196.1V180.413H197.095V178.867H197.982V180.413H199.376V181.224H197.982V184.478C197.982 184.709 198.025 184.875 198.111 184.976C198.205 185.069 198.364 185.116 198.587 185.116H199.549V185.927H198.533C198.014 185.927 197.643 185.812 197.419 185.581C197.203 185.351 197.095 184.987 197.095 184.489V181.224ZM199.848 183.17C199.848 182.608 199.956 182.114 200.173 181.689C200.396 181.264 200.706 180.936 201.103 180.705C201.499 180.467 201.953 180.348 202.465 180.348C202.969 180.348 203.416 180.453 203.806 180.662C204.195 180.871 204.501 181.174 204.725 181.57C204.948 181.966 205.067 182.431 205.081 182.965C205.081 183.044 205.074 183.17 205.06 183.343H200.778V183.419C200.793 183.959 200.958 184.392 201.276 184.716C201.593 185.041 202.007 185.203 202.519 185.203C202.915 185.203 203.251 185.106 203.524 184.911C203.806 184.709 203.993 184.432 204.087 184.078H204.984C204.876 184.641 204.606 185.102 204.173 185.462C203.741 185.816 203.211 185.992 202.584 185.992C202.036 185.992 201.557 185.877 201.146 185.646C200.735 185.408 200.414 185.077 200.184 184.651C199.96 184.219 199.848 183.725 199.848 183.17ZM204.162 182.608C204.119 182.139 203.943 181.775 203.633 181.516C203.33 181.256 202.944 181.127 202.476 181.127C202.058 181.127 201.69 181.264 201.373 181.538C201.056 181.811 200.875 182.168 200.832 182.608H204.162Z" fill="#292929" style="fill:#292929;fill:color(display-p3 0.1608 0.1608 0.1608);fill-opacity:1;"/>
<path d="M218.88 178.049H214.234C213.898 178.049 213.576 178.182 213.338 178.42C213.1 178.657 212.967 178.98 212.967 179.316V185.228C212.967 185.564 213.1 185.887 213.338 186.124C213.576 186.362 213.898 186.495 214.234 186.495H220.147C220.483 186.495 220.805 186.362 221.043 186.124C221.28 185.887 221.414 185.564 221.414 185.228V180.583M215.501 183.961L223.103 176.359M223.103 176.359H220.147M223.103 176.359V179.316" stroke="#292929" style="stroke:#292929;stroke:color(display-p3 0.1608 0.1608 0.1608);stroke-opacity:1;" stroke-width="0.810909" stroke-linecap="round" stroke-linejoin="round"/>
</svg>
