<svg width="408" height="226" viewBox="0 0 408 226" fill="none" xmlns="http://www.w3.org/2000/svg">
<path d="M313.009 81.9715H356C368.15 81.9715 378 91.8212 378 103.972V202.972C378 215.122 368.15 224.972 356 224.972H39" stroke="#F22F46" style="stroke:#F22F46;stroke:color(display-p3 0.9490 0.1843 0.2745);stroke-opacity:1;" stroke-width="2"/>
<path d="M30.7714 8.3396C30.8234 9.09703 31.1263 9.70556 31.6802 10.1652C32.234 10.6142 32.9377 10.8394 33.791 10.8409C34.559 10.8423 35.1779 10.678 35.6479 10.3482C36.1285 10.0077 36.3693 9.5388 36.3703 8.94147C36.3711 8.50414 36.2384 8.15724 35.9722 7.90077C35.7166 7.64432 35.381 7.45706 34.9652 7.33899C34.5601 7.21028 34.0056 7.08663 33.3018 6.96806C32.1822 6.77408 31.292 6.45785 30.6315 6.01935C29.9709 5.58085 29.6415 4.87093 29.6432 3.8896C29.6443 3.26027 29.8053 2.70589 30.1262 2.22645C30.447 1.73635 30.8957 1.35847 31.4722 1.09282C32.0593 0.827192 32.7262 0.695034 33.4729 0.696351C34.2622 0.697742 34.9606 0.842974 35.5681 1.13205C36.1756 1.42112 36.6549 1.8273 37.006 2.35058C37.3571 2.8632 37.5533 3.45555 37.5948 4.12762L36.2188 4.1252C36.1346 3.47438 35.8422 2.9512 35.3416 2.55565C34.841 2.1601 34.2173 1.96167 33.4706 1.96035C32.724 1.95903 32.1317 2.12332 31.6938 2.45322C31.2559 2.77244 31.0364 3.22539 31.0354 3.81206C31.0346 4.23872 31.162 4.57495 31.4176 4.82073C31.6732 5.05585 32.0035 5.23777 32.4086 5.36648C32.8138 5.48453 33.3682 5.60284 34.072 5.72142C35.1917 5.91539 36.0871 6.23697 36.7583 6.68615C37.4295 7.12467 37.7643 7.8346 37.7626 8.81593C37.7614 9.45593 37.5898 10.0263 37.2475 10.527C36.916 11.0278 36.446 11.4163 35.8375 11.6925C35.2397 11.9688 34.5514 12.1063 33.7728 12.1049C32.8981 12.1034 32.1357 11.9473 31.4856 11.6369C30.8355 11.3157 30.3296 10.8722 29.9679 10.3062C29.6169 9.72957 29.4261 9.07323 29.3954 8.33717L30.7714 8.3396ZM43.0262 3.7692C44.0182 3.77095 44.8177 4.07103 45.4246 4.66943C46.0316 5.26783 46.3339 6.20704 46.3317 7.48703L46.3237 12.031L45.0117 12.0287L45.0195 7.56472C45.021 6.72206 44.8301 6.08172 44.4469 5.64371C44.0637 5.19503 43.5148 4.97006 42.8001 4.9688C42.0428 4.96747 41.4396 5.23307 40.9907 5.76561C40.5524 6.29818 40.3325 7.02312 40.3309 7.94045L40.3237 12.0204L39.0117 12.0181L39.0314 0.818151L40.3434 0.820465L40.3357 5.20446C40.6031 4.77826 40.9557 4.43222 41.3935 4.16632C41.842 3.90045 42.3862 3.76807 43.0262 3.7692ZM55.3101 10.8469L55.308 12.0469L54.588 12.0456C54.0654 12.0447 53.6922 11.9374 53.4686 11.7236C53.245 11.5099 53.1282 11.195 53.1182 10.779C52.4873 11.6846 51.5745 12.1363 50.3799 12.1342C49.4732 12.1326 48.7429 11.918 48.189 11.4903C47.6457 11.0627 47.3748 10.4809 47.3761 9.74488C47.3775 8.92355 47.656 8.2947 48.2114 7.85835C48.7775 7.42201 49.5939 7.20479 50.6605 7.20667L53.0605 7.2109L53.0615 6.6509C53.0625 6.11757 52.8819 5.70125 52.5197 5.40194C52.1683 5.10265 51.6725 4.95245 51.0325 4.95132C50.4672 4.95032 49.9976 5.07749 49.6238 5.33284C49.2607 5.57753 49.0362 5.9078 48.9501 6.32365L47.6381 6.32134C47.7355 5.52151 48.0886 4.89813 48.6974 4.4512C49.3169 4.00429 50.1172 3.7817 51.0986 3.78343C52.1439 3.78528 52.9488 4.0427 53.5132 4.55569C54.0883 5.05804 54.3751 5.78388 54.3734 6.73321L54.3672 10.2532C54.3665 10.6479 54.5475 10.8455 54.9101 10.8462L55.3101 10.8469ZM53.0586 8.3149L50.5306 8.31044C49.3146 8.30829 48.7058 8.76056 48.7042 9.66722C48.7035 10.0726 48.8629 10.3982 49.1825 10.6441C49.502 10.89 49.9338 11.0134 50.4778 11.0144C51.2778 11.0158 51.9075 10.8089 52.3669 10.3937C52.8263 9.96782 53.0567 9.40823 53.0579 8.7149L53.0586 8.3149ZM60.155 3.8954L60.1528 5.1754L59.4968 5.17424C58.7181 5.17287 58.1576 5.43322 57.8154 5.95528C57.4838 6.47736 57.3173 7.1224 57.316 7.8904L57.3086 12.0504L55.9966 12.0481L56.011 3.88809L57.147 3.8901L57.3209 5.12241C57.5562 4.74949 57.8607 4.45136 58.2344 4.22802C58.6082 4.00467 59.1257 3.89359 59.787 3.89475L60.155 3.8954ZM64.3115 12.1587C63.5221 12.1574 62.8184 11.9801 62.2004 11.627C61.593 11.2739 61.1192 10.7824 60.779 10.1525C60.4388 9.52258 60.2694 8.79694 60.2708 7.97561C60.2723 7.15428 60.4442 6.42925 60.7867 5.80052C61.1291 5.17179 61.6046 4.68196 62.2133 4.33103C62.8325 3.98012 63.5369 3.80536 64.3262 3.80676C65.1155 3.80815 65.8139 3.98538 66.4213 4.33845C67.0393 4.69154 67.5184 5.18305 67.8587 5.81299C68.1989 6.44292 68.3683 7.16855 68.3668 7.98989C68.3654 8.81122 68.1934 9.53625 67.851 10.165C67.5085 10.7937 67.0277 11.2835 66.4084 11.6344C65.7998 11.9854 65.1008 12.1601 64.3115 12.1587ZM64.3135 10.9907C64.8469 10.9917 65.3164 10.8645 65.7222 10.6092C66.1386 10.354 66.4593 9.99719 66.6841 9.53892C66.9089 9.08065 67.0218 8.56352 67.0228 7.98752C67.0238 7.41152 66.9127 6.89399 66.6896 6.43493C66.4664 5.97587 66.147 5.61797 65.7314 5.36124C65.3266 5.10452 64.8575 4.97569 64.3241 4.97475C63.7908 4.97381 63.3159 5.10098 62.8994 5.35624C62.4937 5.61153 62.1784 5.96831 61.9536 6.42658C61.7288 6.88485 61.6158 7.40198 61.6148 7.97798C61.6138 8.55398 61.7249 9.07151 61.9481 9.53057C62.1713 9.98963 62.4853 10.3475 62.8902 10.6042C63.3057 10.861 63.7802 10.9898 64.3135 10.9907ZM73.5587 3.82303C74.5507 3.82478 75.3448 4.12485 75.9411 4.72324C76.548 5.32164 76.8504 6.26084 76.8481 7.54084L76.8401 12.0848L75.5281 12.0825L75.536 7.61853C75.5375 6.77586 75.3466 6.13552 74.9634 5.69751C74.5908 5.24886 74.0472 5.0239 73.3326 5.02264C72.5646 5.02128 71.9614 5.28689 71.5231 5.81945C71.0849 6.35201 70.8649 7.07696 70.8633 7.99429L70.8561 12.0743L69.5441 12.072L69.5585 3.91198L70.6945 3.91398L70.8686 5.01829C71.4886 4.21939 72.3853 3.82097 73.5587 3.82303Z" fill="#292929" style="fill:#292929;fill:color(display-p3 0.1608 0.1608 0.1608);fill-opacity:1;"/>
<path d="M5.86523 36.3118C5.86523 29.5599 11.3387 24.0864 18.0906 24.0864V41.781H5.86523V36.3118Z" fill="#F22F46" style="fill:#F22F46;fill:color(display-p3 0.9490 0.1843 0.2745);fill-opacity:1;"/>
<rect x="5.86523" y="41.7812" width="12.2254" height="86.0862" fill="#F22F46" style="fill:#F22F46;fill:color(display-p3 0.9490 0.1843 0.2745);fill-opacity:1;"/>
<path d="M18.0898 127.868V145.562C15.1291 145.562 12.4142 144.509 10.2988 142.758C8.18853 144.164 4.80503 145.501 0.716797 144.758C1.84282 144.276 6.18625 141.379 6.02539 135.588C6.04428 135.614 6.06549 135.639 6.08594 135.663C5.94083 134.91 5.86428 134.133 5.86426 133.337V127.868H18.0898Z" fill="#F22F46" style="fill:#F22F46;fill:color(display-p3 0.9490 0.1843 0.2745);fill-opacity:1;"/>
<rect width="289.936" height="121.476" transform="translate(18.0898 24.0864)" fill="#F22F46" style="fill:#F22F46;fill:color(display-p3 0.9490 0.1843 0.2745);fill-opacity:1;"/>
<path d="M28.6464 39.8871L37.3024 39.9023L37.3002 41.1823L33.6682 41.1759L33.6507 51.0959L32.2587 51.0935L32.2762 41.1735L28.6442 41.1671L28.6464 39.8871ZM42.2704 42.8551C43.2624 42.8569 44.0618 43.1569 44.6688 43.7553C45.2757 44.3537 45.5781 45.2929 45.5758 46.5729L45.5678 51.1169L44.2558 51.1146L44.2637 46.6506C44.2652 45.808 44.0743 45.1676 43.6911 44.7296C43.3078 44.2809 42.7589 44.056 42.0442 44.0547C41.2869 44.0534 40.6838 44.319 40.2348 44.8515C39.7966 45.3841 39.5766 46.109 39.575 47.0264L39.5678 51.1064L38.2558 51.104L38.2756 39.9041L39.5876 39.9064L39.5798 44.2904C39.8472 43.8642 40.1999 43.5181 40.6377 43.2522C41.0861 42.9864 41.6304 42.854 42.2704 42.8551ZM46.6394 47.0388C46.6408 46.2068 46.8021 45.4764 47.1232 44.8477C47.455 44.2189 47.9145 43.7344 48.5018 43.3941C49.0891 43.0431 49.7614 42.8683 50.5187 42.8697C51.2654 42.871 51.9264 43.0268 52.5019 43.3372C53.0774 43.6475 53.5299 44.0963 53.8595 44.6835C54.1892 45.2708 54.3639 45.9591 54.3839 46.7485C54.3837 46.8658 54.3727 47.0525 54.3509 47.3084L48.0149 47.2972L48.0147 47.4092C48.0346 48.2093 48.2788 48.8497 48.7473 49.3305C49.2158 49.8114 49.8287 50.0524 50.5861 50.0538C51.1727 50.0548 51.669 49.9117 52.0748 49.6244C52.4913 49.3265 52.7694 48.9163 52.909 48.3939L54.237 48.3962C54.0755 49.2279 53.6743 49.9099 53.0334 50.4421C52.3925 50.9636 51.608 51.2236 50.68 51.222C49.8693 51.2205 49.1603 51.0486 48.5529 50.7062C47.9455 50.3531 47.4717 49.8616 47.1315 49.2317C46.802 48.5911 46.6379 47.8602 46.6394 47.0388ZM53.0248 46.2181C52.962 45.5246 52.7017 44.9855 52.2437 44.6007C51.7964 44.2159 51.226 44.0229 50.5327 44.0217C49.914 44.0206 49.3697 44.2223 48.8996 44.6268C48.4296 45.0313 48.162 45.5588 48.0968 46.2094L53.0248 46.2181ZM56.2292 39.8237C56.4746 39.8242 56.6771 39.9045 56.8368 40.0648C56.9965 40.2251 57.0762 40.4279 57.0757 40.6732C57.0753 40.9185 56.9949 41.1211 56.8347 41.2808C56.6744 41.4405 56.4716 41.5201 56.2262 41.5197C55.9809 41.5193 55.7784 41.4389 55.6187 41.2786C55.4589 41.1184 55.3793 40.9156 55.3797 40.6702C55.3802 40.4249 55.4605 40.2224 55.6208 40.0626C55.7811 39.9029 55.9839 39.8233 56.2292 39.8237ZM55.5677 42.9746L56.8797 42.9769L56.8653 51.1369L55.5533 51.1345L55.5677 42.9746ZM62.501 42.9868L62.4988 44.2668L61.8428 44.2656C61.0641 44.2643 60.5037 44.5246 60.1614 45.0467C59.8298 45.5687 59.6633 46.2138 59.662 46.9818L59.6546 51.1418L58.3427 51.1395L58.357 42.9795L59.493 42.9815L59.6669 44.2138C59.9022 43.8409 60.2067 43.5427 60.5804 43.3194C60.9542 43.0961 61.4717 42.985 62.133 42.9861L62.501 42.9868ZM74.9923 43.0088L74.9786 50.7688C74.9742 53.2328 73.6227 54.4624 70.9241 54.4577C69.8681 54.4558 69.0045 54.2143 68.3333 53.7331C67.6729 53.2519 67.2901 52.5686 67.185 51.6831L68.529 51.6854C68.6347 52.1976 68.906 52.5928 69.3429 52.8709C69.7797 53.149 70.3395 53.2886 71.0221 53.2898C72.7821 53.2929 73.6636 52.4358 73.6667 50.7185L73.6684 49.7585C73.0799 50.7601 72.1457 51.2598 70.8657 51.2575C70.1084 51.2562 69.4313 51.0897 68.8346 50.758C68.2485 50.4263 67.7854 49.9454 67.4451 49.3155C67.1156 48.6856 66.9516 47.9386 66.9531 47.0746C66.9545 46.2533 67.1211 45.5283 67.4529 44.8995C67.7954 44.2708 68.2656 43.7809 68.8635 43.43C69.4615 43.0791 70.1338 42.9042 70.8804 42.9056C71.5418 42.9067 72.1069 43.0411 72.5757 43.3085C73.0446 43.5654 73.412 43.934 73.6778 44.4145L73.8563 43.0068L74.9923 43.0088ZM70.9958 50.0898C71.5184 50.0907 71.9827 49.9688 72.3884 49.7242C72.8049 49.469 73.1255 49.1175 73.3503 48.6699C73.5751 48.2116 73.688 47.6945 73.689 47.1185C73.6901 46.5318 73.579 46.009 73.3558 45.5499C73.1326 45.0802 72.8133 44.717 72.3977 44.4602C71.9928 44.2035 71.529 44.0747 71.0064 44.0738C70.1957 44.0724 69.5392 44.3539 69.0369 44.9183C68.5452 45.4721 68.2986 46.1917 68.2971 47.077C68.2955 47.9623 68.5396 48.6881 69.0292 49.2543C69.5296 49.8099 70.1851 50.0883 70.9958 50.0898ZM80.6035 43.0187L80.6012 44.2987L79.9452 44.2975C79.1666 44.2962 78.6061 44.5565 78.2639 45.0786C77.9323 45.6007 77.7658 46.2457 77.7645 47.0137L77.7571 51.1737L76.4451 51.1714L76.4595 43.0114L77.5955 43.0134L77.7693 44.2457C78.0047 43.8728 78.3092 43.5747 78.6829 43.3513C79.0566 43.128 79.5742 43.0169 80.2355 43.0181L80.6035 43.0187ZM82.1448 39.8694C82.3901 39.8698 82.5927 39.9502 82.7524 40.1105C82.9121 40.2708 82.9917 40.4736 82.9913 40.7189C82.9909 40.9642 82.9105 41.1668 82.7502 41.3265C82.59 41.4862 82.3872 41.5658 82.1418 41.5654C81.8965 41.565 81.694 41.4846 81.5342 41.3243C81.3745 41.1641 81.2949 40.9612 81.2953 40.7159C81.2957 40.4706 81.3761 40.2681 81.5364 40.1083C81.6967 39.9486 81.8995 39.869 82.1448 39.8694ZM81.4833 43.0203L82.7953 43.0226L82.7809 51.1826L81.4689 51.1802L81.4833 43.0203ZM84.278 39.9852L85.59 39.9875L85.5702 51.1875L84.2582 51.1852L84.278 39.9852ZM87.0674 39.9901L88.3794 39.9924L88.3596 51.1924L87.0476 51.1901L87.0674 39.9901ZM89.5562 47.1145C89.5576 46.2825 89.7189 45.5521 90.04 44.9233C90.3718 44.2946 90.8313 43.8101 91.4186 43.4698C92.0059 43.1188 92.6782 42.944 93.4355 42.9453C94.1822 42.9466 94.8433 43.1025 95.4187 43.4128C95.9942 43.7232 96.4467 44.172 96.7763 44.7592C97.106 45.3465 97.2808 46.0348 97.3007 46.8241C97.3005 46.9415 97.2895 47.1281 97.2677 47.3841L90.9317 47.3729L90.9315 47.4849C90.9514 48.285 91.1956 48.9254 91.6641 49.4062C92.1326 49.887 92.7455 50.1281 93.5029 50.1295C94.0895 50.1305 94.5858 49.9874 94.9916 49.7001C95.4081 49.4021 95.6862 48.992 95.8258 48.4695L97.1538 48.4719C96.9923 49.3036 96.5911 49.9856 95.9502 50.5178C95.3093 51.0393 94.5248 51.2993 93.5968 51.2976C92.7861 51.2962 92.0771 51.1243 91.4697 50.7819C90.8623 50.4288 90.3885 49.9373 90.0483 49.3074C89.7188 48.6668 89.5547 47.9358 89.5562 47.1145ZM95.9416 46.2938C95.8789 45.6003 95.6185 45.0612 95.1605 44.6764C94.7132 44.2916 94.1428 44.0986 93.4495 44.0974C92.8308 44.0963 92.2865 44.298 91.8164 44.7025C91.3464 45.107 91.0788 45.6345 91.0136 46.2851L95.9416 46.2938ZM106.234 40.0239L106.214 51.2239L105.078 51.2219L104.904 49.9096C104.22 50.847 103.286 51.3147 102.102 51.3126C101.345 51.3113 100.668 51.1448 100.071 50.813C99.4847 50.4813 99.0216 50.0005 98.6813 49.3706C98.3518 48.7407 98.1878 47.9937 98.1893 47.1297C98.1907 46.3084 98.3573 45.5833 98.6891 44.9546C99.0316 44.3259 99.5018 43.836 100.1 43.4851C100.698 43.1341 101.37 42.9593 102.117 42.9606C102.778 42.9618 103.343 43.0855 103.812 43.3316C104.281 43.5671 104.648 43.8931 104.914 44.3096L104.922 40.0216L106.234 40.0239ZM102.232 50.1448C102.755 50.1458 103.219 50.0239 103.625 49.7793C104.041 49.524 104.362 49.1726 104.586 48.725C104.811 48.2667 104.924 47.7496 104.925 47.1736C104.926 46.5869 104.815 46.0641 104.592 45.605C104.369 45.1353 104.049 44.772 103.634 44.5153C103.229 44.2586 102.765 44.1298 102.243 44.1289C101.432 44.1274 100.775 44.4089 100.273 44.9734C99.7814 45.5272 99.5348 46.2468 99.5333 47.1321C99.5317 48.0174 99.7758 48.7432 100.265 49.3094C100.766 49.8649 101.421 50.1434 102.232 50.1448ZM118.834 48.4301C118.662 49.3365 118.26 50.0504 117.63 50.572C117 51.0829 116.199 51.3375 115.229 51.3358C114.439 51.3344 113.746 51.1572 113.15 50.8041C112.553 50.451 112.09 49.9596 111.76 49.3296C111.431 48.6891 111.267 47.9581 111.268 47.1368C111.269 46.3154 111.436 45.5904 111.768 44.9617C112.11 44.3329 112.586 43.8484 113.194 43.5082C113.803 43.1572 114.502 42.9825 115.291 42.9839C116.251 42.9856 117.04 43.2429 117.658 43.756C118.286 44.2691 118.68 44.9738 118.838 45.8701L117.51 45.8678C117.383 45.3449 117.117 44.9284 116.712 44.6184C116.308 44.3083 115.817 44.1528 115.241 44.1518C114.463 44.1504 113.827 44.4266 113.336 44.9804C112.855 45.5342 112.614 46.2538 112.612 47.1391C112.61 48.0351 112.849 48.7662 113.328 49.3324C113.818 49.8879 114.452 50.1664 115.231 50.1678C115.828 50.1688 116.33 50.015 116.736 49.7064C117.141 49.3978 117.403 48.9716 117.522 48.4278L118.834 48.4301ZM124.04 42.9993C125.032 43.001 125.832 43.3011 126.439 43.8995C127.046 44.4979 127.348 45.4371 127.346 46.7171L127.338 51.2611L126.026 51.2588L126.034 46.7948C126.035 45.9521 125.844 45.3118 125.461 44.8738C125.078 44.4251 124.529 44.2002 123.814 44.1989C123.057 44.1976 122.454 44.4632 122.005 44.9957C121.566 45.5283 121.346 46.2532 121.345 47.1705L121.338 51.2505L120.026 51.2482L120.045 40.0482L121.357 40.0506L121.35 44.4345C121.617 44.0084 121.97 43.6623 122.408 43.3964C122.856 43.1305 123.4 42.9982 124.04 42.9993ZM129.366 39.9527C129.611 39.9531 129.814 40.0335 129.974 40.1937C130.133 40.354 130.213 40.5568 130.212 40.8022C130.212 41.0475 130.132 41.25 129.971 41.4097C129.811 41.5695 129.608 41.6491 129.363 41.6487C129.118 41.6482 128.915 41.5679 128.755 41.4076C128.596 41.2473 128.516 41.0445 128.516 40.7992C128.517 40.5538 128.597 40.3513 128.758 40.1916C128.918 40.0319 129.121 39.9522 129.366 39.9527ZM128.704 43.1035L130.016 43.1058L130.002 51.2658L128.69 51.2635L128.704 43.1035ZM138.764 48.4653C138.592 49.3716 138.191 50.0856 137.561 50.6071C136.93 51.118 136.13 51.3726 135.159 51.3709C134.37 51.3695 133.677 51.1923 133.08 50.8392C132.483 50.4862 132.02 49.9947 131.691 49.3648C131.361 48.7242 131.197 47.9932 131.199 47.1719C131.2 46.3506 131.367 45.6255 131.698 44.9968C132.041 44.3681 132.516 43.8836 133.125 43.5433C133.734 43.1924 134.433 43.0176 135.222 43.019C136.182 43.0207 136.971 43.2781 137.589 43.7912C138.217 44.3043 138.61 45.009 138.769 45.9053L137.441 45.9029C137.314 45.38 137.048 44.9636 136.643 44.6535C136.238 44.3435 135.748 44.1879 135.172 44.1869C134.393 44.1855 133.758 44.4618 133.266 45.0156C132.785 45.5694 132.544 46.289 132.543 47.1743C132.541 48.0703 132.78 48.8014 133.259 49.3676C133.748 49.9231 134.383 50.2015 135.161 50.2029C135.759 50.204 136.26 50.0502 136.666 49.7416C137.072 49.4329 137.334 49.0067 137.452 48.4629L138.764 48.4653ZM139.976 40.0834L141.288 40.0857L141.275 47.5097L145.427 43.133L146.995 43.1358L143.853 46.4742L147.204 51.2961L145.62 51.2934L142.907 47.4166L141.272 49.1257L141.268 51.2857L139.956 51.2834L139.976 40.0834ZM147.152 47.216C147.154 46.384 147.315 45.6537 147.636 45.0249C147.968 44.3961 148.427 43.9116 149.015 43.5713C149.602 43.2204 150.274 43.0455 151.032 43.0469C151.778 43.0482 152.439 43.204 153.015 43.5144C153.59 43.8247 154.043 44.2735 154.372 44.8608C154.702 45.448 154.877 46.1363 154.897 46.9257C154.897 47.043 154.886 47.2297 154.864 47.4856L148.528 47.4745L148.528 47.5865C148.548 48.3865 148.792 49.0269 149.26 49.5078C149.729 49.9886 150.342 50.2297 151.099 50.231C151.686 50.232 152.182 50.0889 152.588 49.8016C153.004 49.5037 153.282 49.0935 153.422 48.5711L154.75 48.5734C154.588 49.4052 154.187 50.0871 153.546 50.6193C152.905 51.1409 152.121 51.4008 151.193 51.3992C150.382 51.3977 149.673 51.2258 149.066 50.8834C148.458 50.5304 147.985 50.0389 147.644 49.4089C147.315 48.7683 147.151 48.0374 147.152 47.216ZM153.538 46.3953C153.475 45.7019 153.215 45.1627 152.757 44.7779C152.309 44.3931 151.739 44.2001 151.046 44.1989C150.427 44.1978 149.883 44.3995 149.413 44.804C148.943 45.2085 148.675 45.7361 148.61 46.3866L153.538 46.3953ZM160.081 43.0628C161.073 43.0646 161.867 43.3647 162.463 43.963C163.07 44.5614 163.373 45.5006 163.37 46.7806L163.362 51.3246L162.05 51.3223L162.058 46.8583C162.06 46.0157 161.869 45.3753 161.485 44.9373C161.113 44.4887 160.569 44.2637 159.855 44.2624C159.087 44.2611 158.484 44.5267 158.045 45.0592C157.607 45.5918 157.387 46.3168 157.385 47.2341L157.378 51.3141L156.066 51.3118L156.081 43.1518L157.217 43.1538L157.391 44.2581C158.011 43.4592 158.907 43.0608 160.081 43.0628ZM169.258 40.023C169.504 40.0234 169.706 40.1038 169.866 40.2641C170.026 40.4244 170.105 40.6272 170.105 40.8725C170.105 41.1178 170.024 41.3204 169.864 41.4801C169.704 41.6398 169.501 41.7194 169.255 41.719C169.01 41.7186 168.808 41.6382 168.648 41.4779C168.488 41.3177 168.409 41.1148 168.409 40.8695C168.409 40.6242 168.49 40.4217 168.65 40.2619C168.81 40.1022 169.013 40.0226 169.258 40.023ZM168.597 43.1739L169.909 43.1762L169.894 51.3362L168.582 51.3338L168.597 43.1739ZM172.401 48.6526C172.421 49.1433 172.634 49.5436 173.038 49.8537C173.454 50.1638 173.987 50.3194 174.638 50.3205C175.214 50.3215 175.678 50.2103 176.03 49.987C176.393 49.7529 176.575 49.4493 176.576 49.0759C176.576 48.7559 176.492 48.5104 176.321 48.3395C176.151 48.1685 175.927 48.0508 175.65 47.9863C175.383 47.9218 174.999 47.8571 174.498 47.7923C173.794 47.7057 173.218 47.5927 172.771 47.4532C172.323 47.3138 171.961 47.0945 171.684 46.7953C171.407 46.4855 171.269 46.0639 171.27 45.5306C171.271 45.0506 171.405 44.6241 171.672 44.2513C171.95 43.8784 172.324 43.5911 172.794 43.3893C173.264 43.1767 173.792 43.071 174.378 43.072C175.338 43.0737 176.117 43.2991 176.713 43.7482C177.32 44.1972 177.655 44.8378 177.718 45.6699L176.406 45.6676C176.353 45.2409 176.146 44.8885 175.784 44.6105C175.422 44.3326 174.968 44.1931 174.424 44.1921C173.87 44.1911 173.422 44.3077 173.08 44.5418C172.738 44.7652 172.567 45.0635 172.566 45.4369C172.566 45.7142 172.645 45.9277 172.805 46.0773C172.965 46.2269 173.167 46.3286 173.413 46.3823C173.668 46.4361 174.052 46.4955 174.564 46.5604C175.279 46.647 175.865 46.7653 176.324 46.9155C176.793 47.0656 177.166 47.3063 177.442 47.6375C177.73 47.9686 177.873 48.4169 177.872 48.9822C177.871 49.4729 177.726 49.9046 177.438 50.2775C177.149 50.6503 176.759 50.9376 176.268 51.1394C175.777 51.3412 175.233 51.4416 174.636 51.4405C173.569 51.4386 172.711 51.1918 172.061 50.7C171.422 50.2082 171.098 49.5249 171.089 48.6503L172.401 48.6526ZM190.538 50.1725L190.536 51.3725L189.816 51.3713C189.293 51.3704 188.92 51.263 188.696 51.0493C188.473 50.8356 188.356 50.5207 188.346 50.1047C187.715 51.0102 186.802 51.462 185.608 51.4599C184.701 51.4583 183.971 51.2436 183.417 50.816C182.873 50.3884 182.602 49.8066 182.604 49.0706C182.605 48.2492 182.884 47.6204 183.439 47.184C184.005 46.7477 184.822 46.5305 185.888 46.5323L188.288 46.5366L188.289 45.9766C188.29 45.4432 188.11 45.0269 187.747 44.7276C187.396 44.4283 186.9 44.2781 186.26 44.277C185.695 44.276 185.225 44.4032 184.852 44.6585C184.488 44.9032 184.264 45.2335 184.178 45.6493L182.866 45.647C182.963 44.8472 183.316 44.2238 183.925 43.7769C184.545 43.33 185.345 43.1074 186.326 43.1091C187.372 43.111 188.176 43.3684 188.741 43.8814C189.316 44.3837 189.603 45.1096 189.601 46.0589L189.595 49.5789C189.594 49.9736 189.775 50.1712 190.138 50.1718L190.538 50.1725ZM188.286 47.6406L185.758 47.6361C184.542 47.634 183.933 48.0862 183.932 48.9929C183.931 49.3982 184.091 49.7238 184.41 49.9697C184.73 50.2156 185.162 50.3391 185.706 50.34C186.506 50.3414 187.135 50.1345 187.595 49.7194C188.054 49.2935 188.284 48.7339 188.286 48.0406L188.286 47.6406ZM191.244 40.1738L192.556 40.1761L192.536 51.3761L191.224 51.3738L191.244 40.1738ZM193.26 43.2173L194.636 43.2198L196.656 49.8633L198.812 43.2271L200.028 43.2293L202.048 49.8728L204.188 43.2366L205.516 43.2389L202.782 51.3941L201.342 51.3916L199.384 45.3241L197.326 51.3845L195.886 51.398L193.26 43.2173ZM213.531 50.2131L213.529 51.4131L212.809 51.4118C212.286 51.4109 211.913 51.3036 211.689 51.0898C211.466 50.8761 211.349 50.5612 211.339 50.1452C210.708 51.0508 209.795 51.5025 208.601 51.5004C207.694 51.4988 206.964 51.2842 206.41 50.8565C205.867 50.4289 205.596 49.8471 205.597 49.1111C205.598 48.2898 205.877 47.6609 206.432 47.2246C206.998 46.7882 207.815 46.571 208.881 46.5729L211.281 46.5771L211.282 46.0171C211.283 45.4838 211.103 45.0675 210.74 44.7682C210.389 44.4689 209.893 44.3187 209.253 44.3175C208.688 44.3165 208.218 44.4437 207.845 44.6991C207.482 44.9437 207.257 45.274 207.171 45.6899L205.859 45.6876C205.956 44.8877 206.309 44.2643 206.918 43.8174C207.538 43.3705 208.338 43.1479 209.319 43.1497C210.365 43.1515 211.17 43.4089 211.734 43.9219C212.309 44.4243 212.596 45.1501 212.594 46.0994L212.588 49.6194C212.587 50.0141 212.768 50.2117 213.131 50.2124L213.531 50.2131ZM211.279 47.6811L208.751 47.6767C207.535 47.6745 206.927 48.1268 206.925 49.0334C206.924 49.4388 207.084 49.7644 207.403 50.0103C207.723 50.2562 208.155 50.3796 208.699 50.3806C209.499 50.382 210.128 50.1751 210.588 49.7599C211.047 49.334 211.277 48.7744 211.279 48.0811L211.279 47.6811ZM214.573 43.2549L217.074 49.9153L219.517 43.2636L220.909 43.2661L217.133 52.7954C216.94 53.2858 216.768 53.6535 216.619 53.8985C216.469 54.1436 216.282 54.3246 216.058 54.4416C215.833 54.5585 215.535 54.6166 215.161 54.616L213.593 54.6132L213.596 53.4132L214.764 53.4153C215.02 53.4157 215.212 53.3894 215.34 53.3363C215.468 53.2832 215.569 53.1927 215.644 53.0648C215.73 52.9476 215.831 52.7451 215.949 52.4574L216.367 51.4821L213.181 43.2525L214.573 43.2549ZM222.426 48.7408C222.447 49.2315 222.659 49.6319 223.064 49.9419C223.479 50.252 224.013 50.4076 224.663 50.4087C225.239 50.4097 225.703 50.2986 226.056 50.0752C226.419 49.8411 226.601 49.5375 226.601 49.1641C226.602 48.8441 226.517 48.5987 226.347 48.4277C226.176 48.2567 225.953 48.139 225.675 48.0745C225.409 48.01 225.025 47.9454 224.524 47.8805C223.82 47.7939 223.244 47.6809 222.796 47.5414C222.348 47.402 221.986 47.1827 221.709 46.8835C221.433 46.5737 221.295 46.1521 221.296 45.6188C221.296 45.1388 221.431 44.7123 221.698 44.3395C221.976 43.9666 222.35 43.6793 222.819 43.4775C223.289 43.265 223.817 43.1592 224.404 43.1602C225.364 43.1619 226.142 43.3873 226.739 43.8364C227.346 44.2854 227.681 44.926 227.743 45.7581L226.431 45.7558C226.379 45.3291 226.171 44.9767 225.809 44.6987C225.447 44.4208 224.994 44.2813 224.45 44.2803C223.895 44.2794 223.447 44.3959 223.105 44.63C222.764 44.8534 222.592 45.1517 222.592 45.5251C222.591 45.8024 222.671 46.0159 222.831 46.1655C222.99 46.3151 223.193 46.4168 223.438 46.4706C223.694 46.5243 224.078 46.5837 224.59 46.6486C225.304 46.7352 225.891 46.8535 226.349 47.0037C226.818 47.1538 227.191 47.3945 227.468 47.7257C227.755 48.0568 227.899 48.5051 227.898 49.0704C227.897 49.5611 227.752 49.9928 227.463 50.3657C227.175 50.7385 226.785 51.0258 226.294 51.2276C225.803 51.4294 225.259 51.5298 224.661 51.5287C223.595 51.5268 222.736 51.28 222.087 50.7882C221.447 50.2964 221.123 49.6131 221.114 48.7385L222.426 48.7408ZM236.689 51.5499C235.9 51.5485 235.196 51.3713 234.578 51.0182C233.971 50.6651 233.497 50.1736 233.157 49.5437C232.816 48.9138 232.647 48.1881 232.648 47.3668C232.65 46.5455 232.822 45.8204 233.164 45.1917C233.507 44.563 233.982 44.0731 234.591 43.7222C235.21 43.3713 235.914 43.1965 236.704 43.1979C237.493 43.1993 238.191 43.3766 238.799 43.7296C239.417 44.0827 239.896 44.5742 240.236 45.2042C240.576 45.8341 240.746 46.5597 240.744 47.3811C240.743 48.2024 240.571 48.9274 240.229 49.5562C239.886 50.1849 239.405 50.6747 238.786 51.0256C238.177 51.3765 237.478 51.5513 236.689 51.5499ZM236.691 50.3819C237.224 50.3829 237.694 50.2557 238.1 50.0004C238.516 49.7451 238.837 49.3884 239.062 48.9301C239.287 48.4718 239.399 47.9547 239.4 47.3787C239.401 46.8027 239.29 46.2852 239.067 45.8261C238.844 45.367 238.525 45.0091 238.109 44.7524C237.704 44.4957 237.235 44.3669 236.702 44.3659C236.168 44.365 235.694 44.4922 235.277 44.7474C234.871 45.0027 234.556 45.3595 234.331 45.8178C234.106 46.276 233.993 46.7932 233.992 47.3692C233.991 47.9452 234.103 48.4627 234.326 48.9218C234.549 49.3808 234.863 49.7387 235.268 49.9954C235.683 50.2521 236.158 50.381 236.691 50.3819ZM245.936 43.2142C246.928 43.216 247.722 43.516 248.319 44.1144C248.926 44.7128 249.228 45.652 249.226 46.932L249.218 51.476L247.906 51.4737L247.914 47.0097C247.915 46.167 247.724 45.5267 247.341 45.0887C246.968 44.64 246.425 44.4151 245.71 44.4138C244.942 44.4125 244.339 44.6781 243.901 45.2106C243.462 45.7432 243.243 46.4681 243.241 47.3855L243.234 51.4655L241.922 51.4632L241.936 43.3032L243.072 43.3052L243.246 44.4095C243.866 43.6106 244.763 43.2121 245.936 43.2142ZM258.565 43.2365C259.322 43.2378 259.994 43.4043 260.58 43.736C261.176 44.0678 261.64 44.5486 261.969 45.1785C262.309 45.8084 262.479 46.5554 262.477 47.4194C262.476 48.2407 262.304 48.9658 261.961 49.5945C261.63 50.2232 261.165 50.7131 260.567 51.064C259.969 51.415 259.296 51.5898 258.55 51.5885C257.888 51.5873 257.323 51.469 256.854 51.2335C256.386 50.9873 256.018 50.656 255.752 50.2395L255.744 54.6875L254.432 54.6852L254.452 43.3252L255.588 43.3272L255.762 44.6395C256.446 43.7021 257.381 43.2344 258.565 43.2365ZM258.424 50.4202C259.235 50.4217 259.886 50.1455 260.377 49.5917C260.88 49.0272 261.132 48.3023 261.133 47.417C261.135 46.5317 260.885 45.8112 260.385 45.2557C259.895 44.6895 259.245 44.4057 258.434 44.4043C257.912 44.4033 257.442 44.5305 257.026 44.7858C256.62 45.0304 256.305 45.3818 256.08 45.8401C255.855 46.2877 255.742 46.7995 255.741 47.3755C255.74 47.9622 255.851 48.4904 256.074 48.9601C256.298 49.4192 256.612 49.777 257.017 50.0338C257.432 50.2905 257.901 50.4193 258.424 50.4202ZM267.409 51.6041C266.62 51.6027 265.916 51.4255 265.298 51.0724C264.691 50.7193 264.217 50.2278 263.877 49.5979C263.536 48.9679 263.367 48.2423 263.368 47.421C263.37 46.5996 263.542 45.8746 263.884 45.2459C264.227 44.6171 264.702 44.1273 265.311 43.7764C265.93 43.4255 266.634 43.2507 267.424 43.2521C268.213 43.2535 268.911 43.4307 269.519 43.7838C270.137 44.1369 270.616 44.6284 270.956 45.2583C271.296 45.8883 271.466 46.6139 271.464 47.4352C271.463 48.2566 271.291 48.9816 270.949 49.6103C270.606 50.2391 270.125 50.7289 269.506 51.0798C268.897 51.4307 268.198 51.6055 267.409 51.6041ZM267.411 50.4361C267.944 50.437 268.414 50.3099 268.82 50.0546C269.236 49.7993 269.557 49.4425 269.782 48.9843C270.006 48.526 270.119 48.0089 270.12 47.4329C270.121 46.8569 270.01 46.3393 269.787 45.8803C269.564 45.4212 269.245 45.0633 268.829 44.8066C268.424 44.5499 267.955 44.421 267.422 44.4201C266.888 44.4192 266.413 44.5463 265.997 44.8016C265.591 45.0569 265.276 45.4137 265.051 45.8719C264.826 46.3302 264.713 46.8473 264.712 47.4233C264.711 47.9993 264.822 48.5169 265.046 48.9759C265.269 49.435 265.583 49.7929 265.988 50.0496C266.403 50.3063 266.878 50.4352 267.411 50.4361ZM273.318 40.2065C273.563 40.2069 273.766 40.2873 273.925 40.4476C274.085 40.6078 274.165 40.8106 274.164 41.056C274.164 41.3013 274.083 41.5038 273.923 41.6636C273.763 41.8233 273.56 41.9029 273.315 41.9025C273.069 41.9021 272.867 41.8217 272.707 41.6614C272.547 41.5011 272.468 41.2983 272.468 41.053C272.469 40.8077 272.549 40.6051 272.709 40.4454C272.87 40.2857 273.072 40.2061 273.318 40.2065ZM272.656 43.3573L273.968 43.3596L273.954 51.5196L272.642 51.5173L272.656 43.3573ZM279.446 43.2733C280.438 43.275 281.232 43.5751 281.828 44.1735C282.435 44.7719 282.737 45.7111 282.735 46.9911L282.727 51.5351L281.415 51.5328L281.423 47.0688C281.424 46.2261 281.234 45.5858 280.85 45.1478C280.478 44.6991 279.934 44.4742 279.219 44.4729C278.451 44.4715 277.848 44.7372 277.41 45.2697C276.972 45.8023 276.752 46.5272 276.75 47.4446L276.743 51.5245L275.431 51.5222L275.445 43.3622L276.581 43.3642L276.756 44.4686C277.376 43.6696 278.272 43.2712 279.446 43.2733ZM284.636 44.5785L283.164 44.5759L283.166 43.3759L284.638 43.3785L284.642 41.0905L285.954 41.0928L285.95 43.3808L288.014 43.3844L288.012 44.5844L285.948 44.5808L285.94 49.3968C285.939 49.7381 286.003 49.9835 286.13 50.1331C286.269 50.272 286.503 50.3418 286.834 50.3423L288.258 50.3448L288.256 51.5448L286.752 51.5422C285.984 51.5408 285.435 51.3692 285.105 51.0273C284.785 50.6854 284.626 50.1464 284.628 49.4104L284.636 44.5785ZM289.542 49.8671C289.926 49.8678 290.23 50.0283 290.453 50.3487C290.688 50.6585 290.804 51.0427 290.803 51.5013C290.802 52.184 290.599 52.717 290.193 53.1003C289.797 53.4836 289.248 53.6853 288.543 53.7054L288.545 52.9534C289.014 52.9435 289.356 52.8108 289.57 52.5552C289.783 52.2995 289.89 52.0064 289.891 51.6757C289.891 51.5797 289.886 51.5104 289.875 51.4677C289.747 51.5955 289.566 51.6592 289.331 51.6587C289.086 51.6583 288.883 51.5833 288.724 51.4337C288.564 51.2841 288.484 51.0706 288.485 50.7932C288.485 50.5266 288.576 50.3081 288.758 50.1377C288.95 49.9567 289.212 49.8665 289.542 49.8671ZM33.2034 68.8392C33.9607 68.8405 34.6324 69.007 35.2185 69.3387C35.8153 69.6704 36.2784 70.1513 36.608 70.7812C36.9482 71.4111 37.1176 72.1581 37.116 73.0221C37.1146 73.8434 36.9426 74.5684 36.6002 75.1972C36.2684 75.8259 35.8036 76.3158 35.2056 76.6667C34.6077 77.0177 33.9353 77.1925 33.1887 77.1912C32.5273 77.19 31.9622 77.0717 31.4933 76.8362C31.0244 76.59 30.657 76.2587 30.3911 75.8422L30.3832 80.2902L29.0712 80.2879L29.0912 68.9279L30.2272 68.9299L30.4009 70.2422C31.0852 69.3048 32.0194 68.8371 33.2034 68.8392ZM33.0627 76.0229C33.8734 76.0244 34.5246 75.7482 35.0162 75.1944C35.5185 74.6299 35.7705 73.905 35.772 73.0197C35.7736 72.1344 35.5242 71.4139 35.0238 70.8584C34.5342 70.2922 33.884 70.0084 33.0733 70.0069C32.5507 70.006 32.0811 70.1332 31.6647 70.3885C31.2589 70.6331 30.9436 70.9845 30.7188 71.4428C30.494 71.8904 30.3811 72.4022 30.3801 72.9782C30.3791 73.5649 30.4901 74.0931 30.7133 74.5628C30.9365 75.0218 31.2505 75.3797 31.6554 75.6364C32.071 75.8932 32.5401 76.022 33.0627 76.0229ZM42.0479 77.2068C41.2586 77.2054 40.5549 77.0281 39.9368 76.6751C39.3295 76.322 38.8557 75.8305 38.5154 75.2005C38.1752 74.5706 38.0058 73.845 38.0073 73.0236C38.0087 72.2023 38.1807 71.4773 38.5231 70.8485C38.8656 70.2198 39.3411 69.73 39.9497 69.3791C40.569 69.0282 41.2733 68.8534 42.0626 68.8548C42.852 68.8562 43.5503 69.0334 44.1577 69.3865C44.7758 69.7396 45.2549 70.2311 45.5951 70.861C45.9353 71.491 46.1047 72.2166 46.1033 73.0379C46.1018 73.8592 45.9299 74.5843 45.5874 75.213C45.245 75.8417 44.7641 76.3316 44.1448 76.6825C43.5362 77.0334 42.8372 77.2082 42.0479 77.2068ZM42.05 76.0388C42.5833 76.0397 43.0529 75.9125 43.4586 75.6573C43.8751 75.402 44.1957 75.0452 44.4205 74.587C44.6453 74.1287 44.7583 73.6115 44.7593 73.0355C44.7603 72.4595 44.6492 71.942 44.426 71.483C44.2028 71.0239 43.8835 70.666 43.4679 70.4093C43.063 70.1526 42.5939 70.0237 42.0606 70.0228C41.5272 70.0218 41.0524 70.149 40.6359 70.4043C40.2301 70.6596 39.9148 71.0163 39.69 71.4746C39.4652 71.9329 39.3523 72.45 39.3513 73.026C39.3503 73.602 39.4614 74.1195 39.6845 74.5786C39.9077 75.0377 40.2218 75.3956 40.6267 75.6523C41.0422 75.909 41.5166 76.0378 42.05 76.0388ZM51.439 68.9673L51.4367 70.2473L50.7807 70.2462C50.002 70.2448 49.4416 70.5051 49.0993 71.0272C48.7677 71.5493 48.6013 72.1943 48.5999 72.9623L48.5926 77.1223L47.2806 77.12L47.295 68.96L48.431 68.962L48.6048 70.1943C48.8401 69.8214 49.1446 69.5233 49.5184 69.2999C49.8921 69.0766 50.4096 68.9655 51.071 68.9667L51.439 68.9673ZM52.3227 66.6809L53.6347 66.6832L53.6307 68.9712L55.6947 68.9748L55.6926 70.1748L53.6286 70.1712L53.6201 74.9872C53.6195 75.3285 53.6831 75.574 53.8108 75.7235C53.9492 75.8624 54.1838 75.9322 54.5144 75.9328L55.9384 75.9353L55.9363 77.1353L54.4323 77.1326C53.6643 77.1313 53.1153 76.9596 52.7852 76.6177C52.4658 76.2758 52.3068 75.7369 52.3081 75.0009L52.3227 66.6809ZM57.2228 65.8255C57.4681 65.8259 57.6706 65.9063 57.8303 66.0666C57.99 66.2269 58.0697 66.4297 58.0693 66.675C58.0688 66.9203 57.9885 67.1229 57.8282 67.2826C57.6679 67.4423 57.4651 67.5219 57.2198 67.5215C56.9744 67.5211 56.7719 67.4407 56.6122 67.2804C56.4525 67.1202 56.3728 66.9173 56.3733 66.672C56.3737 66.4267 56.4541 66.2242 56.6143 66.0644C56.7746 65.9047 56.9774 65.8251 57.2228 65.8255ZM56.5612 68.9763L57.8732 68.9787L57.8588 77.1387L56.5468 77.1363L56.5612 68.9763ZM63.096 77.2439C62.3067 77.2425 61.603 77.0653 60.9849 76.7122C60.3776 76.3591 59.9038 75.8676 59.5635 75.2377C59.2233 74.6077 59.0539 73.8821 59.0554 73.0608C59.0568 72.2394 59.2288 71.5144 59.5712 70.8857C59.9137 70.2569 60.3892 69.7671 60.9978 69.4162C61.6171 69.0653 62.3214 68.8905 63.1107 68.8919C63.9001 68.8933 64.5984 69.0705 65.2058 69.4236C65.8238 69.7767 66.303 70.2682 66.6432 70.8981C66.9834 71.5281 67.1528 72.2537 67.1514 73.075C67.1499 73.8964 66.978 74.6214 66.6355 75.2501C66.2931 75.8789 65.8122 76.3687 65.1929 76.7196C64.5843 77.0705 63.8853 77.2453 63.096 77.2439ZM63.0981 76.0759C63.6314 76.0768 64.101 75.9497 64.5067 75.6944C64.9232 75.4391 65.2438 75.0823 65.4686 74.6241C65.6934 74.1658 65.8064 73.6487 65.8074 73.0727C65.8084 72.4967 65.6973 71.9791 65.4741 71.5201C65.2509 71.061 64.9315 70.7031 64.516 70.4464C64.1111 70.1897 63.642 70.0608 63.1087 70.0599C62.5753 70.059 62.1004 70.1861 61.684 70.4414C61.2782 70.6967 60.9629 71.0534 60.7381 71.5117C60.5133 71.97 60.4004 72.4871 60.3994 73.0631C60.3984 73.6391 60.5094 74.1567 60.7326 74.6157C60.9558 75.0748 61.2699 75.4327 61.6747 75.6894C62.0903 75.9461 62.5647 76.0749 63.0981 76.0759ZM72.3432 68.9082C73.3352 68.9099 74.1294 69.21 74.7256 69.8084C75.3326 70.4068 75.6349 71.346 75.6327 72.626L75.6247 77.17L74.3127 77.1677L74.3205 72.7037C74.322 71.861 74.1311 71.2207 73.7479 70.7827C73.3754 70.334 72.8318 70.109 72.1171 70.1078C71.3491 70.1064 70.746 70.372 70.3077 70.9046C69.8694 71.4372 69.6495 72.1621 69.6479 73.0794L69.6407 77.1594L68.3287 77.1571L68.3431 68.9971L69.4791 68.9991L69.6531 70.1034C70.2732 69.3045 71.1699 68.9061 72.3432 68.9082ZM78.0061 74.4862C78.0266 74.9769 78.2392 75.3772 78.644 75.6873C79.0595 75.9974 79.5925 76.153 80.2432 76.1541C80.8192 76.1551 81.2834 76.044 81.6358 75.8206C81.9989 75.5865 82.1807 75.2829 82.1814 74.9095C82.182 74.5895 82.0971 74.344 81.9267 74.1731C81.7563 74.0021 81.5325 73.8844 81.2553 73.8199C80.9888 73.7554 80.6049 73.6908 80.1037 73.6259C79.3998 73.5393 78.824 73.4263 78.3763 73.2868C77.9285 73.1474 77.5662 72.9281 77.2894 72.6289C77.0126 72.3191 76.8747 71.8975 76.8756 71.3642C76.8765 70.8842 77.0106 70.4577 77.2779 70.0849C77.5559 69.712 77.9297 69.4247 78.3994 69.2229C78.8691 69.0103 79.3973 68.9046 79.984 68.9056C80.944 68.9073 81.7223 69.1327 82.3188 69.5818C82.926 70.0308 83.2609 70.6714 83.3234 71.5035L82.0114 71.5012C81.9588 71.0745 81.7515 70.7221 81.3893 70.4441C81.0271 70.1662 80.574 70.0267 80.03 70.0257C79.4753 70.0248 79.0271 70.1413 78.6854 70.3754C78.3437 70.5988 78.1725 70.8971 78.1718 71.2705C78.1713 71.5478 78.2509 71.7613 78.4107 71.9109C78.5704 72.0605 78.7729 72.1622 79.0181 72.216C79.2741 72.2697 79.6579 72.3291 80.1698 72.394C80.8843 72.4806 81.4708 72.5989 81.9292 72.7491C82.3983 72.8992 82.7712 73.1399 83.0479 73.4711C83.3354 73.8022 83.4786 74.2505 83.4776 74.8158C83.4767 75.3065 83.3319 75.7382 83.0433 76.1111C82.7546 76.4839 82.3648 76.7712 81.8738 76.973C81.3827 77.1748 80.8386 77.2752 80.2412 77.2741C79.1746 77.2722 78.3163 77.0254 77.6665 76.5336C77.0274 76.0418 76.7033 75.3585 76.6941 74.4839L78.0061 74.4862ZM96.1434 76.0062L96.1412 77.2062L95.4213 77.2049C94.8986 77.204 94.5254 77.0966 94.3018 76.8829C94.0782 76.6692 93.9614 76.3543 93.9515 75.9383C93.3206 76.8438 92.4078 77.2956 91.2131 77.2935C90.3064 77.2919 89.5761 77.0772 89.0222 76.6496C88.479 76.222 88.208 75.6402 88.2093 74.9042C88.2107 74.0828 88.4892 73.454 89.0446 73.0176C89.6107 72.5813 90.4271 72.3641 91.4938 72.3659L93.8938 72.3702L93.8948 71.8102C93.8957 71.2768 93.7151 70.8605 93.353 70.5612C93.0015 70.2619 92.5058 70.1117 91.8658 70.1106C91.3004 70.1096 90.8309 70.2368 90.4571 70.4921C90.094 70.7368 89.8694 71.0671 89.7833 71.4829L88.4713 71.4806C88.5687 70.6808 88.9218 70.0574 89.5306 69.6105C90.1501 69.1636 90.9505 68.941 91.9318 68.9427C92.9771 68.9446 93.782 69.202 94.3465 69.715C94.9216 70.2173 95.2083 70.9432 95.2066 71.8925L95.2004 75.4125C95.1997 75.8072 95.3807 76.0048 95.7434 76.0054L96.1434 76.0062ZM93.8918 73.4742L91.3638 73.4697C90.1478 73.4676 89.539 73.9198 89.5374 74.8265C89.5367 75.2318 89.6961 75.5575 90.0157 75.8033C90.3353 76.0492 90.7671 76.1727 91.3111 76.1736C92.1111 76.175 92.7408 75.9682 93.2002 75.553C93.6596 75.1271 93.8899 74.5675 93.8911 73.8742L93.8918 73.4742ZM100.988 69.0547L100.986 70.3347L100.33 70.3335C99.5513 70.3322 98.9909 70.5925 98.6486 71.1146C98.317 71.6366 98.1506 72.2817 98.1492 73.0497L98.1419 77.2097L96.8299 77.2074L96.8443 69.0474L97.9803 69.0494L98.1541 70.2817C98.3894 69.9088 98.6939 69.6106 99.0677 69.3873C99.4414 69.164 99.9589 69.0529 100.62 69.054L100.988 69.0547ZM101.104 73.1349C101.106 72.3029 101.267 71.5725 101.588 70.9437C101.92 70.315 102.379 69.8305 102.966 69.4902C103.554 69.1392 104.226 68.9644 104.983 68.9657C105.73 68.967 106.391 69.1229 106.967 69.4332C107.542 69.7436 107.995 70.1924 108.324 70.7796C108.654 71.3669 108.829 72.0552 108.849 72.8445C108.848 72.9619 108.837 73.1485 108.816 73.4045L102.48 73.3933L102.479 73.5053C102.499 74.3054 102.744 74.9458 103.212 75.4266C103.681 75.9074 104.293 76.1485 105.051 76.1499C105.637 76.1509 106.134 76.0078 106.54 75.7205C106.956 75.4225 107.234 75.0124 107.374 74.49L108.702 74.4923C108.54 75.324 108.139 76.006 107.498 76.5382C106.857 77.0597 106.073 77.3197 105.145 77.318C104.334 77.3166 103.625 77.1447 103.018 76.8023C102.41 76.4492 101.936 75.9577 101.596 75.3278C101.267 74.6872 101.103 73.9562 101.104 73.1349ZM107.49 72.3142C107.427 71.6207 107.166 71.0816 106.708 70.6968C106.261 70.312 105.691 70.119 104.997 70.1178C104.379 70.1167 103.834 70.3184 103.364 70.7229C102.894 71.1274 102.627 71.6549 102.562 72.3055L107.49 72.3142ZM121.644 69.0911L121.63 76.8511C121.626 79.3151 120.274 80.5447 117.576 80.5399C116.52 80.5381 115.656 80.2966 114.985 79.8154C114.324 79.3342 113.942 78.6509 113.837 77.7654L115.181 77.7677C115.286 78.2799 115.558 78.6751 115.994 78.9532C116.431 79.2313 116.991 79.3709 117.674 79.3721C119.434 79.3752 120.315 78.5181 120.318 76.8008L120.32 75.8408C119.732 76.8424 118.797 77.3421 117.517 77.3398C116.76 77.3385 116.083 77.172 115.486 76.8403C114.9 76.5086 114.437 76.0277 114.097 75.3978C113.767 74.7679 113.603 74.0209 113.605 73.1569C113.606 72.3356 113.773 71.6106 114.104 70.9818C114.447 70.3531 114.917 69.8632 115.515 69.5123C116.113 69.1614 116.785 68.9865 117.532 68.9879C118.193 68.989 118.758 69.1233 119.227 69.3908C119.696 69.6477 120.064 70.0163 120.329 70.4968L120.508 69.0891L121.644 69.0911ZM117.647 76.1721C118.17 76.173 118.634 76.0511 119.04 75.8065C119.456 75.5513 119.777 75.1998 120.002 74.7522C120.227 74.2939 120.34 73.7768 120.341 73.2008C120.342 72.6141 120.231 72.0913 120.007 71.6322C119.784 71.1625 119.465 70.7993 119.049 70.5425C118.644 70.2858 118.181 70.157 117.658 70.1561C116.847 70.1546 116.191 70.4362 115.688 71.0006C115.197 71.5544 114.95 72.274 114.949 73.1593C114.947 74.0446 115.191 74.7704 115.681 75.3366C116.181 75.8921 116.837 76.1706 117.647 76.1721ZM122.816 73.1732C122.817 72.3412 122.979 71.6108 123.3 70.982C123.632 70.3533 124.091 69.8688 124.678 69.5285C125.266 69.1775 125.938 69.0027 126.695 69.004C127.442 69.0053 128.103 69.1612 128.678 69.4715C129.254 69.7819 129.706 70.2307 130.036 70.8179C130.366 71.4052 130.54 72.0935 130.56 72.8828C130.56 73.0002 130.549 73.1868 130.527 73.4428L124.191 73.4316L124.191 73.5436C124.211 74.3436 124.455 74.9841 124.924 75.4649C125.392 75.9457 126.005 76.1868 126.763 76.1881C127.349 76.1892 127.846 76.046 128.251 75.7588C128.668 75.4608 128.946 75.0507 129.086 74.5282L130.414 74.5306C130.252 75.3623 129.851 76.0443 129.21 76.5765C128.569 77.098 127.785 77.3579 126.857 77.3563C126.046 77.3549 125.337 77.183 124.729 76.8406C124.122 76.4875 123.648 75.996 123.308 75.366C122.978 74.7255 122.814 73.9945 122.816 73.1732ZM129.201 72.3524C129.139 71.659 128.878 71.1199 128.42 70.7351C127.973 70.3503 127.403 70.1573 126.709 70.156C126.091 70.1549 125.546 70.3567 125.076 70.7612C124.606 71.1657 124.339 71.6932 124.273 72.3437L129.201 72.3524ZM135.744 69.02C136.736 69.0217 137.531 69.3218 138.127 69.9202C138.734 70.5186 139.036 71.4578 139.034 72.7378L139.026 77.2818L137.714 77.2795L137.722 72.8155C137.723 71.9728 137.532 71.3325 137.149 70.8944C136.777 70.4458 136.233 70.2208 135.518 70.2196C134.75 70.2182 134.147 70.4838 133.709 71.0164C133.271 71.5489 133.051 72.2739 133.049 73.1912L133.042 77.2712L131.73 77.2689L131.744 69.1089L132.88 69.1109L133.054 70.2152C133.674 69.4163 134.571 69.0179 135.744 69.02ZM140.098 73.2036C140.099 72.3716 140.261 71.6413 140.582 71.0125C140.913 70.3837 141.373 69.8992 141.96 69.5589C142.547 69.208 143.22 69.0331 143.977 69.0345C144.724 69.0358 145.385 69.1916 145.96 69.502C146.536 69.8123 146.988 70.2611 147.318 70.8484C147.648 71.4356 147.822 72.1239 147.842 72.9133C147.842 73.0306 147.831 73.2173 147.809 73.4732L141.473 73.4621L141.473 73.5741C141.493 74.3741 141.737 75.0145 142.206 75.4954C142.674 75.9762 143.287 76.2173 144.044 76.2186C144.631 76.2196 145.127 76.0765 145.533 75.7892C145.95 75.4913 146.228 75.0811 146.367 74.5587L147.695 74.561C147.534 75.3928 147.133 76.0747 146.492 76.6069C145.851 77.1285 145.066 77.3884 144.138 77.3868C143.328 77.3853 142.619 77.2134 142.011 76.871C141.404 76.518 140.93 76.0265 140.59 75.3965C140.26 74.7559 140.096 74.025 140.098 73.2036ZM146.483 72.3829C146.42 71.6895 146.16 71.1503 145.702 70.7655C145.255 70.3807 144.684 70.1877 143.991 70.1865C143.372 70.1854 142.828 70.3871 142.358 70.7916C141.888 71.1961 141.62 71.7237 141.555 72.3742L146.483 72.3829ZM153.17 69.1467L153.168 70.4267L152.512 70.4255C151.733 70.4242 151.173 70.6845 150.83 71.2066C150.499 71.7287 150.332 72.3737 150.331 73.1417L150.324 77.3017L149.012 77.2994L149.026 69.1394L150.162 69.1414L150.336 70.3737C150.571 70.0008 150.876 69.7026 151.249 69.4793C151.623 69.256 152.141 69.1449 152.802 69.146L153.17 69.1467ZM157.326 77.41C156.537 77.4086 155.833 77.2314 155.215 76.8783C154.608 76.5252 154.134 76.0337 153.794 75.4038C153.454 74.7739 153.284 74.0482 153.286 73.2269C153.287 72.4056 153.459 71.6805 153.802 71.0518C154.144 70.4231 154.62 69.9332 155.228 69.5823C155.848 69.2314 156.552 69.0567 157.341 69.058C158.131 69.0594 158.829 69.2367 159.436 69.5897C160.054 69.9428 160.533 70.4343 160.874 71.0643C161.214 71.6942 161.383 72.4198 161.382 73.2412C161.38 74.0625 161.208 74.7875 160.866 75.4163C160.524 76.045 160.043 76.5348 159.423 76.8857C158.815 77.2367 158.116 77.4114 157.326 77.41ZM157.329 76.242C157.862 76.243 158.331 76.1158 158.737 75.8605C159.154 75.6053 159.474 75.2485 159.699 74.7902C159.924 74.3319 160.037 73.8148 160.038 73.2388C160.039 72.6628 159.928 72.1453 159.705 71.6862C159.481 71.2272 159.162 70.8693 158.746 70.6125C158.342 70.3558 157.872 70.227 157.339 70.226C156.806 70.2251 156.331 70.3523 155.914 70.6075C155.509 70.8628 155.193 71.2196 154.969 71.6779C154.744 72.1361 154.631 72.6533 154.63 73.2293C154.629 73.8053 154.74 74.3228 154.963 74.7819C155.186 75.2409 155.5 75.5988 155.905 75.8555C156.321 76.1123 156.795 76.2411 157.329 76.242ZM169.598 69.1757L169.583 77.3356L168.447 77.3336L168.273 76.2453C167.653 77.0336 166.783 77.4267 165.663 77.4247C164.692 77.423 163.914 77.123 163.329 76.5246C162.743 75.9262 162.451 74.9871 162.454 73.7071L162.462 69.1631L163.774 69.1654L163.766 73.6294C163.764 74.472 163.944 75.1177 164.306 75.5663C164.679 76.0043 165.206 76.2239 165.889 76.2251C166.636 76.2264 167.218 75.9608 167.634 75.4282C168.062 74.8956 168.277 74.1707 168.278 73.2533L168.286 69.1733L169.598 69.1757ZM172.08 74.652C172.101 75.1427 172.313 75.5431 172.718 75.8532C173.134 76.1632 173.667 76.3188 174.317 76.32C174.893 76.321 175.358 76.2098 175.71 75.9864C176.073 75.7524 176.255 75.4487 176.256 75.0754C176.256 74.7554 176.171 74.5099 176.001 74.339C175.831 74.168 175.607 74.0503 175.33 73.9858C175.063 73.9213 174.679 73.8566 174.178 73.7917C173.474 73.7052 172.898 73.5921 172.45 73.4527C172.003 73.3132 171.64 73.0939 171.364 72.7948C171.087 72.485 170.949 72.0634 170.95 71.53C170.951 71.05 171.085 70.6236 171.352 70.2508C171.63 69.8779 172.004 69.5906 172.474 69.3887C172.943 69.1762 173.472 69.0705 174.058 69.0715C175.018 69.0732 175.796 69.2986 176.393 69.7476C177 70.1967 177.335 70.8373 177.398 71.6694L176.086 71.6671C176.033 71.2403 175.826 70.888 175.464 70.61C175.101 70.332 174.648 70.1926 174.104 70.1916C173.55 70.1906 173.101 70.3072 172.76 70.5412C172.418 70.7646 172.247 71.063 172.246 71.4363C172.246 71.7137 172.325 71.9271 172.485 72.0768C172.645 72.2264 172.847 72.3281 173.092 72.3818C173.348 72.4356 173.732 72.495 174.244 72.5599C174.959 72.6464 175.545 72.7648 176.003 72.915C176.473 73.0651 176.845 73.3058 177.122 73.6369C177.41 73.9681 177.553 74.4164 177.552 74.9817C177.551 75.4724 177.406 75.9041 177.118 76.2769C176.829 76.6498 176.439 76.9371 175.948 77.1389C175.457 77.3407 174.913 77.441 174.315 77.44C173.249 77.4381 172.391 77.1913 171.741 76.6994C171.102 76.2077 170.778 75.5244 170.768 74.6497L172.08 74.652ZM179.186 75.6726C179.57 75.6732 179.874 75.8338 180.097 76.1542C180.331 76.4639 180.448 76.8481 180.447 77.3068C180.446 77.9895 180.242 78.5224 179.836 78.9057C179.441 79.289 178.891 79.4907 178.187 79.5108L178.189 78.7588C178.658 78.749 178.999 78.6162 179.213 78.3606C179.427 78.105 179.534 77.8119 179.535 77.4812C179.535 77.3852 179.53 77.3158 179.519 77.2732C179.391 77.4009 179.209 77.4646 178.975 77.4642C178.729 77.4638 178.527 77.3887 178.367 77.2391C178.207 77.0895 178.128 76.876 178.128 76.5987C178.129 76.332 178.22 76.1135 178.401 75.9432C178.594 75.7622 178.855 75.672 179.186 75.6726ZM193.069 76.1771L193.067 77.3771L192.347 77.3758C191.825 77.3749 191.452 77.2675 191.228 77.0538C191.004 76.8401 190.888 76.5252 190.878 76.1092C190.247 77.0147 189.334 77.4665 188.139 77.4644C187.233 77.4628 186.502 77.2481 185.948 76.8205C185.405 76.3929 185.134 75.8111 185.135 75.0751C185.137 74.2537 185.415 73.6249 185.971 73.1885C186.537 72.7522 187.353 72.535 188.42 72.5368L190.82 72.5411L190.821 71.9811C190.822 71.4477 190.641 71.0314 190.279 70.7321C189.928 70.4328 189.432 70.2826 188.792 70.2815C188.227 70.2805 187.757 70.4077 187.383 70.663C187.02 70.9077 186.795 71.238 186.709 71.6538L185.397 71.6515C185.495 70.8517 185.848 70.2283 186.457 69.7814C187.076 69.3345 187.877 69.1119 188.858 69.1136C189.903 69.1155 190.708 69.3729 191.273 69.8859C191.848 70.3882 192.134 71.1141 192.133 72.0634L192.127 75.5834C192.126 75.9781 192.307 76.1757 192.669 76.1763L193.069 76.1771ZM190.818 73.6451L188.29 73.6406C187.074 73.6385 186.465 74.0907 186.464 74.9974C186.463 75.4027 186.622 75.7284 186.942 75.9742C187.261 76.2201 187.693 76.3436 188.237 76.3445C189.037 76.3459 189.667 76.1391 190.126 75.7239C190.586 75.298 190.816 74.7384 190.817 74.0451L190.818 73.6451ZM197.771 69.1293C198.763 69.1311 199.557 69.4311 200.153 70.0295C200.76 70.6279 201.062 71.5671 201.06 72.8471L201.052 77.3911L199.74 77.3888L199.748 72.9248C199.749 72.0822 199.558 71.4418 199.175 71.0038C198.803 70.5552 198.259 70.3302 197.544 70.3289C196.776 70.3276 196.173 70.5932 195.735 71.1257C195.297 71.6583 195.077 72.3833 195.075 73.3006L195.068 77.3806L193.756 77.3783L193.77 69.2183L194.906 69.2203L195.08 70.3246C195.7 69.5257 196.597 69.1273 197.771 69.1293ZM210.168 66.2072L210.149 77.4072L209.013 77.4052L208.839 76.0929C208.155 77.0303 207.221 77.498 206.037 77.4959C205.279 77.4946 204.602 77.3281 204.005 76.9963C203.419 76.6646 202.956 76.1838 202.616 75.5539C202.286 74.924 202.122 74.177 202.124 73.313C202.125 72.4917 202.292 71.7666 202.624 71.1379C202.966 70.5092 203.436 70.0193 204.034 69.6684C204.632 69.3174 205.305 69.1426 206.051 69.1439C206.713 69.1451 207.278 69.2688 207.747 69.5149C208.216 69.7504 208.583 70.0764 208.849 70.4929L208.856 66.2049L210.168 66.2072ZM206.167 76.3281C206.689 76.3291 207.153 76.2072 207.559 75.9626C207.976 75.7073 208.296 75.3559 208.521 74.9083C208.746 74.45 208.859 73.9329 208.86 73.3569C208.861 72.7702 208.75 72.2474 208.527 71.7883C208.303 71.3186 207.984 70.9553 207.569 70.6986C207.164 70.4419 206.7 70.3131 206.177 70.3122C205.367 70.3107 204.71 70.5922 204.208 71.1567C203.716 71.7105 203.469 72.43 203.468 73.3154C203.466 74.2007 203.71 74.9265 204.2 75.4927C204.7 76.0482 205.356 76.3267 206.167 76.3281ZM216.512 74.7304C216.533 75.2211 216.745 75.6215 217.15 75.9315C217.566 76.2416 218.099 76.3972 218.749 76.3983C219.325 76.3993 219.789 76.2882 220.142 76.0648C220.505 75.8308 220.687 75.5271 220.687 75.1537C220.688 74.8337 220.603 74.5883 220.433 74.4173C220.262 74.2463 220.039 74.1286 219.761 74.0641C219.495 73.9996 219.111 73.935 218.61 73.8701C217.906 73.7835 217.33 73.6705 216.882 73.531C216.435 73.3916 216.072 73.1723 215.795 72.8731C215.519 72.5633 215.381 72.1417 215.382 71.6084C215.383 71.1284 215.517 70.702 215.784 70.3291C216.062 69.9562 216.436 69.6689 216.905 69.4671C217.375 69.2546 217.903 69.1488 218.49 69.1499C219.45 69.1516 220.228 69.3769 220.825 69.826C221.432 70.2751 221.767 70.9156 221.829 71.7478L220.517 71.7454C220.465 71.3187 220.257 70.9663 219.895 70.6883C219.533 70.4104 219.08 70.2709 218.536 70.2699C217.981 70.269 217.533 70.3855 217.191 70.6196C216.85 70.843 216.679 71.1413 216.678 71.5147C216.677 71.792 216.757 72.0055 216.917 72.1551C217.076 72.3047 217.279 72.4064 217.524 72.4602C217.78 72.5139 218.164 72.5733 218.676 72.6382C219.39 72.7248 219.977 72.8432 220.435 72.9933C220.904 73.1435 221.277 73.3841 221.554 73.7153C221.841 74.0464 221.985 74.4947 221.984 75.06C221.983 75.5507 221.838 75.9824 221.549 76.3553C221.261 76.7281 220.871 77.0154 220.38 77.2172C219.889 77.419 219.345 77.5194 218.747 77.5183C217.681 77.5164 216.822 77.2696 216.173 76.7778C215.533 76.286 215.209 75.6028 215.2 74.7281L216.512 74.7304ZM222.867 73.3496C222.868 72.5176 223.03 71.7872 223.351 71.1584C223.683 70.5297 224.142 70.0452 224.729 69.7049C225.317 69.3539 225.989 69.1791 226.746 69.1804C227.493 69.1817 228.154 69.3376 228.73 69.6479C229.305 69.9583 229.758 70.4071 230.087 70.9943C230.417 71.5816 230.592 72.2699 230.612 73.0592C230.611 73.1766 230.6 73.3632 230.579 73.6192L224.243 73.608L224.242 73.72C224.262 74.52 224.506 75.1605 224.975 75.6413C225.443 76.1221 226.056 76.3632 226.814 76.3646C227.4 76.3656 227.897 76.2225 228.302 75.9352C228.719 75.6372 228.997 75.2271 229.137 74.7046L230.465 74.707C230.303 75.5387 229.902 76.2207 229.261 76.7529C228.62 77.2744 227.836 77.5344 226.908 77.5327C226.097 77.5313 225.388 77.3594 224.781 77.017C224.173 76.6639 223.699 76.1724 223.359 75.5425C223.03 74.9019 222.866 74.1709 222.867 73.3496ZM229.252 72.5288C229.19 71.8354 228.929 71.2963 228.471 70.9115C228.024 70.5267 227.454 70.3337 226.76 70.3324C226.142 70.3314 225.597 70.5331 225.127 70.9376C224.657 71.3421 224.39 71.8696 224.324 72.5202L229.252 72.5288ZM235.939 69.2926L235.937 70.5726L235.281 70.5715C234.502 70.5701 233.942 70.8304 233.6 71.3525C233.268 71.8746 233.102 72.5196 233.1 73.2876L233.093 77.4476L231.781 77.4453L231.795 69.2853L232.931 69.2873L233.105 70.5196C233.34 70.1467 233.645 69.8486 234.019 69.6252C234.392 69.4019 234.91 69.2908 235.571 69.292L235.939 69.2926ZM236.081 69.2929L237.489 69.2954L239.941 75.9717L242.401 69.304L243.777 69.3064L240.707 77.461L239.123 77.4583L236.081 69.2929ZM245.098 66.1568C245.343 66.1572 245.546 66.2376 245.706 66.3978C245.865 66.5581 245.945 66.7609 245.945 67.0063C245.944 67.2516 245.864 67.4541 245.704 67.6138C245.543 67.7736 245.34 67.8532 245.095 67.8528C244.85 67.8523 244.647 67.772 244.488 67.6117C244.328 67.4514 244.248 67.2486 244.249 67.0033C244.249 66.7579 244.329 66.5554 244.49 66.3957C244.65 66.236 244.853 66.1563 245.098 66.1568ZM244.437 69.3076L245.749 69.3099L245.734 77.4699L244.422 77.4676L244.437 69.3076ZM254.496 74.6694C254.324 75.5757 253.923 76.2897 253.293 76.8112C252.662 77.3221 251.862 77.5767 250.891 77.575C250.102 77.5736 249.409 77.3964 248.812 77.0433C248.216 76.6903 247.752 76.1988 247.423 75.5689C247.093 74.9283 246.929 74.1973 246.931 73.376C246.932 72.5547 247.099 71.8296 247.431 71.2009C247.773 70.5722 248.249 70.0877 248.857 69.7474C249.466 69.3965 250.165 69.2217 250.954 69.2231C251.914 69.2248 252.703 69.4822 253.321 69.9953C253.949 70.5084 254.343 71.2131 254.501 72.1094L253.173 72.107C253.046 71.5841 252.78 71.1677 252.375 70.8576C251.97 70.5476 251.48 70.392 250.904 70.391C250.125 70.3896 249.49 70.6659 248.999 71.2197C248.518 71.7735 248.276 72.4931 248.275 73.3784C248.273 74.2744 248.512 75.0055 248.991 75.5717C249.481 76.1272 250.115 76.4056 250.893 76.407C251.491 76.4081 251.992 76.2543 252.398 75.9457C252.804 75.637 253.066 75.2108 253.184 74.667L254.496 74.6694ZM255.236 73.4067C255.237 72.5747 255.398 71.8443 255.72 71.2155C256.051 70.5868 256.511 70.1022 257.098 69.7619C257.685 69.411 258.358 69.2362 259.115 69.2375C259.862 69.2388 260.523 69.3946 261.098 69.705C261.674 70.0153 262.126 70.4641 262.456 71.0514C262.785 71.6386 262.96 72.3269 262.98 73.1163C262.98 73.2336 262.969 73.4203 262.947 73.6763L256.611 73.6651L256.611 73.7771C256.631 74.5771 256.875 75.2176 257.344 75.6984C257.812 76.1792 258.425 76.4203 259.182 76.4216C259.769 76.4227 260.265 76.2795 260.671 75.9922C261.088 75.6943 261.366 75.2841 261.505 74.7617L262.833 74.7641C262.672 75.5958 262.271 76.2777 261.63 76.8099C260.989 77.3315 260.204 77.5914 259.276 77.5898C258.466 77.5884 257.757 77.4164 257.149 77.074C256.542 76.721 256.068 76.2295 255.728 75.5995C255.398 74.9589 255.234 74.228 255.236 73.4067ZM261.621 72.5859C261.558 71.8925 261.298 71.3533 260.84 70.9685C260.393 70.5837 259.822 70.3907 259.129 70.3895C258.51 70.3884 257.966 70.5901 257.496 70.9946C257.026 71.3991 256.758 71.9267 256.693 72.5772L261.621 72.5859ZM268.693 66.1984C268.938 66.1988 269.141 66.2792 269.301 66.4394C269.46 66.5997 269.54 66.8025 269.54 67.0479C269.539 67.2932 269.459 67.4957 269.298 67.6554C269.138 67.8152 268.935 67.8948 268.69 67.8944C268.445 67.8939 268.242 67.8136 268.082 67.6533C267.923 67.493 267.843 67.2902 267.844 67.0449C267.844 66.7995 267.924 66.597 268.085 66.4373C268.245 66.2776 268.448 66.1979 268.693 66.1984ZM268.031 69.3492L269.343 69.3515L269.329 77.5115L268.017 77.5092L268.031 69.3492ZM271.835 74.8279C271.856 75.3186 272.068 75.719 272.473 76.0291C272.889 76.3391 273.422 76.4947 274.072 76.4959C274.648 76.4969 275.112 76.3857 275.465 76.1623C275.828 75.9283 276.01 75.6246 276.01 75.2513C276.011 74.9313 275.926 74.6858 275.756 74.5148C275.585 74.3439 275.362 74.2261 275.084 74.1617C274.818 74.0972 274.434 74.0325 273.933 73.9676C273.229 73.8811 272.653 73.768 272.205 73.6286C271.758 73.4891 271.395 73.2698 271.118 72.9707C270.842 72.6608 270.704 72.2393 270.705 71.7059C270.706 71.2259 270.84 70.7995 271.107 70.4266C271.385 70.0538 271.759 69.7665 272.228 69.5646C272.698 69.3521 273.226 69.2464 273.813 69.2474C274.773 69.2491 275.551 69.4745 276.148 69.9235C276.755 70.3726 277.09 71.0132 277.152 71.8453L275.84 71.843C275.788 71.4162 275.581 71.0639 275.218 70.7859C274.856 70.5079 274.403 70.3685 273.859 70.3675C273.304 70.3665 272.856 70.4831 272.514 70.7171C272.173 70.9405 272.002 71.2389 272.001 71.6122C272 71.8895 272.08 72.103 272.24 72.2526C272.399 72.4023 272.602 72.5039 272.847 72.5577C273.103 72.6115 273.487 72.6708 273.999 72.7357C274.713 72.8223 275.3 72.9407 275.758 73.0908C276.227 73.241 276.6 73.4817 276.877 73.8128C277.164 74.144 277.308 74.5922 277.307 75.1576C277.306 75.6482 277.161 76.08 276.872 76.4528C276.584 76.8256 276.194 77.113 275.703 77.3148C275.212 77.5166 274.668 77.6169 274.07 77.6159C273.004 77.614 272.145 77.3671 271.496 76.8753C270.856 76.3835 270.532 75.7003 270.523 74.8256L271.835 74.8279ZM36.7894 94.9415L36.7694 106.302L35.4574 106.299L35.4653 101.787C34.781 102.725 33.8468 103.192 32.6628 103.19C31.9055 103.189 31.2285 103.022 30.6317 102.691C30.0456 102.359 29.5825 101.878 29.2423 101.248C28.9127 100.618 28.7487 99.8714 28.7502 99.0074C28.7517 98.186 28.9183 97.461 29.25 96.8322C29.5925 96.2035 30.0627 95.7137 30.6606 95.3627C31.2586 95.0118 31.9309 94.837 32.6776 94.8383C33.3389 94.8394 33.904 94.9631 34.3729 95.2093C34.8418 95.4448 35.2093 95.7707 35.4752 96.1872L35.6534 94.9395L36.7894 94.9415ZM32.7929 102.022C33.3156 102.023 33.7798 101.902 34.1855 101.657C34.602 101.402 34.9226 101.05 35.1474 100.603C35.3722 100.144 35.4851 99.6272 35.4861 99.0512C35.4872 98.4646 35.3761 97.9417 35.1529 97.4826C34.9297 97.0129 34.6104 96.6497 34.1948 96.393C33.7899 96.1362 33.3262 96.0074 32.8035 96.0065C31.9928 96.0051 31.3363 96.2866 30.834 96.851C30.3424 97.4048 30.0958 98.1244 30.0942 99.0097C30.0926 99.8951 30.3367 100.621 30.8264 101.187C31.3267 101.743 31.9822 102.021 32.7929 102.022ZM45.2806 94.9565L45.2662 103.116L44.1302 103.114L43.9562 102.026C43.3361 102.814 42.4661 103.208 41.3461 103.206C40.3754 103.204 39.5973 102.904 39.0117 102.305C38.426 101.707 38.1344 100.768 38.1366 99.4879L38.1446 94.9439L39.4566 94.9462L39.4488 99.4102C39.4473 100.253 39.6275 100.899 39.9893 101.347C40.3619 101.785 40.8895 102.005 41.5722 102.006C42.3189 102.007 42.9007 101.742 43.3176 101.209C43.7452 100.676 43.9598 99.9515 43.9614 99.0342L43.9686 94.9542L45.2806 94.9565ZM47.4107 91.8083C47.656 91.8087 47.8585 91.889 48.0183 92.0493C48.178 92.2096 48.2576 92.4124 48.2572 92.6577C48.2567 92.9031 48.1764 93.1056 48.0161 93.2653C47.8558 93.425 47.653 93.5047 47.4077 93.5042C47.1624 93.5038 46.9598 93.4235 46.8001 93.2632C46.6404 93.1029 46.5608 92.9001 46.5612 92.6548C46.5616 92.4094 46.642 92.2069 46.8023 92.0472C46.9625 91.8875 47.1653 91.8078 47.4107 91.8083ZM46.7491 94.9591L48.0611 94.9614L48.0467 103.121L46.7347 103.119L46.7491 94.9591ZM56.8091 100.321C56.6368 101.227 56.2355 101.941 55.6053 102.463C54.975 102.974 54.1746 103.228 53.2039 103.226C52.4146 103.225 51.7216 103.048 51.1249 102.695C50.5282 102.342 50.065 101.85 49.7355 101.22C49.4059 100.58 49.2419 99.8488 49.2433 99.0275C49.2448 98.2062 49.4114 97.4811 49.7432 96.8524C50.0856 96.2236 50.5611 95.7391 51.1697 95.3989C51.7783 95.048 52.4773 94.8732 53.2667 94.8746C54.2267 94.8763 55.0155 95.1337 55.6333 95.6468C56.2617 96.1599 56.6552 96.8646 56.8136 97.7608L55.4856 97.7585C55.3585 97.2356 55.0926 96.8191 54.6878 96.5091C54.283 96.199 53.7926 96.0435 53.2166 96.0425C52.4379 96.0411 51.8028 96.3173 51.3111 96.8711C50.8302 97.425 50.5889 98.1445 50.5873 99.0299C50.5857 99.9259 50.8245 100.657 51.3035 101.223C51.7931 101.779 52.4273 102.057 53.206 102.058C53.8033 102.06 54.3049 101.906 54.7108 101.597C55.1167 101.289 55.3788 100.862 55.4971 100.319L56.8091 100.321ZM58.0207 91.939L59.3327 91.9413L59.3196 99.3653L63.4713 94.9886L65.0393 94.9913L61.8975 98.3298L65.249 103.152L63.665 103.149L60.9518 99.2721L59.3168 100.981L59.313 103.141L58.001 103.139L58.0207 91.939ZM65.788 102.353C65.7885 102.086 65.8742 101.873 66.0451 101.713C66.2161 101.543 66.4349 101.458 66.7016 101.458C66.9682 101.459 67.1868 101.544 67.3571 101.715C67.5275 101.876 67.6125 102.089 67.612 102.356C67.6115 102.623 67.5258 102.841 67.3548 103.011C67.1839 103.171 66.9651 103.251 66.6984 103.25C66.4317 103.25 66.2132 103.169 66.0428 103.009C65.8725 102.838 65.7875 102.619 65.788 102.353ZM77.3067 91.973C78.0427 91.9743 78.6931 92.1194 79.2579 92.4084C79.8228 92.6867 80.2541 93.0875 80.5518 93.6107C80.8602 94.1232 81.0138 94.7262 81.0126 95.4195C81.0114 96.1128 80.8557 96.7206 80.5454 97.2427C80.2351 97.7648 79.7971 98.1694 79.2313 98.4564C78.6761 98.7327 78.0305 98.8703 77.2945 98.869L74.3825 98.8638L74.3749 103.168L72.9829 103.165L73.0027 91.9654L77.3067 91.973ZM74.3848 97.5838L77.1688 97.5887C77.9048 97.59 78.4918 97.3937 78.9298 96.9998C79.3679 96.6059 79.5874 96.0783 79.5886 95.417C79.5898 94.7557 79.372 94.2326 78.9354 93.8478C78.5094 93.4524 77.9284 93.2541 77.1924 93.2528L74.3924 93.2478L74.3848 97.5838ZM81.2682 99.1C81.2697 98.268 81.431 97.5376 81.7521 96.9088C82.0839 96.2801 82.5434 95.7955 83.1307 95.4552C83.718 95.1043 84.3903 94.9295 85.1476 94.9308C85.8943 94.9321 86.5553 95.0879 87.1308 95.3983C87.7062 95.7086 88.1588 96.1574 88.4884 96.7447C88.818 97.3319 88.9928 98.0202 89.0128 98.8096C89.0126 98.9269 89.0016 99.1136 88.9798 99.3696L82.6438 99.3584L82.6436 99.4704C82.6635 100.27 82.9077 100.911 83.3762 101.392C83.8447 101.873 84.4576 102.114 85.2149 102.115C85.8016 102.116 86.2979 101.973 86.7037 101.686C87.1202 101.388 87.3983 100.977 87.5379 100.455L88.8659 100.457C88.7044 101.289 88.3032 101.971 87.6623 102.503C87.0213 103.025 86.2369 103.285 85.3089 103.283C84.4982 103.282 83.7892 103.11 83.1818 102.767C82.5744 102.414 82.1006 101.923 81.7604 101.293C81.4308 100.652 81.2668 99.9213 81.2682 99.1ZM87.6537 98.2792C87.5909 97.5858 87.3305 97.0466 86.8726 96.6618C86.4252 96.277 85.8549 96.084 85.1616 96.0828C84.5429 96.0817 83.9986 96.2834 83.5285 96.6879C83.0585 97.0924 82.7909 97.62 82.7257 98.2705L87.6537 98.2792ZM94.3405 95.043L94.3383 96.323L93.6823 96.3218C92.9036 96.3205 92.3432 96.5808 92.0009 97.1029C91.6693 97.625 91.5029 98.27 91.5015 99.038L91.4942 103.198L90.1822 103.196L90.1966 95.0357L91.3326 95.0377L91.5064 96.27C91.7417 95.8971 92.0462 95.599 92.42 95.3756C92.7937 95.1523 93.3112 95.0412 93.9725 95.0424L94.3405 95.043ZM95.2219 94.1326C95.2232 93.4072 95.3895 92.8742 95.7207 92.5334C96.0627 92.182 96.607 92.007 97.3537 92.0083L98.8577 92.011L98.8555 93.211L97.4315 93.2085C97.1115 93.2079 96.8821 93.2768 96.7432 93.4152C96.6043 93.5537 96.5345 93.7829 96.534 94.1029L96.5323 95.0469L98.8363 95.0509L98.8342 96.2509L96.5302 96.2469L96.5179 103.207L95.2059 103.205L95.2219 94.1326ZM98.7301 99.1307C98.7316 98.2988 98.8929 97.5684 99.214 96.9396C99.5457 96.3108 100.005 95.8263 100.593 95.486C101.18 95.1351 101.852 94.9602 102.609 94.9616C103.356 94.9629 104.017 95.1187 104.593 95.4291C105.168 95.7394 105.621 96.1882 105.95 96.7755C106.28 97.3627 106.455 98.051 106.475 98.8404C106.474 98.9577 106.463 99.1444 106.442 99.4003L100.106 99.3892L100.105 99.5012C100.125 100.301 100.37 100.942 100.838 101.422C101.307 101.903 101.919 102.144 102.677 102.146C103.263 102.147 103.76 102.004 104.166 101.716C104.582 101.418 104.86 101.008 105 100.486L106.328 100.488C106.166 101.32 105.765 102.002 105.124 102.534C104.483 103.056 103.699 103.316 102.771 103.314C101.96 103.312 101.251 103.141 100.644 102.798C100.036 102.445 99.5625 101.954 99.2222 101.324C98.8927 100.683 98.7287 99.9521 98.7301 99.1307ZM105.116 98.31C105.053 97.6166 104.792 97.0774 104.334 96.6926C103.887 96.3078 103.317 96.1148 102.623 96.1136C102.005 96.1125 101.46 96.3142 100.99 96.7187C100.52 97.1232 100.253 97.6508 100.188 98.3013L105.116 98.31ZM114.929 100.423C114.757 101.33 114.355 102.044 113.725 102.565C113.095 103.076 112.295 103.331 111.324 103.329C110.535 103.328 109.841 103.15 109.245 102.797C108.648 102.444 108.185 101.953 107.855 101.323C107.526 100.682 107.362 99.9513 107.363 99.13C107.365 98.3086 107.531 97.5836 107.863 96.9548C108.206 96.3261 108.681 95.8416 109.29 95.5014C109.898 95.1504 110.597 94.9757 111.387 94.9771C112.347 94.9788 113.135 95.2361 113.753 95.7492C114.382 96.2623 114.775 96.967 114.933 97.8633L113.605 97.861C113.478 97.3381 113.212 96.9216 112.808 96.6116C112.403 96.3015 111.913 96.146 111.337 96.145C110.558 96.1436 109.923 96.4198 109.431 96.9736C108.95 97.5274 108.709 98.247 108.707 99.1323C108.706 100.028 108.944 100.759 109.423 101.326C109.913 101.881 110.547 102.16 111.326 102.161C111.923 102.162 112.425 102.008 112.831 101.7C113.237 101.391 113.499 100.965 113.617 100.421L114.929 100.423ZM116.677 96.2824L115.205 96.2798L115.207 95.0798L116.679 95.0824L116.683 92.7944L117.995 92.7967L117.991 95.0847L120.055 95.0883L120.053 96.2883L117.989 96.2847L117.981 101.101C117.98 101.442 118.044 101.687 118.171 101.837C118.31 101.976 118.544 102.046 118.875 102.046L120.299 102.049L120.297 103.249L118.793 103.246C118.025 103.245 117.476 103.073 117.146 102.731C116.826 102.389 116.667 101.85 116.669 101.114L116.677 96.2824ZM125.806 100.57C125.827 101.061 126.04 101.462 126.444 101.772C126.86 102.082 127.393 102.237 128.044 102.238C128.62 102.239 129.084 102.128 129.436 101.905C129.799 101.671 129.981 101.367 129.982 100.994C129.982 100.674 129.897 100.428 129.727 100.257C129.557 100.086 129.333 99.9687 129.056 99.9042C128.789 99.8398 128.405 99.7751 127.904 99.7102C127.2 99.6236 126.624 99.5106 126.177 99.3711C125.729 99.2317 125.367 99.0124 125.09 98.7132C124.813 98.4034 124.675 97.9818 124.676 97.4485C124.677 96.9685 124.811 96.5421 125.078 96.1692C125.356 95.7964 125.73 95.509 126.2 95.3072C126.669 95.0947 127.198 94.9889 127.784 94.99C128.744 94.9917 129.523 95.217 130.119 95.6661C130.726 96.1152 131.061 96.7558 131.124 97.5879L129.812 97.5855C129.759 97.1588 129.552 96.8064 129.19 96.5285C128.827 96.2505 128.374 96.111 127.83 96.1101C127.276 96.1091 126.827 96.2256 126.486 96.4597C126.144 96.6831 125.973 96.9814 125.972 97.3548C125.972 97.6321 126.051 97.8456 126.211 97.9952C126.371 98.1448 126.573 98.2465 126.818 98.3003C127.074 98.3541 127.458 98.4134 127.97 98.4783C128.685 98.5649 129.271 98.6833 129.73 98.8334C130.199 98.9836 130.572 99.2242 130.848 99.5554C131.136 99.8866 131.279 100.335 131.278 100.9C131.277 101.391 131.132 101.823 130.844 102.195C130.555 102.568 130.165 102.856 129.674 103.057C129.183 103.259 128.639 103.359 128.042 103.358C126.975 103.357 126.117 103.11 125.467 102.618C124.828 102.126 124.504 101.443 124.494 100.568L125.806 100.57ZM136.569 95.0215C137.326 95.0228 137.998 95.1893 138.584 95.521C139.181 95.8527 139.644 96.3335 139.973 96.9635C140.313 97.5934 140.483 98.3404 140.481 99.2044C140.48 100.026 140.308 100.751 139.965 101.379C139.634 102.008 139.169 102.498 138.571 102.849C137.973 103.2 137.301 103.375 136.554 103.373C135.893 103.372 135.327 103.254 134.859 103.018C134.39 102.772 134.022 102.441 133.756 102.025L133.748 106.473L132.436 106.47L132.456 95.1102L133.592 95.1122L133.766 96.4245C134.45 95.4871 135.385 95.0194 136.569 95.0215ZM136.428 102.205C137.239 102.207 137.89 101.93 138.381 101.377C138.884 100.812 139.136 100.087 139.137 99.202C139.139 98.3167 138.889 97.5962 138.389 97.0407C137.899 96.4745 137.249 96.1907 136.439 96.1892C135.916 96.1883 135.446 96.3155 135.03 96.5707C134.624 96.8154 134.309 97.1668 134.084 97.6251C133.859 98.0727 133.746 98.5845 133.745 99.1605C133.744 99.7472 133.855 100.275 134.079 100.745C134.302 101.204 134.616 101.562 135.021 101.819C135.436 102.075 135.905 102.204 136.428 102.205ZM145.413 103.389C144.624 103.388 143.92 103.21 143.302 102.857C142.695 102.504 142.221 102.013 141.881 101.383C141.54 100.753 141.371 100.027 141.373 99.2059C141.374 98.3846 141.546 97.6596 141.888 97.0308C142.231 96.4021 142.706 95.9123 143.315 95.5614C143.934 95.2104 144.639 95.0357 145.428 95.0371C146.217 95.0385 146.916 95.2157 147.523 95.5688C148.141 95.9219 148.62 96.4134 148.96 97.0433C149.301 97.6732 149.47 98.3989 149.469 99.2202C149.467 100.042 149.295 100.767 148.953 101.395C148.61 102.024 148.129 102.514 147.51 102.865C146.901 103.216 146.202 103.39 145.413 103.389ZM145.415 102.221C145.949 102.222 146.418 102.095 146.824 101.84C147.24 101.584 147.561 101.228 147.786 100.769C148.011 100.311 148.124 99.7938 148.125 99.2178C148.126 98.6418 148.014 98.1243 147.791 97.6653C147.568 97.2062 147.249 96.8483 146.833 96.5916C146.428 96.3348 145.959 96.206 145.426 96.2051C144.892 96.2041 144.418 96.3313 144.001 96.5866C143.595 96.8419 143.28 97.1986 143.055 97.6569C142.83 98.1152 142.718 98.6323 142.717 99.2083C142.716 99.7843 142.827 100.302 143.05 100.761C143.273 101.22 143.587 101.578 143.992 101.835C144.407 102.091 144.882 102.22 145.415 102.221ZM151.108 96.3431L149.636 96.3405L149.638 95.1405L151.11 95.1431L151.114 92.8551L152.426 92.8574L152.422 95.1454L154.486 95.1491L154.484 96.3491L152.42 96.3454L152.412 101.161C152.411 101.503 152.475 101.748 152.603 101.898C152.741 102.037 152.976 102.106 153.306 102.107L154.73 102.109L154.728 103.309L153.224 103.307C152.456 103.305 151.907 103.134 151.577 102.792C151.258 102.45 151.099 101.911 151.1 101.175L151.108 96.3431ZM159.767 95.1584L159.769 94.2464C159.77 93.521 159.936 92.988 160.268 92.6472C160.61 92.2958 161.154 92.1208 161.901 92.1221L163.405 92.1248L163.403 93.3248L161.979 93.3223C161.659 93.3217 161.429 93.3906 161.29 93.529C161.151 93.6675 161.082 93.8967 161.081 94.2167L161.079 95.1607L163.383 95.1647L163.381 96.3647L161.077 96.3607L161.065 103.321L159.753 103.318L159.765 96.3584L158.293 96.3558L158.295 95.1558L159.767 95.1584ZM167.321 103.428C166.531 103.426 165.828 103.249 165.21 102.896C164.602 102.543 164.128 102.051 163.788 101.421C163.448 100.792 163.279 100.066 163.28 99.2446C163.281 98.4232 163.453 97.6982 163.796 97.0695C164.138 96.4407 164.614 95.9509 165.222 95.6C165.842 95.2491 166.546 95.0743 167.335 95.0757C168.125 95.0771 168.823 95.2543 169.43 95.6074C170.048 95.9605 170.528 96.452 170.868 97.0819C171.208 97.7119 171.377 98.4375 171.376 99.2588C171.375 100.08 171.203 100.805 170.86 101.434C170.518 102.063 170.037 102.552 169.418 102.903C168.809 103.254 168.11 103.429 167.321 103.428ZM167.323 102.26C167.856 102.261 168.326 102.133 168.731 101.878C169.148 101.623 169.468 101.266 169.693 100.808C169.918 100.35 170.031 99.8325 170.032 99.2565C170.033 98.6805 169.922 98.1629 169.699 97.7039C169.476 97.2448 169.156 96.8869 168.741 96.6302C168.336 96.3735 167.867 96.2446 167.333 96.2437C166.8 96.2428 166.325 96.3699 165.909 96.6252C165.503 96.8805 165.188 97.2373 164.963 97.6955C164.738 98.1538 164.625 98.6709 164.624 99.2469C164.623 99.8229 164.734 100.34 164.957 100.8C165.18 101.259 165.494 101.616 165.899 101.873C166.315 102.13 166.789 102.259 167.323 102.26ZM176.712 95.1882L176.709 96.4682L176.053 96.4671C175.275 96.4657 174.714 96.7261 174.372 97.2481C174.04 97.7702 173.874 98.4152 173.873 99.1832L173.865 103.343L172.553 103.341L172.568 95.1809L173.704 95.1829L173.878 96.4152C174.113 96.0423 174.417 95.7442 174.791 95.5209C175.165 95.2975 175.682 95.1864 176.344 95.1876L176.712 95.1882ZM189.079 102.17L189.077 103.37L188.357 103.369C187.834 103.368 187.461 103.261 187.237 103.047C187.013 102.833 186.897 102.518 186.887 102.102C186.256 103.008 185.343 103.459 184.148 103.457C183.242 103.456 182.511 103.241 181.957 102.814C181.414 102.386 181.143 101.804 181.145 101.068C181.146 100.247 181.424 99.6179 181.98 99.1815C182.546 98.7452 183.362 98.528 184.429 98.5299L186.829 98.5341L186.83 97.9741C186.831 97.4408 186.65 97.0244 186.288 96.7251C185.937 96.4258 185.441 96.2756 184.801 96.2745C184.236 96.2735 183.766 96.4007 183.392 96.656C183.029 96.9007 182.805 97.231 182.719 97.6468L181.407 97.6445C181.504 96.8447 181.857 96.2213 182.466 95.7744C183.085 95.3275 183.886 95.1049 184.867 95.1066C185.912 95.1085 186.717 95.3659 187.282 95.8789C187.857 96.3812 188.144 97.1071 188.142 98.0564L188.136 101.576C188.135 101.971 188.316 102.169 188.679 102.169L189.079 102.17ZM186.827 99.6381L184.299 99.6336C183.083 99.6315 182.474 100.084 182.473 100.99C182.472 101.396 182.631 101.721 182.951 101.967C183.271 102.213 183.702 102.337 184.246 102.338C185.046 102.339 185.676 102.132 186.135 101.717C186.595 101.291 186.825 100.731 186.826 100.038L186.827 99.6381ZM194.189 96.4191L192.717 96.4165L192.719 95.2165L194.191 95.2191L194.195 92.9311L195.507 92.9334L195.503 95.2214L197.567 95.225L197.565 96.425L195.501 96.4214L195.492 101.237C195.492 101.579 195.555 101.824 195.683 101.974C195.822 102.113 196.056 102.182 196.387 102.183L197.811 102.185L197.809 103.385L196.305 103.383C195.537 103.381 194.988 103.21 194.658 102.868C194.338 102.526 194.179 101.987 194.18 101.251L194.189 96.4191ZM205.931 102.2L205.929 103.4L205.209 103.398C204.686 103.398 204.313 103.29 204.09 103.077C203.866 102.863 203.749 102.548 203.739 102.132C203.108 103.037 202.195 103.489 201.001 103.487C200.094 103.485 199.364 103.271 198.81 102.843C198.267 102.416 197.996 101.834 197.997 101.098C197.998 100.276 198.277 99.6476 198.832 99.2112C199.398 98.7749 200.215 98.5577 201.282 98.5596L203.682 98.5638L203.682 98.0038C203.683 97.4705 203.503 97.0541 203.141 96.7548C202.789 96.4556 202.293 96.3053 201.653 96.3042C201.088 96.3032 200.619 96.4304 200.245 96.6857C199.882 96.9304 199.657 97.2607 199.571 97.6765L198.259 97.6742C198.356 96.8744 198.71 96.251 199.318 95.8041C199.938 95.3572 200.738 95.1346 201.72 95.1363C202.765 95.1382 203.57 95.3956 204.134 95.9086C204.709 96.4109 204.996 97.1368 204.994 98.0861L204.988 101.606C204.987 102.001 205.168 102.198 205.531 102.199L205.931 102.2ZM203.68 99.6678L201.152 99.6633C199.936 99.6612 199.327 100.113 199.325 101.02C199.324 101.425 199.484 101.751 199.803 101.997C200.123 102.243 200.555 102.366 201.099 102.367C201.899 102.369 202.528 102.162 202.988 101.747C203.447 101.321 203.678 100.761 203.679 100.068L203.68 99.6678ZM207.646 100.715C207.667 101.205 207.879 101.606 208.284 101.916C208.7 102.226 209.233 102.382 209.883 102.383C210.459 102.384 210.924 102.273 211.276 102.049C211.639 101.815 211.821 101.511 211.822 101.138C211.822 100.818 211.737 100.573 211.567 100.402C211.397 100.231 211.173 100.113 210.896 100.049C210.629 99.9841 210.245 99.9194 209.744 99.8545C209.04 99.7679 208.464 99.6549 208.016 99.5154C207.569 99.376 207.206 99.1567 206.93 98.8575C206.653 98.5477 206.515 98.1261 206.516 97.5928C206.517 97.1128 206.651 96.6864 206.918 96.3135C207.196 95.9407 207.57 95.6533 208.04 95.4515C208.509 95.239 209.038 95.1332 209.624 95.1343C210.584 95.136 211.362 95.3613 211.959 95.8104C212.566 96.2595 212.901 96.9001 212.964 97.7322L211.652 97.7298C211.599 97.3031 211.392 96.9507 211.029 96.6728C210.667 96.3948 210.214 96.2553 209.67 96.2544C209.116 96.2534 208.667 96.3699 208.326 96.604C207.984 96.8274 207.813 97.1257 207.812 97.4991C207.812 97.7764 207.891 97.9899 208.051 98.1395C208.211 98.2891 208.413 98.3908 208.658 98.4446C208.914 98.4984 209.298 98.5577 209.81 98.6226C210.525 98.7092 211.111 98.8276 211.569 98.9777C212.038 99.1279 212.411 99.3685 212.688 99.6997C212.976 100.031 213.119 100.479 213.118 101.044C213.117 101.535 212.972 101.967 212.683 102.34C212.395 102.713 212.005 103 211.514 103.202C211.023 103.403 210.479 103.504 209.881 103.503C208.815 103.501 207.957 103.254 207.307 102.762C206.668 102.27 206.343 101.587 206.334 100.712L207.646 100.715ZM214.838 96.4555L213.366 96.4529L213.368 95.2529L214.84 95.2555L214.844 92.9675L216.156 92.9698L216.152 95.2578L218.216 95.2614L218.214 96.4614L216.15 96.4578L216.142 101.274C216.141 101.615 216.205 101.861 216.332 102.01C216.471 102.149 216.705 102.219 217.036 102.219L218.46 102.222L218.458 103.422L216.954 103.419C216.186 103.418 215.637 103.246 215.307 102.904C214.987 102.562 214.828 102.023 214.83 101.287L214.838 96.4555ZM219.662 95.264L222.162 101.924L224.606 95.2727L225.998 95.2751L222.221 104.804C222.028 105.295 221.857 105.663 221.707 105.908C221.557 106.153 221.37 106.334 221.146 106.451C220.922 106.568 220.623 106.626 220.25 106.625L218.682 106.622L218.684 105.422L219.852 105.424C220.108 105.425 220.3 105.398 220.428 105.345C220.556 105.292 220.658 105.202 220.732 105.074C220.818 104.957 220.92 104.754 221.037 104.466L221.455 103.491L218.27 95.2615L219.662 95.264ZM234.636 95.1944C235.393 95.1957 236.065 95.3622 236.651 95.6939C237.248 96.0256 237.711 96.5065 238.041 97.1364C238.381 97.7663 238.55 98.5133 238.549 99.3773C238.547 100.199 238.375 100.924 238.033 101.552C237.701 102.181 237.236 102.671 236.638 103.022C236.04 103.373 235.368 103.548 234.621 103.546C233.96 103.545 233.395 103.427 232.926 103.191C232.457 102.945 232.09 102.614 231.824 102.197L231.645 103.445L230.509 103.443L230.529 92.2431L231.841 92.2454L231.834 96.5974C232.518 95.66 233.452 95.1923 234.636 95.1944ZM234.495 102.378C235.306 102.38 235.957 102.103 236.449 101.55C236.951 100.985 237.203 100.26 237.205 99.3749C237.206 98.4896 236.957 97.7691 236.456 97.2136C235.967 96.6474 235.317 96.3636 234.506 96.3621C233.983 96.3612 233.514 96.4884 233.097 96.7437C232.691 96.9883 232.376 97.3397 232.151 97.798C231.927 98.2456 231.814 98.7574 231.813 99.3334C231.812 99.9201 231.923 100.448 232.146 100.918C232.369 101.377 232.683 101.735 233.088 101.992C233.504 102.248 233.973 102.377 234.495 102.378ZM240.397 92.1485C240.642 92.149 240.844 92.2293 241.004 92.3896C241.164 92.5499 241.244 92.7527 241.243 92.998C241.243 93.2434 241.162 93.4459 241.002 93.6056C240.842 93.7653 240.639 93.845 240.394 93.8445C240.148 93.8441 239.946 93.7637 239.786 93.6034C239.626 93.4432 239.547 93.2404 239.547 92.995C239.548 92.7497 239.628 92.5472 239.788 92.3875C239.948 92.2277 240.151 92.1481 240.397 92.1485ZM239.735 95.2994L241.047 95.3017L241.033 103.462L239.721 103.459L239.735 95.2994ZM243.066 96.5052L241.594 96.5026L241.596 95.3026L243.068 95.3052L243.072 93.0172L244.384 93.0196L244.38 95.3076L246.444 95.3112L246.442 96.5112L244.378 96.5076L244.37 101.324C244.369 101.665 244.433 101.91 244.561 102.06C244.699 102.199 244.933 102.269 245.264 102.269L246.688 102.272L246.686 103.472L245.182 103.469C244.414 103.468 243.865 103.296 243.535 102.954C243.216 102.612 243.057 102.073 243.058 101.337L243.066 96.5052ZM246.815 99.3919C246.817 98.5599 246.978 97.8295 247.299 97.2007C247.631 96.572 248.091 96.0874 248.678 95.7471C249.265 95.3962 249.938 95.2214 250.695 95.2227C251.442 95.224 252.103 95.3798 252.678 95.6902C253.253 96.0005 253.706 96.4493 254.036 97.0366C254.365 97.6238 254.54 98.3121 254.56 99.1015C254.56 99.2188 254.549 99.4055 254.527 99.6615L248.191 99.6503L248.191 99.7623C248.211 100.562 248.455 101.203 248.923 101.684C249.392 102.164 250.005 102.405 250.762 102.407C251.349 102.408 251.845 102.265 252.251 101.977C252.667 101.68 252.946 101.269 253.085 100.747L254.413 100.749C254.252 101.581 253.85 102.263 253.21 102.795C252.569 103.317 251.784 103.577 250.856 103.575C250.045 103.574 249.336 103.402 248.729 103.059C248.122 102.706 247.648 102.215 247.308 101.585C246.978 100.944 246.814 100.213 246.815 99.3919ZM253.201 98.5711C253.138 97.8777 252.878 97.3385 252.42 96.9537C251.972 96.5689 251.402 96.3759 250.709 96.3747C250.09 96.3736 249.546 96.5753 249.076 96.9798C248.606 97.3843 248.338 97.9119 248.273 98.5624L253.201 98.5711ZM263.357 103.597C262.567 103.596 261.864 103.418 261.246 103.065C260.638 102.712 260.164 102.221 259.824 101.591C259.484 100.961 259.315 100.235 259.316 99.4139C259.318 98.5926 259.489 97.8675 259.832 97.2388C260.174 96.6101 260.65 96.1202 261.259 95.7693C261.878 95.4184 262.582 95.2436 263.371 95.245C264.161 95.2464 264.859 95.4237 265.467 95.7767C266.085 96.1298 266.564 96.6213 266.904 97.2513C267.244 97.8812 267.414 98.6068 267.412 99.4282C267.411 100.25 267.239 100.975 266.896 101.603C266.554 102.232 266.073 102.722 265.454 103.073C264.845 103.424 264.146 103.598 263.357 103.597ZM263.359 102.429C263.892 102.43 264.362 102.303 264.767 102.048C265.184 101.792 265.505 101.435 265.729 100.977C265.954 100.519 266.067 100.002 266.068 99.4258C266.069 98.8498 265.958 98.3323 265.735 97.8732C265.512 97.4141 265.192 97.0563 264.777 96.7995C264.372 96.5428 263.903 96.414 263.369 96.413C262.836 96.4121 262.361 96.5393 261.945 96.7945C261.539 97.0498 261.224 97.4066 260.999 97.8649C260.774 98.3231 260.661 98.8403 260.66 99.4163C260.659 99.9923 260.77 100.51 260.993 100.969C261.217 101.428 261.531 101.786 261.935 102.043C262.351 102.299 262.825 102.428 263.359 102.429ZM272.604 95.2613C273.596 95.2631 274.39 95.5631 274.986 96.1615C275.593 96.7599 275.896 97.6991 275.893 98.9791L275.885 103.523L274.573 103.521L274.581 99.0568C274.583 98.2141 274.392 97.5738 274.009 97.1358C273.636 96.6871 273.092 96.4622 272.378 96.4609C271.61 96.4596 271.007 96.7252 270.568 97.2577C270.13 97.7903 269.91 98.5152 269.909 99.4326L269.901 103.513L268.589 103.51L268.604 95.3503L269.74 95.3523L269.914 96.4566C270.534 95.6577 271.431 95.2592 272.604 95.2613ZM29.5414 122.129L28.0694 122.126L28.0716 120.926L29.5436 120.929L29.5476 118.641L30.8596 118.643L30.8556 120.931L32.9195 120.935L32.9174 122.135L30.8534 122.131L30.8449 126.947C30.8443 127.288 30.9079 127.534 31.0356 127.683C31.1741 127.822 31.4086 127.892 31.7393 127.893L33.1633 127.895L33.1612 129.095L31.6572 129.093C30.8892 129.091 30.3401 128.92 30.0101 128.578C29.6907 128.236 29.5316 127.697 29.5329 126.961L29.5414 122.129ZM37.7891 120.847C38.7811 120.849 39.5806 121.149 40.1875 121.748C40.7944 122.346 41.0968 123.285 41.0945 124.565L41.0865 129.109L39.7745 129.107L39.7824 124.643C39.7839 123.8 39.593 123.16 39.2098 122.722C38.8266 122.273 38.2776 122.048 37.563 122.047C36.8056 122.046 36.2025 122.311 35.7536 122.844C35.3153 123.376 35.0953 124.101 35.0937 125.019L35.0865 129.099L33.7745 129.096L33.7943 117.896L35.1063 117.899L35.0986 122.283C35.366 121.856 35.7186 121.51 36.1564 121.244C36.6049 120.979 37.1491 120.846 37.7891 120.847ZM42.1581 125.031C42.1596 124.199 42.3208 123.469 42.642 122.84C42.9737 122.211 43.4333 121.727 44.0205 121.386C44.6078 121.035 45.2801 120.861 46.0374 120.862C46.7841 120.863 47.4452 121.019 48.0206 121.329C48.5961 121.64 49.0486 122.089 49.3783 122.676C49.7079 123.263 49.8827 123.951 49.9026 124.741C49.9024 124.858 49.8914 125.045 49.8696 125.301L43.5336 125.289L43.5334 125.401C43.5534 126.202 43.7976 126.842 44.2661 127.323C44.7345 127.804 45.3474 128.045 46.1048 128.046C46.6914 128.047 47.1877 127.904 47.5935 127.617C48.0101 127.319 48.2881 126.909 48.4277 126.386L49.7557 126.388C49.5942 127.22 49.193 127.902 48.5521 128.434C47.9112 128.956 47.1267 129.216 46.1987 129.214C45.3881 129.213 44.679 129.041 44.0716 128.698C43.4642 128.345 42.9904 127.854 42.6502 127.224C42.3207 126.583 42.1566 125.852 42.1581 125.031ZM48.5435 124.21C48.4808 123.517 48.2204 122.978 47.7624 122.593C47.3151 122.208 46.7447 122.015 46.0514 122.014C45.4328 122.013 44.8884 122.215 44.4183 122.619C43.9483 123.024 43.6807 123.551 43.6156 124.202L48.5435 124.21ZM62.6979 120.987L62.6842 128.747C62.6799 131.211 61.3283 132.441 58.6297 132.436C57.5737 132.434 56.7101 132.193 56.039 131.712C55.3785 131.23 54.9957 130.547 54.8906 129.661L56.2346 129.664C56.3403 130.176 56.6116 130.571 57.0485 130.849C57.4853 131.127 58.0451 131.267 58.7277 131.268C60.4877 131.271 61.3693 130.414 61.3723 128.697L61.374 127.737C60.7855 128.739 59.8513 129.238 58.5713 129.236C57.814 129.235 57.137 129.068 56.5402 128.736C55.9541 128.405 55.491 127.924 55.1507 127.294C54.8212 126.664 54.6572 125.917 54.6587 125.053C54.6601 124.232 54.8268 123.507 55.1585 122.878C55.501 122.249 55.9712 121.759 56.5691 121.408C57.1671 121.057 57.8394 120.883 58.5861 120.884C59.2474 120.885 59.8125 121.019 60.2813 121.287C60.7502 121.544 61.1176 121.912 61.3834 122.393L61.5619 120.985L62.6979 120.987ZM58.7014 128.068C59.2241 128.069 59.6883 127.947 60.094 127.703C60.5105 127.447 60.8311 127.096 61.0559 126.648C61.2807 126.19 61.3936 125.673 61.3946 125.097C61.3957 124.51 61.2846 123.987 61.0614 123.528C60.8382 123.059 60.5189 122.695 60.1033 122.439C59.6984 122.182 59.2347 122.053 58.712 122.052C57.9013 122.051 57.2448 122.332 56.7425 122.897C56.2509 123.451 56.0043 124.17 56.0027 125.055C56.0011 125.941 56.2452 126.667 56.7349 127.233C57.2352 127.788 57.8907 128.067 58.7014 128.068ZM67.9106 129.252C67.1212 129.251 66.4175 129.074 65.7995 128.721C65.1921 128.368 64.7183 127.876 64.3781 127.246C64.0379 126.616 63.8685 125.891 63.8699 125.069C63.8714 124.248 64.0433 123.523 64.3858 122.894C64.7282 122.265 65.2037 121.776 65.8124 121.425C66.4316 121.074 67.136 120.899 67.9253 120.9C68.7146 120.902 69.413 121.079 70.0204 121.432C70.6384 121.785 71.1175 122.277 71.4578 122.907C71.798 123.537 71.9674 124.262 71.9659 125.084C71.9645 125.905 71.7925 126.63 71.4501 127.259C71.1076 127.887 70.6268 128.377 70.0075 128.728C69.3989 129.079 68.6999 129.254 67.9106 129.252ZM67.9126 128.084C68.446 128.085 68.9155 127.958 69.3213 127.703C69.7377 127.448 70.0584 127.091 70.2832 126.633C70.508 126.174 70.6209 125.657 70.6219 125.081C70.6229 124.505 70.5119 123.988 70.2887 123.529C70.0655 123.07 69.7461 122.712 69.3306 122.455C68.9257 122.198 68.4566 122.069 67.9232 122.068C67.3899 122.068 66.915 122.195 66.4986 122.45C66.0928 122.705 65.7775 123.062 65.5527 123.52C65.3279 123.979 65.2149 124.496 65.2139 125.072C65.2129 125.648 65.324 126.165 65.5472 126.624C65.7704 127.083 66.0844 127.441 66.4893 127.698C66.9049 127.955 67.3793 128.084 67.9126 128.084ZM72.4534 128.364C72.4539 128.098 72.5396 127.885 72.7105 127.725C72.8815 127.555 73.1003 127.47 73.367 127.47C73.6336 127.471 73.8521 127.556 74.0225 127.727C74.1929 127.888 74.2779 128.101 74.2774 128.368C74.2769 128.634 74.1912 128.853 74.0202 129.023C73.8493 129.183 73.6305 129.263 73.3638 129.262C73.0971 129.262 72.8786 129.181 72.7082 129.021C72.5379 128.85 72.4529 128.631 72.4534 128.364ZM78.9353 125.24L84.5641 117.986L86.1641 117.989L86.1513 125.221L87.9593 125.224L87.9571 126.456L86.1492 126.453L86.1443 129.189L84.8003 129.186L84.8052 126.45L78.9332 126.44L78.9353 125.24ZM80.3753 125.21L84.8073 125.218L84.8174 119.49L80.3753 125.21Z" fill="white" style="fill:white;fill-opacity:1;"/>
<rect width="12.2254" height="121.476" transform="matrix(-1 0 0 1 320.25 24.0864)" fill="white" style="fill:white;fill-opacity:1;"/>
<path d="M320.25 36.3118C320.25 29.5599 314.777 24.0864 308.025 24.0864V41.781H320.25V36.3118Z" fill="#F22F46" style="fill:#F22F46;fill:color(display-p3 0.9490 0.1843 0.2745);fill-opacity:1;"/>
<rect width="12.2254" height="86.0862" transform="matrix(-1 0 0 1 320.25 41.781)" fill="#F22F46" style="fill:#F22F46;fill:color(display-p3 0.9490 0.1843 0.2745);fill-opacity:1;"/>
<path d="M320.25 133.337C320.25 140.088 314.777 145.562 308.025 145.562V127.867H320.25V133.337Z" fill="#F22F46" style="fill:#F22F46;fill:color(display-p3 0.9490 0.1843 0.2745);fill-opacity:1;"/>
<rect x="347.717" y="124" width="60" height="60" rx="30" fill="#FFE1E5" style="fill:#FFE1E5;fill:color(display-p3 1.0000 0.8824 0.8980);fill-opacity:1;"/>
<rect x="363.311" y="139.639" width="28.7159" height="28.7159" rx="7.33172" fill="#F22F46" style="fill:#F22F46;fill:color(display-p3 0.9490 0.1843 0.2745);fill-opacity:1;"/>
<rect x="373.088" y="145.75" width="2.13842" height="2.13842" fill="white" style="fill:white;fill-opacity:1;"/>
<rect x="376.756" y="145.751" width="2.13842" height="2.13842" fill="white" style="fill:white;fill-opacity:1;"/>
<rect x="380.422" y="145.751" width="2.13842" height="2.13842" fill="white" style="fill:white;fill-opacity:1;"/>
<rect x="380.422" y="149.417" width="2.13842" height="2.13842" fill="white" style="fill:white;fill-opacity:1;"/>
<rect x="373.088" y="149.416" width="2.13842" height="2.13842" fill="white" style="fill:white;fill-opacity:1;"/>
<rect x="380.422" y="156.749" width="2.13842" height="2.13842" fill="white" style="fill:white;fill-opacity:1;"/>
<rect x="380.422" y="160.414" width="2.13842" height="2.13842" fill="white" style="fill:white;fill-opacity:1;"/>
<rect x="373.088" y="153.082" width="2.13842" height="2.13842" fill="white" style="fill:white;fill-opacity:1;"/>
<rect x="376.752" y="153.082" width="2.13842" height="2.13842" fill="white" style="fill:white;fill-opacity:1;"/>
<rect x="373.088" y="156.748" width="2.13842" height="2.13842" fill="white" style="fill:white;fill-opacity:1;"/>
<rect x="373.088" y="160.414" width="2.13842" height="2.13842" fill="white" style="fill:white;fill-opacity:1;"/>
</svg>
